<?xml version="1.0" encoding="utf-8"?>
<svg xmlns="http://www.w3.org/2000/svg" xmlns:xlink="http://www.w3.org/1999/xlink" width="600" height="400" viewBox="0 0 2400 1600">
<defs>
  <clipPath id="clip740">
    <rect x="0" y="0" width="2400" height="1600"/>
  </clipPath>
</defs>
<path clip-path="url(#clip740)" d="M0 1600 L2400 1600 L2400 0 L0 0  Z" fill="#ffffff" fill-rule="evenodd" fill-opacity="1"/>
<defs>
  <clipPath id="clip741">
    <rect x="480" y="0" width="1681" height="1600"/>
  </clipPath>
</defs>
<path clip-path="url(#clip740)" d="M224.098 1486.45 L2352.76 1486.45 L2352.76 47.2441 L224.098 47.2441  Z" fill="#ffffff" fill-rule="evenodd" fill-opacity="1"/>
<defs>
  <clipPath id="clip742">
    <rect x="224" y="47" width="2130" height="1440"/>
  </clipPath>
</defs>
<polyline clip-path="url(#clip742)" style="stroke:#000000; stroke-linecap:round; stroke-linejoin:round; stroke-width:2; stroke-opacity:0.1; fill:none" points="278.811,1486.45 278.811,47.2441 "/>
<polyline clip-path="url(#clip742)" style="stroke:#000000; stroke-linecap:round; stroke-linejoin:round; stroke-width:2; stroke-opacity:0.1; fill:none" points="776.704,1486.45 776.704,47.2441 "/>
<polyline clip-path="url(#clip742)" style="stroke:#000000; stroke-linecap:round; stroke-linejoin:round; stroke-width:2; stroke-opacity:0.1; fill:none" points="1280.13,1486.45 1280.13,47.2441 "/>
<polyline clip-path="url(#clip742)" style="stroke:#000000; stroke-linecap:round; stroke-linejoin:round; stroke-width:2; stroke-opacity:0.1; fill:none" points="1789.09,1486.45 1789.09,47.2441 "/>
<polyline clip-path="url(#clip742)" style="stroke:#000000; stroke-linecap:round; stroke-linejoin:round; stroke-width:2; stroke-opacity:0.1; fill:none" points="2298.04,1486.45 2298.04,47.2441 "/>
<polyline clip-path="url(#clip742)" style="stroke:#000000; stroke-linecap:round; stroke-linejoin:round; stroke-width:2; stroke-opacity:0.1; fill:none" points="224.098,1445.72 2352.76,1445.72 "/>
<polyline clip-path="url(#clip742)" style="stroke:#000000; stroke-linecap:round; stroke-linejoin:round; stroke-width:2; stroke-opacity:0.1; fill:none" points="224.098,1103.03 2352.76,1103.03 "/>
<polyline clip-path="url(#clip742)" style="stroke:#000000; stroke-linecap:round; stroke-linejoin:round; stroke-width:2; stroke-opacity:0.1; fill:none" points="224.098,760.349 2352.76,760.349 "/>
<polyline clip-path="url(#clip742)" style="stroke:#000000; stroke-linecap:round; stroke-linejoin:round; stroke-width:2; stroke-opacity:0.1; fill:none" points="224.098,417.666 2352.76,417.666 "/>
<polyline clip-path="url(#clip742)" style="stroke:#000000; stroke-linecap:round; stroke-linejoin:round; stroke-width:2; stroke-opacity:0.1; fill:none" points="224.098,74.9832 2352.76,74.9832 "/>
<polyline clip-path="url(#clip740)" style="stroke:#000000; stroke-linecap:round; stroke-linejoin:round; stroke-width:4; stroke-opacity:1; fill:none" points="224.098,1486.45 2352.76,1486.45 "/>
<polyline clip-path="url(#clip740)" style="stroke:#000000; stroke-linecap:round; stroke-linejoin:round; stroke-width:4; stroke-opacity:1; fill:none" points="278.811,1486.45 278.811,1467.55 "/>
<polyline clip-path="url(#clip740)" style="stroke:#000000; stroke-linecap:round; stroke-linejoin:round; stroke-width:4; stroke-opacity:1; fill:none" points="776.704,1486.45 776.704,1467.55 "/>
<polyline clip-path="url(#clip740)" style="stroke:#000000; stroke-linecap:round; stroke-linejoin:round; stroke-width:4; stroke-opacity:1; fill:none" points="1280.13,1486.45 1280.13,1467.55 "/>
<polyline clip-path="url(#clip740)" style="stroke:#000000; stroke-linecap:round; stroke-linejoin:round; stroke-width:4; stroke-opacity:1; fill:none" points="1789.09,1486.45 1789.09,1467.55 "/>
<polyline clip-path="url(#clip740)" style="stroke:#000000; stroke-linecap:round; stroke-linejoin:round; stroke-width:4; stroke-opacity:1; fill:none" points="2298.04,1486.45 2298.04,1467.55 "/>
<path clip-path="url(#clip740)" d="M150.605 1544.91 L166.925 1544.91 L166.925 1548.85 L144.98 1548.85 L144.98 1544.91 Q147.642 1542.16 152.226 1537.53 Q156.832 1532.88 158.013 1531.53 Q160.258 1529.01 161.138 1527.27 Q162.041 1525.51 162.041 1523.82 Q162.041 1521.07 160.096 1519.33 Q158.175 1517.6 155.073 1517.6 Q152.874 1517.6 150.42 1518.36 Q147.99 1519.13 145.212 1520.68 L145.212 1515.95 Q148.036 1514.82 150.49 1514.24 Q152.943 1513.66 154.98 1513.66 Q160.351 1513.66 163.545 1516.35 Q166.74 1519.03 166.74 1523.52 Q166.74 1525.65 165.929 1527.57 Q165.142 1529.47 163.036 1532.07 Q162.457 1532.74 159.355 1535.95 Q156.254 1539.15 150.605 1544.91 Z" fill="#000000" fill-rule="nonzero" fill-opacity="1" /><path clip-path="url(#clip740)" d="M186.74 1517.37 Q183.128 1517.37 181.3 1520.93 Q179.494 1524.47 179.494 1531.6 Q179.494 1538.71 181.3 1542.27 Q183.128 1545.82 186.74 1545.82 Q190.374 1545.82 192.179 1542.27 Q194.008 1538.71 194.008 1531.6 Q194.008 1524.47 192.179 1520.93 Q190.374 1517.37 186.74 1517.37 M186.74 1513.66 Q192.55 1513.66 195.605 1518.27 Q198.684 1522.85 198.684 1531.6 Q198.684 1540.33 195.605 1544.94 Q192.55 1549.52 186.74 1549.52 Q180.929 1549.52 177.851 1544.94 Q174.795 1540.33 174.795 1531.6 Q174.795 1522.85 177.851 1518.27 Q180.929 1513.66 186.74 1513.66 Z" fill="#000000" fill-rule="nonzero" fill-opacity="1" /><path clip-path="url(#clip740)" d="M216.901 1517.37 Q213.29 1517.37 211.462 1520.93 Q209.656 1524.47 209.656 1531.6 Q209.656 1538.71 211.462 1542.27 Q213.29 1545.82 216.901 1545.82 Q220.536 1545.82 222.341 1542.27 Q224.17 1538.71 224.17 1531.6 Q224.17 1524.47 222.341 1520.93 Q220.536 1517.37 216.901 1517.37 M216.901 1513.66 Q222.712 1513.66 225.767 1518.27 Q228.846 1522.85 228.846 1531.6 Q228.846 1540.33 225.767 1544.94 Q222.712 1549.52 216.901 1549.52 Q211.091 1549.52 208.013 1544.94 Q204.957 1540.33 204.957 1531.6 Q204.957 1522.85 208.013 1518.27 Q211.091 1513.66 216.901 1513.66 Z" fill="#000000" fill-rule="nonzero" fill-opacity="1" /><path clip-path="url(#clip740)" d="M237.873 1544.91 L245.512 1544.91 L245.512 1518.55 L237.202 1520.21 L237.202 1515.95 L245.466 1514.29 L250.142 1514.29 L250.142 1544.91 L257.781 1544.91 L257.781 1548.85 L237.873 1548.85 L237.873 1544.91 Z" fill="#000000" fill-rule="nonzero" fill-opacity="1" /><path clip-path="url(#clip740)" d="M264.471 1533.96 L276.947 1533.96 L276.947 1537.76 L264.471 1537.76 L264.471 1533.96 Z" fill="#000000" fill-rule="nonzero" fill-opacity="1" /><path clip-path="url(#clip740)" d="M294.332 1517.37 Q290.72 1517.37 288.892 1520.93 Q287.086 1524.47 287.086 1531.6 Q287.086 1538.71 288.892 1542.27 Q290.72 1545.82 294.332 1545.82 Q297.966 1545.82 299.771 1542.27 Q301.6 1538.71 301.6 1531.6 Q301.6 1524.47 299.771 1520.93 Q297.966 1517.37 294.332 1517.37 M294.332 1513.66 Q300.142 1513.66 303.197 1518.27 Q306.276 1522.85 306.276 1531.6 Q306.276 1540.33 303.197 1544.94 Q300.142 1549.52 294.332 1549.52 Q288.521 1549.52 285.443 1544.94 Q282.387 1540.33 282.387 1531.6 Q282.387 1522.85 285.443 1518.27 Q288.521 1513.66 294.332 1513.66 Z" fill="#000000" fill-rule="nonzero" fill-opacity="1" /><path clip-path="url(#clip740)" d="M315.304 1544.91 L322.942 1544.91 L322.942 1518.55 L314.632 1520.21 L314.632 1515.95 L322.896 1514.29 L327.572 1514.29 L327.572 1544.91 L335.211 1544.91 L335.211 1548.85 L315.304 1548.85 L315.304 1544.91 Z" fill="#000000" fill-rule="nonzero" fill-opacity="1" /><path clip-path="url(#clip740)" d="M341.901 1533.96 L354.377 1533.96 L354.377 1537.76 L341.901 1537.76 L341.901 1533.96 Z" fill="#000000" fill-rule="nonzero" fill-opacity="1" /><path clip-path="url(#clip740)" d="M371.762 1517.37 Q368.151 1517.37 366.322 1520.93 Q364.516 1524.47 364.516 1531.6 Q364.516 1538.71 366.322 1542.27 Q368.151 1545.82 371.762 1545.82 Q375.396 1545.82 377.201 1542.27 Q379.03 1538.71 379.03 1531.6 Q379.03 1524.47 377.201 1520.93 Q375.396 1517.37 371.762 1517.37 M371.762 1513.66 Q377.572 1513.66 380.627 1518.27 Q383.706 1522.85 383.706 1531.6 Q383.706 1540.33 380.627 1544.94 Q377.572 1549.52 371.762 1549.52 Q365.952 1549.52 362.873 1544.94 Q359.817 1540.33 359.817 1531.6 Q359.817 1522.85 362.873 1518.27 Q365.952 1513.66 371.762 1513.66 Z" fill="#000000" fill-rule="nonzero" fill-opacity="1" /><path clip-path="url(#clip740)" d="M392.734 1544.91 L400.373 1544.91 L400.373 1518.55 L392.062 1520.21 L392.062 1515.95 L400.326 1514.29 L405.002 1514.29 L405.002 1544.91 L412.641 1544.91 L412.641 1548.85 L392.734 1548.85 L392.734 1544.91 Z" fill="#000000" fill-rule="nonzero" fill-opacity="1" /><path clip-path="url(#clip740)" d="M648.498 1544.91 L664.818 1544.91 L664.818 1548.85 L642.873 1548.85 L642.873 1544.91 Q645.535 1542.16 650.119 1537.53 Q654.725 1532.88 655.906 1531.53 Q658.151 1529.01 659.031 1527.27 Q659.933 1525.51 659.933 1523.82 Q659.933 1521.07 657.989 1519.33 Q656.068 1517.6 652.966 1517.6 Q650.767 1517.6 648.313 1518.36 Q645.883 1519.13 643.105 1520.68 L643.105 1515.95 Q645.929 1514.82 648.383 1514.24 Q650.836 1513.66 652.873 1513.66 Q658.244 1513.66 661.438 1516.35 Q664.632 1519.03 664.632 1523.52 Q664.632 1525.65 663.822 1527.57 Q663.035 1529.47 660.929 1532.07 Q660.35 1532.74 657.248 1535.95 Q654.146 1539.15 648.498 1544.91 Z" fill="#000000" fill-rule="nonzero" fill-opacity="1" /><path clip-path="url(#clip740)" d="M684.632 1517.37 Q681.021 1517.37 679.193 1520.93 Q677.387 1524.47 677.387 1531.6 Q677.387 1538.71 679.193 1542.27 Q681.021 1545.82 684.632 1545.82 Q688.267 1545.82 690.072 1542.27 Q691.901 1538.71 691.901 1531.6 Q691.901 1524.47 690.072 1520.93 Q688.267 1517.37 684.632 1517.37 M684.632 1513.66 Q690.443 1513.66 693.498 1518.27 Q696.577 1522.85 696.577 1531.6 Q696.577 1540.33 693.498 1544.94 Q690.443 1549.52 684.632 1549.52 Q678.822 1549.52 675.744 1544.94 Q672.688 1540.33 672.688 1531.6 Q672.688 1522.85 675.744 1518.27 Q678.822 1513.66 684.632 1513.66 Z" fill="#000000" fill-rule="nonzero" fill-opacity="1" /><path clip-path="url(#clip740)" d="M714.794 1517.37 Q711.183 1517.37 709.354 1520.93 Q707.549 1524.47 707.549 1531.6 Q707.549 1538.71 709.354 1542.27 Q711.183 1545.82 714.794 1545.82 Q718.428 1545.82 720.234 1542.27 Q722.063 1538.71 722.063 1531.6 Q722.063 1524.47 720.234 1520.93 Q718.428 1517.37 714.794 1517.37 M714.794 1513.66 Q720.604 1513.66 723.66 1518.27 Q726.739 1522.85 726.739 1531.6 Q726.739 1540.33 723.66 1544.94 Q720.604 1549.52 714.794 1549.52 Q708.984 1549.52 705.905 1544.94 Q702.85 1540.33 702.85 1531.6 Q702.85 1522.85 705.905 1518.27 Q708.984 1513.66 714.794 1513.66 Z" fill="#000000" fill-rule="nonzero" fill-opacity="1" /><path clip-path="url(#clip740)" d="M735.766 1544.91 L743.405 1544.91 L743.405 1518.55 L735.095 1520.21 L735.095 1515.95 L743.359 1514.29 L748.035 1514.29 L748.035 1544.91 L755.674 1544.91 L755.674 1548.85 L735.766 1548.85 L735.766 1544.91 Z" fill="#000000" fill-rule="nonzero" fill-opacity="1" /><path clip-path="url(#clip740)" d="M762.363 1533.96 L774.84 1533.96 L774.84 1537.76 L762.363 1537.76 L762.363 1533.96 Z" fill="#000000" fill-rule="nonzero" fill-opacity="1" /><path clip-path="url(#clip740)" d="M792.224 1517.37 Q788.613 1517.37 786.785 1520.93 Q784.979 1524.47 784.979 1531.6 Q784.979 1538.71 786.785 1542.27 Q788.613 1545.82 792.224 1545.82 Q795.859 1545.82 797.664 1542.27 Q799.493 1538.71 799.493 1531.6 Q799.493 1524.47 797.664 1520.93 Q795.859 1517.37 792.224 1517.37 M792.224 1513.66 Q798.035 1513.66 801.09 1518.27 Q804.169 1522.85 804.169 1531.6 Q804.169 1540.33 801.09 1544.94 Q798.035 1549.52 792.224 1549.52 Q786.414 1549.52 783.336 1544.94 Q780.28 1540.33 780.28 1531.6 Q780.28 1522.85 783.336 1518.27 Q786.414 1513.66 792.224 1513.66 Z" fill="#000000" fill-rule="nonzero" fill-opacity="1" /><path clip-path="url(#clip740)" d="M825.233 1518.36 L813.428 1536.81 L825.233 1536.81 L825.233 1518.36 M824.007 1514.29 L829.886 1514.29 L829.886 1536.81 L834.817 1536.81 L834.817 1540.7 L829.886 1540.7 L829.886 1548.85 L825.233 1548.85 L825.233 1540.7 L809.632 1540.7 L809.632 1536.19 L824.007 1514.29 Z" fill="#000000" fill-rule="nonzero" fill-opacity="1" /><path clip-path="url(#clip740)" d="M839.794 1533.96 L852.27 1533.96 L852.27 1537.76 L839.794 1537.76 L839.794 1533.96 Z" fill="#000000" fill-rule="nonzero" fill-opacity="1" /><path clip-path="url(#clip740)" d="M869.655 1517.37 Q866.043 1517.37 864.215 1520.93 Q862.409 1524.47 862.409 1531.6 Q862.409 1538.71 864.215 1542.27 Q866.043 1545.82 869.655 1545.82 Q873.289 1545.82 875.094 1542.27 Q876.923 1538.71 876.923 1531.6 Q876.923 1524.47 875.094 1520.93 Q873.289 1517.37 869.655 1517.37 M869.655 1513.66 Q875.465 1513.66 878.52 1518.27 Q881.599 1522.85 881.599 1531.6 Q881.599 1540.33 878.52 1544.94 Q875.465 1549.52 869.655 1549.52 Q863.844 1549.52 860.766 1544.94 Q857.71 1540.33 857.71 1531.6 Q857.71 1522.85 860.766 1518.27 Q863.844 1513.66 869.655 1513.66 Z" fill="#000000" fill-rule="nonzero" fill-opacity="1" /><path clip-path="url(#clip740)" d="M890.627 1544.91 L898.265 1544.91 L898.265 1518.55 L889.955 1520.21 L889.955 1515.95 L898.219 1514.29 L902.895 1514.29 L902.895 1544.91 L910.534 1544.91 L910.534 1548.85 L890.627 1548.85 L890.627 1544.91 Z" fill="#000000" fill-rule="nonzero" fill-opacity="1" /><path clip-path="url(#clip740)" d="M1151.92 1544.91 L1168.24 1544.91 L1168.24 1548.85 L1146.3 1548.85 L1146.3 1544.91 Q1148.96 1542.16 1153.54 1537.53 Q1158.15 1532.88 1159.33 1531.53 Q1161.58 1529.01 1162.46 1527.27 Q1163.36 1525.51 1163.36 1523.82 Q1163.36 1521.07 1161.41 1519.33 Q1159.49 1517.6 1156.39 1517.6 Q1154.19 1517.6 1151.74 1518.36 Q1149.31 1519.13 1146.53 1520.68 L1146.53 1515.95 Q1149.35 1514.82 1151.81 1514.24 Q1154.26 1513.66 1156.3 1513.66 Q1161.67 1513.66 1164.86 1516.35 Q1168.06 1519.03 1168.06 1523.52 Q1168.06 1525.65 1167.25 1527.57 Q1166.46 1529.47 1164.35 1532.07 Q1163.78 1532.74 1160.67 1535.95 Q1157.57 1539.15 1151.92 1544.91 Z" fill="#000000" fill-rule="nonzero" fill-opacity="1" /><path clip-path="url(#clip740)" d="M1188.06 1517.37 Q1184.45 1517.37 1182.62 1520.93 Q1180.81 1524.47 1180.81 1531.6 Q1180.81 1538.71 1182.62 1542.27 Q1184.45 1545.82 1188.06 1545.82 Q1191.69 1545.82 1193.5 1542.27 Q1195.33 1538.71 1195.33 1531.6 Q1195.33 1524.47 1193.5 1520.93 Q1191.69 1517.37 1188.06 1517.37 M1188.06 1513.66 Q1193.87 1513.66 1196.92 1518.27 Q1200 1522.85 1200 1531.6 Q1200 1540.33 1196.92 1544.94 Q1193.87 1549.52 1188.06 1549.52 Q1182.25 1549.52 1179.17 1544.94 Q1176.11 1540.33 1176.11 1531.6 Q1176.11 1522.85 1179.17 1518.27 Q1182.25 1513.66 1188.06 1513.66 Z" fill="#000000" fill-rule="nonzero" fill-opacity="1" /><path clip-path="url(#clip740)" d="M1218.22 1517.37 Q1214.61 1517.37 1212.78 1520.93 Q1210.97 1524.47 1210.97 1531.6 Q1210.97 1538.71 1212.78 1542.27 Q1214.61 1545.82 1218.22 1545.82 Q1221.85 1545.82 1223.66 1542.27 Q1225.49 1538.71 1225.49 1531.6 Q1225.49 1524.47 1223.66 1520.93 Q1221.85 1517.37 1218.22 1517.37 M1218.22 1513.66 Q1224.03 1513.66 1227.08 1518.27 Q1230.16 1522.85 1230.16 1531.6 Q1230.16 1540.33 1227.08 1544.94 Q1224.03 1549.52 1218.22 1549.52 Q1212.41 1549.52 1209.33 1544.94 Q1206.27 1540.33 1206.27 1531.6 Q1206.27 1522.85 1209.33 1518.27 Q1212.41 1513.66 1218.22 1513.66 Z" fill="#000000" fill-rule="nonzero" fill-opacity="1" /><path clip-path="url(#clip740)" d="M1239.19 1544.91 L1246.83 1544.91 L1246.83 1518.55 L1238.52 1520.21 L1238.52 1515.95 L1246.78 1514.29 L1251.46 1514.29 L1251.46 1544.91 L1259.1 1544.91 L1259.1 1548.85 L1239.19 1548.85 L1239.19 1544.91 Z" fill="#000000" fill-rule="nonzero" fill-opacity="1" /><path clip-path="url(#clip740)" d="M1265.79 1533.96 L1278.27 1533.96 L1278.27 1537.76 L1265.79 1537.76 L1265.79 1533.96 Z" fill="#000000" fill-rule="nonzero" fill-opacity="1" /><path clip-path="url(#clip740)" d="M1295.65 1517.37 Q1292.04 1517.37 1290.21 1520.93 Q1288.4 1524.47 1288.4 1531.6 Q1288.4 1538.71 1290.21 1542.27 Q1292.04 1545.82 1295.65 1545.82 Q1299.28 1545.82 1301.09 1542.27 Q1302.92 1538.71 1302.92 1531.6 Q1302.92 1524.47 1301.09 1520.93 Q1299.28 1517.37 1295.65 1517.37 M1295.65 1513.66 Q1301.46 1513.66 1304.52 1518.27 Q1307.59 1522.85 1307.59 1531.6 Q1307.59 1540.33 1304.52 1544.94 Q1301.46 1549.52 1295.65 1549.52 Q1289.84 1549.52 1286.76 1544.94 Q1283.71 1540.33 1283.71 1531.6 Q1283.71 1522.85 1286.76 1518.27 Q1289.84 1513.66 1295.65 1513.66 Z" fill="#000000" fill-rule="nonzero" fill-opacity="1" /><path clip-path="url(#clip740)" d="M1314.63 1514.29 L1336.85 1514.29 L1336.85 1516.28 L1324.31 1548.85 L1319.42 1548.85 L1331.23 1518.22 L1314.63 1518.22 L1314.63 1514.29 Z" fill="#000000" fill-rule="nonzero" fill-opacity="1" /><path clip-path="url(#clip740)" d="M1343.22 1533.96 L1355.7 1533.96 L1355.7 1537.76 L1343.22 1537.76 L1343.22 1533.96 Z" fill="#000000" fill-rule="nonzero" fill-opacity="1" /><path clip-path="url(#clip740)" d="M1373.08 1517.37 Q1369.47 1517.37 1367.64 1520.93 Q1365.83 1524.47 1365.83 1531.6 Q1365.83 1538.71 1367.64 1542.27 Q1369.47 1545.82 1373.08 1545.82 Q1376.71 1545.82 1378.52 1542.27 Q1380.35 1538.71 1380.35 1531.6 Q1380.35 1524.47 1378.52 1520.93 Q1376.71 1517.37 1373.08 1517.37 M1373.08 1513.66 Q1378.89 1513.66 1381.95 1518.27 Q1385.02 1522.85 1385.02 1531.6 Q1385.02 1540.33 1381.95 1544.94 Q1378.89 1549.52 1373.08 1549.52 Q1367.27 1549.52 1364.19 1544.94 Q1361.14 1540.33 1361.14 1531.6 Q1361.14 1522.85 1364.19 1518.27 Q1367.27 1513.66 1373.08 1513.66 Z" fill="#000000" fill-rule="nonzero" fill-opacity="1" /><path clip-path="url(#clip740)" d="M1394.05 1544.91 L1401.69 1544.91 L1401.69 1518.55 L1393.38 1520.21 L1393.38 1515.95 L1401.64 1514.29 L1406.32 1514.29 L1406.32 1544.91 L1413.96 1544.91 L1413.96 1548.85 L1394.05 1548.85 L1394.05 1544.91 Z" fill="#000000" fill-rule="nonzero" fill-opacity="1" /><path clip-path="url(#clip740)" d="M1660.88 1544.91 L1677.2 1544.91 L1677.2 1548.85 L1655.26 1548.85 L1655.26 1544.91 Q1657.92 1542.16 1662.5 1537.53 Q1667.11 1532.88 1668.29 1531.53 Q1670.53 1529.01 1671.41 1527.27 Q1672.32 1525.51 1672.32 1523.82 Q1672.32 1521.07 1670.37 1519.33 Q1668.45 1517.6 1665.35 1517.6 Q1663.15 1517.6 1660.7 1518.36 Q1658.26 1519.13 1655.49 1520.68 L1655.49 1515.95 Q1658.31 1514.82 1660.76 1514.24 Q1663.22 1513.66 1665.26 1513.66 Q1670.63 1513.66 1673.82 1516.35 Q1677.01 1519.03 1677.01 1523.52 Q1677.01 1525.65 1676.2 1527.57 Q1675.42 1529.47 1673.31 1532.07 Q1672.73 1532.74 1669.63 1535.95 Q1666.53 1539.15 1660.88 1544.91 Z" fill="#000000" fill-rule="nonzero" fill-opacity="1" /><path clip-path="url(#clip740)" d="M1697.01 1517.37 Q1693.4 1517.37 1691.57 1520.93 Q1689.77 1524.47 1689.77 1531.6 Q1689.77 1538.71 1691.57 1542.27 Q1693.4 1545.82 1697.01 1545.82 Q1700.65 1545.82 1702.45 1542.27 Q1704.28 1538.71 1704.28 1531.6 Q1704.28 1524.47 1702.45 1520.93 Q1700.65 1517.37 1697.01 1517.37 M1697.01 1513.66 Q1702.82 1513.66 1705.88 1518.27 Q1708.96 1522.85 1708.96 1531.6 Q1708.96 1540.33 1705.88 1544.94 Q1702.82 1549.52 1697.01 1549.52 Q1691.2 1549.52 1688.13 1544.94 Q1685.07 1540.33 1685.07 1531.6 Q1685.07 1522.85 1688.13 1518.27 Q1691.2 1513.66 1697.01 1513.66 Z" fill="#000000" fill-rule="nonzero" fill-opacity="1" /><path clip-path="url(#clip740)" d="M1727.18 1517.37 Q1723.57 1517.37 1721.74 1520.93 Q1719.93 1524.47 1719.93 1531.6 Q1719.93 1538.71 1721.74 1542.27 Q1723.57 1545.82 1727.18 1545.82 Q1730.81 1545.82 1732.62 1542.27 Q1734.44 1538.71 1734.44 1531.6 Q1734.44 1524.47 1732.62 1520.93 Q1730.81 1517.37 1727.18 1517.37 M1727.18 1513.66 Q1732.99 1513.66 1736.04 1518.27 Q1739.12 1522.85 1739.12 1531.6 Q1739.12 1540.33 1736.04 1544.94 Q1732.99 1549.52 1727.18 1549.52 Q1721.37 1549.52 1718.29 1544.94 Q1715.23 1540.33 1715.23 1531.6 Q1715.23 1522.85 1718.29 1518.27 Q1721.37 1513.66 1727.18 1513.66 Z" fill="#000000" fill-rule="nonzero" fill-opacity="1" /><path clip-path="url(#clip740)" d="M1748.15 1544.91 L1755.79 1544.91 L1755.79 1518.55 L1747.48 1520.21 L1747.48 1515.95 L1755.74 1514.29 L1760.42 1514.29 L1760.42 1544.91 L1768.06 1544.91 L1768.06 1548.85 L1748.15 1548.85 L1748.15 1544.91 Z" fill="#000000" fill-rule="nonzero" fill-opacity="1" /><path clip-path="url(#clip740)" d="M1774.75 1533.96 L1787.22 1533.96 L1787.22 1537.76 L1774.75 1537.76 L1774.75 1533.96 Z" fill="#000000" fill-rule="nonzero" fill-opacity="1" /><path clip-path="url(#clip740)" d="M1795.42 1544.91 L1803.06 1544.91 L1803.06 1518.55 L1794.75 1520.21 L1794.75 1515.95 L1803.01 1514.29 L1807.69 1514.29 L1807.69 1544.91 L1815.32 1544.91 L1815.32 1548.85 L1795.42 1548.85 L1795.42 1544.91 Z" fill="#000000" fill-rule="nonzero" fill-opacity="1" /><path clip-path="url(#clip740)" d="M1834.77 1517.37 Q1831.16 1517.37 1829.33 1520.93 Q1827.52 1524.47 1827.52 1531.6 Q1827.52 1538.71 1829.33 1542.27 Q1831.16 1545.82 1834.77 1545.82 Q1838.4 1545.82 1840.21 1542.27 Q1842.04 1538.71 1842.04 1531.6 Q1842.04 1524.47 1840.21 1520.93 Q1838.4 1517.37 1834.77 1517.37 M1834.77 1513.66 Q1840.58 1513.66 1843.63 1518.27 Q1846.71 1522.85 1846.71 1531.6 Q1846.71 1540.33 1843.63 1544.94 Q1840.58 1549.52 1834.77 1549.52 Q1828.96 1549.52 1825.88 1544.94 Q1822.82 1540.33 1822.82 1531.6 Q1822.82 1522.85 1825.88 1518.27 Q1828.96 1513.66 1834.77 1513.66 Z" fill="#000000" fill-rule="nonzero" fill-opacity="1" /><path clip-path="url(#clip740)" d="M1852.18 1533.96 L1864.65 1533.96 L1864.65 1537.76 L1852.18 1537.76 L1852.18 1533.96 Z" fill="#000000" fill-rule="nonzero" fill-opacity="1" /><path clip-path="url(#clip740)" d="M1882.04 1517.37 Q1878.43 1517.37 1876.6 1520.93 Q1874.79 1524.47 1874.79 1531.6 Q1874.79 1538.71 1876.6 1542.27 Q1878.43 1545.82 1882.04 1545.82 Q1885.67 1545.82 1887.48 1542.27 Q1889.31 1538.71 1889.31 1531.6 Q1889.31 1524.47 1887.48 1520.93 Q1885.67 1517.37 1882.04 1517.37 M1882.04 1513.66 Q1887.85 1513.66 1890.9 1518.27 Q1893.98 1522.85 1893.98 1531.6 Q1893.98 1540.33 1890.9 1544.94 Q1887.85 1549.52 1882.04 1549.52 Q1876.23 1549.52 1873.15 1544.94 Q1870.09 1540.33 1870.09 1531.6 Q1870.09 1522.85 1873.15 1518.27 Q1876.23 1513.66 1882.04 1513.66 Z" fill="#000000" fill-rule="nonzero" fill-opacity="1" /><path clip-path="url(#clip740)" d="M1903.01 1544.91 L1910.65 1544.91 L1910.65 1518.55 L1902.34 1520.21 L1902.34 1515.95 L1910.6 1514.29 L1915.28 1514.29 L1915.28 1544.91 L1922.92 1544.91 L1922.92 1548.85 L1903.01 1548.85 L1903.01 1544.91 Z" fill="#000000" fill-rule="nonzero" fill-opacity="1" /><path clip-path="url(#clip740)" d="M2169.84 1544.91 L2186.16 1544.91 L2186.16 1548.85 L2164.21 1548.85 L2164.21 1544.91 Q2166.87 1542.16 2171.46 1537.53 Q2176.06 1532.88 2177.25 1531.53 Q2179.49 1529.01 2180.37 1527.27 Q2181.27 1525.51 2181.27 1523.82 Q2181.27 1521.07 2179.33 1519.33 Q2177.41 1517.6 2174.31 1517.6 Q2172.11 1517.6 2169.65 1518.36 Q2167.22 1519.13 2164.44 1520.68 L2164.44 1515.95 Q2167.27 1514.82 2169.72 1514.24 Q2172.18 1513.66 2174.21 1513.66 Q2179.58 1513.66 2182.78 1516.35 Q2185.97 1519.03 2185.97 1523.52 Q2185.97 1525.65 2185.16 1527.57 Q2184.37 1529.47 2182.27 1532.07 Q2181.69 1532.74 2178.59 1535.95 Q2175.49 1539.15 2169.84 1544.91 Z" fill="#000000" fill-rule="nonzero" fill-opacity="1" /><path clip-path="url(#clip740)" d="M2205.97 1517.37 Q2202.36 1517.37 2200.53 1520.93 Q2198.73 1524.47 2198.73 1531.6 Q2198.73 1538.71 2200.53 1542.27 Q2202.36 1545.82 2205.97 1545.82 Q2209.61 1545.82 2211.41 1542.27 Q2213.24 1538.71 2213.24 1531.6 Q2213.24 1524.47 2211.41 1520.93 Q2209.61 1517.37 2205.97 1517.37 M2205.97 1513.66 Q2211.78 1513.66 2214.84 1518.27 Q2217.92 1522.85 2217.92 1531.6 Q2217.92 1540.33 2214.84 1544.94 Q2211.78 1549.52 2205.97 1549.52 Q2200.16 1549.52 2197.08 1544.94 Q2194.03 1540.33 2194.03 1531.6 Q2194.03 1522.85 2197.08 1518.27 Q2200.16 1513.66 2205.97 1513.66 Z" fill="#000000" fill-rule="nonzero" fill-opacity="1" /><path clip-path="url(#clip740)" d="M2236.13 1517.37 Q2232.52 1517.37 2230.69 1520.93 Q2228.89 1524.47 2228.89 1531.6 Q2228.89 1538.71 2230.69 1542.27 Q2232.52 1545.82 2236.13 1545.82 Q2239.77 1545.82 2241.57 1542.27 Q2243.4 1538.71 2243.4 1531.6 Q2243.4 1524.47 2241.57 1520.93 Q2239.77 1517.37 2236.13 1517.37 M2236.13 1513.66 Q2241.94 1513.66 2245 1518.27 Q2248.08 1522.85 2248.08 1531.6 Q2248.08 1540.33 2245 1544.94 Q2241.94 1549.52 2236.13 1549.52 Q2230.32 1549.52 2227.24 1544.94 Q2224.19 1540.33 2224.19 1531.6 Q2224.19 1522.85 2227.24 1518.27 Q2230.32 1513.66 2236.13 1513.66 Z" fill="#000000" fill-rule="nonzero" fill-opacity="1" /><path clip-path="url(#clip740)" d="M2260.32 1544.91 L2276.64 1544.91 L2276.64 1548.85 L2254.7 1548.85 L2254.7 1544.91 Q2257.36 1542.16 2261.94 1537.53 Q2266.55 1532.88 2267.73 1531.53 Q2269.98 1529.01 2270.86 1527.27 Q2271.76 1525.51 2271.76 1523.82 Q2271.76 1521.07 2269.81 1519.33 Q2267.89 1517.6 2264.79 1517.6 Q2262.59 1517.6 2260.14 1518.36 Q2257.71 1519.13 2254.93 1520.68 L2254.93 1515.95 Q2257.75 1514.82 2260.21 1514.24 Q2262.66 1513.66 2264.7 1513.66 Q2270.07 1513.66 2273.26 1516.35 Q2276.46 1519.03 2276.46 1523.52 Q2276.46 1525.65 2275.65 1527.57 Q2274.86 1529.47 2272.75 1532.07 Q2272.18 1532.74 2269.07 1535.95 Q2265.97 1539.15 2260.32 1544.91 Z" fill="#000000" fill-rule="nonzero" fill-opacity="1" /><path clip-path="url(#clip740)" d="M2283.7 1533.96 L2296.18 1533.96 L2296.18 1537.76 L2283.7 1537.76 L2283.7 1533.96 Z" fill="#000000" fill-rule="nonzero" fill-opacity="1" /><path clip-path="url(#clip740)" d="M2313.56 1517.37 Q2309.95 1517.37 2308.12 1520.93 Q2306.32 1524.47 2306.32 1531.6 Q2306.32 1538.71 2308.12 1542.27 Q2309.95 1545.82 2313.56 1545.82 Q2317.2 1545.82 2319 1542.27 Q2320.83 1538.71 2320.83 1531.6 Q2320.83 1524.47 2319 1520.93 Q2317.2 1517.37 2313.56 1517.37 M2313.56 1513.66 Q2319.37 1513.66 2322.43 1518.27 Q2325.51 1522.85 2325.51 1531.6 Q2325.51 1540.33 2322.43 1544.94 Q2319.37 1549.52 2313.56 1549.52 Q2307.75 1549.52 2304.67 1544.94 Q2301.62 1540.33 2301.62 1531.6 Q2301.62 1522.85 2304.67 1518.27 Q2307.75 1513.66 2313.56 1513.66 Z" fill="#000000" fill-rule="nonzero" fill-opacity="1" /><path clip-path="url(#clip740)" d="M2334.54 1544.91 L2342.17 1544.91 L2342.17 1518.55 L2333.86 1520.21 L2333.86 1515.95 L2342.13 1514.29 L2346.8 1514.29 L2346.8 1544.91 L2354.44 1544.91 L2354.44 1548.85 L2334.54 1548.85 L2334.54 1544.91 Z" fill="#000000" fill-rule="nonzero" fill-opacity="1" /><path clip-path="url(#clip740)" d="M2361.13 1533.96 L2373.61 1533.96 L2373.61 1537.76 L2361.13 1537.76 L2361.13 1533.96 Z" fill="#000000" fill-rule="nonzero" fill-opacity="1" /><path clip-path="url(#clip740)" d="M2390.99 1517.37 Q2387.38 1517.37 2385.55 1520.93 Q2383.75 1524.47 2383.75 1531.6 Q2383.75 1538.71 2385.55 1542.27 Q2387.38 1545.82 2390.99 1545.82 Q2394.63 1545.82 2396.43 1542.27 Q2398.26 1538.71 2398.26 1531.6 Q2398.26 1524.47 2396.43 1520.93 Q2394.63 1517.37 2390.99 1517.37 M2390.99 1513.66 Q2396.8 1513.66 2399.86 1518.27 Q2402.94 1522.85 2402.94 1531.6 Q2402.94 1540.33 2399.86 1544.94 Q2396.8 1549.52 2390.99 1549.52 Q2385.18 1549.52 2382.11 1544.94 Q2379.05 1540.33 2379.05 1531.6 Q2379.05 1522.85 2382.11 1518.27 Q2385.18 1513.66 2390.99 1513.66 Z" fill="#000000" fill-rule="nonzero" fill-opacity="1" /><path clip-path="url(#clip740)" d="M2411.97 1544.91 L2419.6 1544.91 L2419.6 1518.55 L2411.29 1520.21 L2411.29 1515.95 L2419.56 1514.29 L2424.23 1514.29 L2424.23 1544.91 L2431.87 1544.91 L2431.87 1548.85 L2411.97 1548.85 L2411.97 1544.91 Z" fill="#000000" fill-rule="nonzero" fill-opacity="1" /><polyline clip-path="url(#clip740)" style="stroke:#000000; stroke-linecap:round; stroke-linejoin:round; stroke-width:4; stroke-opacity:1; fill:none" points="224.098,1486.45 224.098,47.2441 "/>
<polyline clip-path="url(#clip740)" style="stroke:#000000; stroke-linecap:round; stroke-linejoin:round; stroke-width:4; stroke-opacity:1; fill:none" points="224.098,1445.72 242.996,1445.72 "/>
<polyline clip-path="url(#clip740)" style="stroke:#000000; stroke-linecap:round; stroke-linejoin:round; stroke-width:4; stroke-opacity:1; fill:none" points="224.098,1103.03 242.996,1103.03 "/>
<polyline clip-path="url(#clip740)" style="stroke:#000000; stroke-linecap:round; stroke-linejoin:round; stroke-width:4; stroke-opacity:1; fill:none" points="224.098,760.349 242.996,760.349 "/>
<polyline clip-path="url(#clip740)" style="stroke:#000000; stroke-linecap:round; stroke-linejoin:round; stroke-width:4; stroke-opacity:1; fill:none" points="224.098,417.666 242.996,417.666 "/>
<polyline clip-path="url(#clip740)" style="stroke:#000000; stroke-linecap:round; stroke-linejoin:round; stroke-width:4; stroke-opacity:1; fill:none" points="224.098,74.9832 242.996,74.9832 "/>
<path clip-path="url(#clip740)" d="M50.9921 1446.17 L80.6679 1446.17 L80.6679 1450.1 L50.9921 1450.1 L50.9921 1446.17 Z" fill="#000000" fill-rule="nonzero" fill-opacity="1" /><path clip-path="url(#clip740)" d="M91.5706 1459.06 L99.2095 1459.06 L99.2095 1432.69 L90.8993 1434.36 L90.8993 1430.1 L99.1632 1428.44 L103.839 1428.44 L103.839 1459.06 L111.478 1459.06 L111.478 1463 L91.5706 1463 L91.5706 1459.06 Z" fill="#000000" fill-rule="nonzero" fill-opacity="1" /><path clip-path="url(#clip740)" d="M120.922 1457.12 L125.807 1457.12 L125.807 1463 L120.922 1463 L120.922 1457.12 Z" fill="#000000" fill-rule="nonzero" fill-opacity="1" /><path clip-path="url(#clip740)" d="M145.992 1431.51 Q142.381 1431.51 140.552 1435.08 Q138.746 1438.62 138.746 1445.75 Q138.746 1452.86 140.552 1456.42 Q142.381 1459.96 145.992 1459.96 Q149.626 1459.96 151.431 1456.42 Q153.26 1452.86 153.26 1445.75 Q153.26 1438.62 151.431 1435.08 Q149.626 1431.51 145.992 1431.51 M145.992 1427.81 Q151.802 1427.81 154.857 1432.42 Q157.936 1437 157.936 1445.75 Q157.936 1454.48 154.857 1459.08 Q151.802 1463.67 145.992 1463.67 Q140.181 1463.67 137.103 1459.08 Q134.047 1454.48 134.047 1445.75 Q134.047 1437 137.103 1432.42 Q140.181 1427.81 145.992 1427.81 Z" fill="#000000" fill-rule="nonzero" fill-opacity="1" /><path clip-path="url(#clip740)" d="M176.153 1431.51 Q172.542 1431.51 170.714 1435.08 Q168.908 1438.62 168.908 1445.75 Q168.908 1452.86 170.714 1456.42 Q172.542 1459.96 176.153 1459.96 Q179.788 1459.96 181.593 1456.42 Q183.422 1452.86 183.422 1445.75 Q183.422 1438.62 181.593 1435.08 Q179.788 1431.51 176.153 1431.51 M176.153 1427.81 Q181.964 1427.81 185.019 1432.42 Q188.098 1437 188.098 1445.75 Q188.098 1454.48 185.019 1459.08 Q181.964 1463.67 176.153 1463.67 Q170.343 1463.67 167.265 1459.08 Q164.209 1454.48 164.209 1445.75 Q164.209 1437 167.265 1432.42 Q170.343 1427.81 176.153 1427.81 Z" fill="#000000" fill-rule="nonzero" fill-opacity="1" /><path clip-path="url(#clip740)" d="M51.9875 1103.48 L81.6633 1103.48 L81.6633 1107.42 L51.9875 1107.42 L51.9875 1103.48 Z" fill="#000000" fill-rule="nonzero" fill-opacity="1" /><path clip-path="url(#clip740)" d="M101.756 1088.83 Q98.1447 1088.83 96.316 1092.4 Q94.5104 1095.94 94.5104 1103.07 Q94.5104 1110.17 96.316 1113.74 Q98.1447 1117.28 101.756 1117.28 Q105.39 1117.28 107.196 1113.74 Q109.024 1110.17 109.024 1103.07 Q109.024 1095.94 107.196 1092.4 Q105.39 1088.83 101.756 1088.83 M101.756 1085.13 Q107.566 1085.13 110.621 1089.73 Q113.7 1094.32 113.7 1103.07 Q113.7 1111.79 110.621 1116.4 Q107.566 1120.98 101.756 1120.98 Q95.9456 1120.98 92.8669 1116.4 Q89.8114 1111.79 89.8114 1103.07 Q89.8114 1094.32 92.8669 1089.73 Q95.9456 1085.13 101.756 1085.13 Z" fill="#000000" fill-rule="nonzero" fill-opacity="1" /><path clip-path="url(#clip740)" d="M121.918 1114.43 L126.802 1114.43 L126.802 1120.31 L121.918 1120.31 L121.918 1114.43 Z" fill="#000000" fill-rule="nonzero" fill-opacity="1" /><path clip-path="url(#clip740)" d="M135.806 1085.75 L158.029 1085.75 L158.029 1087.74 L145.482 1120.31 L140.598 1120.31 L152.404 1089.69 L135.806 1089.69 L135.806 1085.75 Z" fill="#000000" fill-rule="nonzero" fill-opacity="1" /><path clip-path="url(#clip740)" d="M167.195 1085.75 L185.552 1085.75 L185.552 1089.69 L171.478 1089.69 L171.478 1098.16 Q172.496 1097.81 173.515 1097.65 Q174.533 1097.47 175.552 1097.47 Q181.339 1097.47 184.718 1100.64 Q188.098 1103.81 188.098 1109.22 Q188.098 1114.8 184.626 1117.91 Q181.153 1120.98 174.834 1120.98 Q172.658 1120.98 170.39 1120.61 Q168.144 1120.24 165.737 1119.5 L165.737 1114.8 Q167.82 1115.94 170.042 1116.49 Q172.265 1117.05 174.741 1117.05 Q178.746 1117.05 181.084 1114.94 Q183.422 1112.84 183.422 1109.22 Q183.422 1105.61 181.084 1103.51 Q178.746 1101.4 174.741 1101.4 Q172.866 1101.4 170.991 1101.82 Q169.14 1102.23 167.195 1103.11 L167.195 1085.75 Z" fill="#000000" fill-rule="nonzero" fill-opacity="1" /><path clip-path="url(#clip740)" d="M50.9921 760.801 L80.6679 760.801 L80.6679 764.736 L50.9921 764.736 L50.9921 760.801 Z" fill="#000000" fill-rule="nonzero" fill-opacity="1" /><path clip-path="url(#clip740)" d="M100.76 746.148 Q97.1493 746.148 95.3206 749.713 Q93.515 753.255 93.515 760.384 Q93.515 767.491 95.3206 771.055 Q97.1493 774.597 100.76 774.597 Q104.395 774.597 106.2 771.055 Q108.029 767.491 108.029 760.384 Q108.029 753.255 106.2 749.713 Q104.395 746.148 100.76 746.148 M100.76 742.444 Q106.571 742.444 109.626 747.051 Q112.705 751.634 112.705 760.384 Q112.705 769.111 109.626 773.717 Q106.571 778.301 100.76 778.301 Q94.9502 778.301 91.8715 773.717 Q88.816 769.111 88.816 760.384 Q88.816 751.634 91.8715 747.051 Q94.9502 742.444 100.76 742.444 Z" fill="#000000" fill-rule="nonzero" fill-opacity="1" /><path clip-path="url(#clip740)" d="M120.922 771.75 L125.807 771.75 L125.807 777.629 L120.922 777.629 L120.922 771.75 Z" fill="#000000" fill-rule="nonzero" fill-opacity="1" /><path clip-path="url(#clip740)" d="M136.038 743.069 L154.394 743.069 L154.394 747.005 L140.32 747.005 L140.32 755.477 Q141.339 755.13 142.357 754.968 Q143.376 754.782 144.394 754.782 Q150.181 754.782 153.561 757.954 Q156.941 761.125 156.941 766.542 Q156.941 772.12 153.468 775.222 Q149.996 778.301 143.677 778.301 Q141.501 778.301 139.232 777.93 Q136.987 777.56 134.58 776.819 L134.58 772.12 Q136.663 773.254 138.885 773.81 Q141.107 774.366 143.584 774.366 Q147.589 774.366 149.927 772.259 Q152.265 770.153 152.265 766.542 Q152.265 762.93 149.927 760.824 Q147.589 758.718 143.584 758.718 Q141.709 758.718 139.834 759.134 Q137.982 759.551 136.038 760.43 L136.038 743.069 Z" fill="#000000" fill-rule="nonzero" fill-opacity="1" /><path clip-path="url(#clip740)" d="M176.153 746.148 Q172.542 746.148 170.714 749.713 Q168.908 753.255 168.908 760.384 Q168.908 767.491 170.714 771.055 Q172.542 774.597 176.153 774.597 Q179.788 774.597 181.593 771.055 Q183.422 767.491 183.422 760.384 Q183.422 753.255 181.593 749.713 Q179.788 746.148 176.153 746.148 M176.153 742.444 Q181.964 742.444 185.019 747.051 Q188.098 751.634 188.098 760.384 Q188.098 769.111 185.019 773.717 Q181.964 778.301 176.153 778.301 Q170.343 778.301 167.265 773.717 Q164.209 769.111 164.209 760.384 Q164.209 751.634 167.265 747.051 Q170.343 742.444 176.153 742.444 Z" fill="#000000" fill-rule="nonzero" fill-opacity="1" /><path clip-path="url(#clip740)" d="M51.9875 418.118 L81.6633 418.118 L81.6633 422.053 L51.9875 422.053 L51.9875 418.118 Z" fill="#000000" fill-rule="nonzero" fill-opacity="1" /><path clip-path="url(#clip740)" d="M101.756 403.465 Q98.1447 403.465 96.316 407.03 Q94.5104 410.571 94.5104 417.701 Q94.5104 424.808 96.316 428.372 Q98.1447 431.914 101.756 431.914 Q105.39 431.914 107.196 428.372 Q109.024 424.808 109.024 417.701 Q109.024 410.571 107.196 407.03 Q105.39 403.465 101.756 403.465 M101.756 399.761 Q107.566 399.761 110.621 404.368 Q113.7 408.951 113.7 417.701 Q113.7 426.428 110.621 431.034 Q107.566 435.618 101.756 435.618 Q95.9456 435.618 92.8669 431.034 Q89.8114 426.428 89.8114 417.701 Q89.8114 408.951 92.8669 404.368 Q95.9456 399.761 101.756 399.761 Z" fill="#000000" fill-rule="nonzero" fill-opacity="1" /><path clip-path="url(#clip740)" d="M121.918 429.067 L126.802 429.067 L126.802 434.946 L121.918 434.946 L121.918 429.067 Z" fill="#000000" fill-rule="nonzero" fill-opacity="1" /><path clip-path="url(#clip740)" d="M141.015 431.011 L157.334 431.011 L157.334 434.946 L135.39 434.946 L135.39 431.011 Q138.052 428.257 142.635 423.627 Q147.242 418.974 148.422 417.632 Q150.668 415.108 151.547 413.372 Q152.45 411.613 152.45 409.923 Q152.45 407.169 150.505 405.433 Q148.584 403.697 145.482 403.697 Q143.283 403.697 140.83 404.46 Q138.399 405.224 135.621 406.775 L135.621 402.053 Q138.445 400.919 140.899 400.34 Q143.353 399.761 145.39 399.761 Q150.76 399.761 153.955 402.447 Q157.149 405.132 157.149 409.622 Q157.149 411.752 156.339 413.673 Q155.552 415.571 153.445 418.164 Q152.867 418.835 149.765 422.053 Q146.663 425.247 141.015 431.011 Z" fill="#000000" fill-rule="nonzero" fill-opacity="1" /><path clip-path="url(#clip740)" d="M167.195 400.386 L185.552 400.386 L185.552 404.322 L171.478 404.322 L171.478 412.794 Q172.496 412.446 173.515 412.284 Q174.533 412.099 175.552 412.099 Q181.339 412.099 184.718 415.271 Q188.098 418.442 188.098 423.858 Q188.098 429.437 184.626 432.539 Q181.153 435.618 174.834 435.618 Q172.658 435.618 170.39 435.247 Q168.144 434.877 165.737 434.136 L165.737 429.437 Q167.82 430.571 170.042 431.127 Q172.265 431.682 174.741 431.682 Q178.746 431.682 181.084 429.576 Q183.422 427.47 183.422 423.858 Q183.422 420.247 181.084 418.141 Q178.746 416.034 174.741 416.034 Q172.866 416.034 170.991 416.451 Q169.14 416.868 167.195 417.747 L167.195 400.386 Z" fill="#000000" fill-rule="nonzero" fill-opacity="1" /><path clip-path="url(#clip740)" d="M100.76 60.7819 Q97.1493 60.7819 95.3206 64.3467 Q93.515 67.8884 93.515 75.018 Q93.515 82.1244 95.3206 85.6892 Q97.1493 89.2308 100.76 89.2308 Q104.395 89.2308 106.2 85.6892 Q108.029 82.1244 108.029 75.018 Q108.029 67.8884 106.2 64.3467 Q104.395 60.7819 100.76 60.7819 M100.76 57.0782 Q106.571 57.0782 109.626 61.6847 Q112.705 66.268 112.705 75.018 Q112.705 83.7448 109.626 88.3512 Q106.571 92.9345 100.76 92.9345 Q94.9502 92.9345 91.8715 88.3512 Q88.816 83.7448 88.816 75.018 Q88.816 66.268 91.8715 61.6847 Q94.9502 57.0782 100.76 57.0782 Z" fill="#000000" fill-rule="nonzero" fill-opacity="1" /><path clip-path="url(#clip740)" d="M120.922 86.3836 L125.807 86.3836 L125.807 92.2632 L120.922 92.2632 L120.922 86.3836 Z" fill="#000000" fill-rule="nonzero" fill-opacity="1" /><path clip-path="url(#clip740)" d="M145.992 60.7819 Q142.381 60.7819 140.552 64.3467 Q138.746 67.8884 138.746 75.018 Q138.746 82.1244 140.552 85.6892 Q142.381 89.2308 145.992 89.2308 Q149.626 89.2308 151.431 85.6892 Q153.26 82.1244 153.26 75.018 Q153.26 67.8884 151.431 64.3467 Q149.626 60.7819 145.992 60.7819 M145.992 57.0782 Q151.802 57.0782 154.857 61.6847 Q157.936 66.268 157.936 75.018 Q157.936 83.7448 154.857 88.3512 Q151.802 92.9345 145.992 92.9345 Q140.181 92.9345 137.103 88.3512 Q134.047 83.7448 134.047 75.018 Q134.047 66.268 137.103 61.6847 Q140.181 57.0782 145.992 57.0782 Z" fill="#000000" fill-rule="nonzero" fill-opacity="1" /><path clip-path="url(#clip740)" d="M176.153 60.7819 Q172.542 60.7819 170.714 64.3467 Q168.908 67.8884 168.908 75.018 Q168.908 82.1244 170.714 85.6892 Q172.542 89.2308 176.153 89.2308 Q179.788 89.2308 181.593 85.6892 Q183.422 82.1244 183.422 75.018 Q183.422 67.8884 181.593 64.3467 Q179.788 60.7819 176.153 60.7819 M176.153 57.0782 Q181.964 57.0782 185.019 61.6847 Q188.098 66.268 188.098 75.018 Q188.098 83.7448 185.019 88.3512 Q181.964 92.9345 176.153 92.9345 Q170.343 92.9345 167.265 88.3512 Q164.209 83.7448 164.209 75.018 Q164.209 66.268 167.265 61.6847 Q170.343 57.0782 176.153 57.0782 Z" fill="#000000" fill-rule="nonzero" fill-opacity="1" /><polyline clip-path="url(#clip742)" style="stroke:#009af9; stroke-linecap:round; stroke-linejoin:round; stroke-width:4; stroke-opacity:1; fill:none" points="284.343,1445.72 289.875,1445.72 289.875,1239.85 295.407,1239.85 295.407,1254.55 300.939,1254.55 300.939,1104.77 306.471,1104.77 306.471,205.292 312.004,205.292 312.004,681.441 317.536,681.441 317.536,622.031 323.068,622.031 323.068,856.83 328.6,856.83 328.6,812.617 334.132,812.617 334.132,850.791 339.664,850.791 339.664,661.348 345.196,661.348 345.196,668.733 350.729,668.733 350.729,728.589 356.261,728.589 356.261,468.877 361.793,468.877 361.793,581.115 367.325,581.115 367.325,556.753 372.857,556.753 372.857,532.832 378.389,532.832 378.389,603.89 383.921,603.89 383.921,674.896 389.454,674.896 389.454,681.23 394.986,681.23 394.986,655.738 400.518,655.738 400.518,573.913 406.05,573.913 406.05,529.407 411.582,529.407 411.582,523.378 417.114,523.378 417.114,503.768 422.646,503.768 422.646,480.292 428.179,480.292 428.179,516.696 433.711,516.696 433.711,402.762 439.243,402.762 439.243,351.706 444.775,351.706 444.775,324.056 450.307,324.056 450.307,323.297 455.839,323.297 455.839,362.913 461.371,362.913 461.371,379.483 466.904,379.483 466.904,314.342 472.436,314.342 472.436,314.458 477.968,314.458 477.968,291.097 483.5,291.097 483.5,255.935 489.032,255.935 489.032,290.793 494.564,290.793 494.564,309.275 500.096,309.275 500.096,295.146 505.629,295.146 505.629,285.984 511.161,285.984 511.161,292.194 516.693,292.194 516.693,290.381 522.225,290.381 522.225,289.395 527.757,289.395 527.757,285.898 533.289,285.898 533.289,292.505 538.821,292.505 538.821,219.058 544.354,219.058 544.354,214.147 549.886,214.147 549.886,200.143 555.418,200.143 555.418,228.559 560.95,228.559 560.95,194.928 566.482,194.928 566.482,196.5 572.014,196.5 572.014,185.422 577.546,185.422 577.546,202.574 583.079,202.574 583.079,215.35 588.611,215.35 588.611,192.596 594.143,192.596 594.143,174.766 599.675,174.766 599.675,173.649 605.207,173.649 605.207,139.283 610.739,139.283 610.739,149.863 616.271,149.863 616.271,182.155 621.804,182.155 621.804,160.275 627.336,160.275 627.336,195.918 632.868,195.918 632.868,187.694 638.4,187.694 638.4,177.889 643.932,177.889 643.932,177.373 649.464,177.373 649.464,181.867 654.997,181.867 654.997,187.929 660.529,187.929 660.529,200.377 666.061,200.377 666.061,173.197 671.593,173.197 671.593,205.919 677.125,205.919 677.125,205.127 682.657,205.127 682.657,216.284 688.189,216.284 688.189,216.123 693.722,216.123 693.722,190.549 699.254,190.549 699.254,191.515 704.786,191.515 704.786,191.731 710.318,191.731 710.318,139.789 715.85,139.789 715.85,141.991 721.382,141.991 721.382,136.815 726.914,136.815 726.914,154.049 732.447,154.049 732.447,175.727 737.979,175.727 737.979,173.324 743.511,173.324 743.511,182.847 749.043,182.847 749.043,175.643 754.575,175.643 754.575,178.601 760.107,178.601 760.107,178.25 765.639,178.25 765.639,185.542 771.172,185.542 771.172,183.319 776.704,183.319 776.704,182.151 782.236,182.151 782.236,201.354 787.768,201.354 787.768,231.837 793.3,231.837 793.3,248.262 798.832,248.262 798.832,247.895 804.364,247.895 804.364,253.731 809.897,253.731 809.897,254.728 815.429,254.728 815.429,243.948 820.961,243.948 820.961,256.74 826.493,256.74 826.493,246.743 832.025,246.743 832.025,225.79 837.557,225.79 837.557,203.019 843.089,203.019 843.089,205.06 848.622,205.06 848.622,202.92 854.154,202.92 854.154,175.22 859.686,175.22 859.686,194.375 865.218,194.375 865.218,204.368 870.75,204.368 870.75,203.838 876.282,203.838 876.282,219.409 881.814,219.409 881.814,193.514 887.347,193.514 887.347,213.978 892.879,213.978 892.879,212.884 898.411,212.884 898.411,222.237 903.943,222.237 903.943,222.702 909.475,222.702 909.475,227.114 915.007,227.114 915.007,219.041 920.539,219.041 920.539,226.737 926.072,226.737 926.072,244.652 931.604,244.652 931.604,244.439 937.136,244.439 937.136,251.318 942.668,251.318 942.668,250.808 948.2,250.808 948.2,237.154 953.732,237.154 953.732,216.656 959.264,216.656 959.264,197.119 964.797,197.119 964.797,199.419 970.329,199.419 970.329,207.699 975.861,207.699 975.861,202.406 981.393,202.406 981.393,196.607 986.925,196.607 986.925,200.698 992.457,200.698 992.457,189.298 997.989,189.298 997.989,188.102 1003.52,188.102 1003.52,187.11 1009.05,187.11 1009.05,185.523 1014.59,185.523 1014.59,197.606 1020.12,197.606 1020.12,188.297 1025.65,188.297 1025.65,188.308 1031.18,188.308 1031.18,179.965 1036.71,179.965 1036.71,198.136 1042.25,198.136 1042.25,197.528 1047.78,197.528 1047.78,194.303 1053.31,194.303 1053.31,194.102 1058.84,194.102 1058.84,187.077 1064.38,187.077 1064.38,199.939 1069.91,199.939 1069.91,203.316 1075.44,203.316 1075.44,207.954 1080.97,207.954 1080.97,192.205 1086.5,192.205 1086.5,196.191 1092.04,196.191 1092.04,192.771 1097.57,192.771 1097.57,188.763 1103.1,188.763 1103.1,180.495 1108.63,180.495 1108.63,181.375 1114.16,181.375 1114.16,153.326 1119.7,153.326 1119.7,154.165 1125.23,154.165 1125.23,153.056 1130.76,153.056 1130.76,153.312 1136.29,153.312 1136.29,132.935 1141.83,132.935 1141.83,150.88 1147.36,150.88 1147.36,150.878 1152.89,150.878 1152.89,151.583 1158.42,151.583 1158.42,159.395 1163.95,159.395 1163.95,176.259 1169.49,176.259 1169.49,180.368 1175.02,180.368 1175.02,184.331 1180.55,184.331 1180.55,199.382 1186.08,199.382 1186.08,202.947 1191.61,202.947 1191.61,198.722 1197.15,198.722 1197.15,179.14 1202.68,179.14 1202.68,195.56 1208.21,195.56 1208.21,189.937 1213.74,189.937 1213.74,187.064 1219.28,187.064 1219.28,185.832 1224.81,185.832 1224.81,193.981 1230.34,193.981 1230.34,183.027 1235.87,183.027 1235.87,169.548 1241.4,169.548 1241.4,168.038 1246.94,168.038 1246.94,167.471 1252.47,167.471 1252.47,168.237 1258,168.237 1258,170.9 1263.53,170.9 1263.53,179.147 1269.06,179.147 1269.06,175.863 1274.6,175.863 1274.6,172.628 1280.13,172.628 1280.13,168.704 1285.66,168.704 1285.66,174.489 1291.19,174.489 1291.19,186.554 1296.73,186.554 1296.73,185.907 1302.26,185.907 1302.26,173.762 1307.79,173.762 1307.79,176.587 1313.32,176.587 1313.32,179.841 1318.85,179.841 1318.85,174.751 1324.39,174.751 1324.39,159.695 1329.92,159.695 1329.92,159.63 1335.45,159.63 1335.45,138.065 1340.98,138.065 1340.98,137.329 1346.51,137.329 1346.51,137.926 1352.05,137.926 1352.05,136.97 1357.58,136.97 1357.58,128.944 1363.11,128.944 1363.11,123.978 1368.64,123.978 1368.64,123.459 1374.18,123.459 1374.18,135.893 1379.71,135.893 1379.71,136.877 1385.24,136.877 1385.24,136.771 1390.77,136.771 1390.77,132.262 1396.3,132.262 1396.3,129.882 1401.84,129.882 1401.84,134.033 1407.37,134.033 1407.37,144.385 1412.9,144.385 1412.9,144.867 1418.43,144.867 1418.43,136.011 1423.96,136.011 1423.96,129.755 1429.5,129.755 1429.5,132.029 1435.03,132.029 1435.03,130.262 1440.56,130.262 1440.56,131.47 1446.09,131.47 1446.09,148.115 1451.63,148.115 1451.63,145.498 1457.16,145.498 1457.16,133.019 1462.69,133.019 1462.69,129.498 1468.22,129.498 1468.22,130.223 1473.75,130.223 1473.75,131.461 1479.29,131.461 1479.29,127.627 1484.82,127.627 1484.82,126.259 1490.35,126.259 1490.35,122.132 1495.88,122.132 1495.88,119.192 1501.41,119.192 1501.41,114.42 1506.95,114.42 1506.95,119.851 1512.48,119.851 1512.48,124.072 1518.01,124.072 1518.01,131.173 1523.54,131.173 1523.54,112.143 1529.08,112.143 1529.08,109.801 1534.61,109.801 1534.61,115.318 1540.14,115.318 1540.14,117.569 1545.67,117.569 1545.67,117.351 1551.2,117.351 1551.2,115.647 1556.74,115.647 1556.74,118.217 1562.27,118.217 1562.27,113.435 1567.8,113.435 1567.8,118.092 1573.33,118.092 1573.33,118.347 1578.86,118.347 1578.86,113.204 1584.4,113.204 1584.4,109.775 1589.93,109.775 1589.93,117.231 1595.46,117.231 1595.46,130.918 1600.99,130.918 1600.99,134.064 1606.53,134.064 1606.53,134.769 1612.06,134.769 1612.06,122.014 1617.59,122.014 1617.59,134.615 1623.12,134.615 1623.12,131.312 1628.65,131.312 1628.65,133.769 1634.19,133.769 1634.19,137.835 1639.72,137.835 1639.72,142.166 1645.25,142.166 1645.25,148 1650.78,148 1650.78,153.373 1656.31,153.373 1656.31,157.073 1661.85,157.073 1661.85,157.102 1667.38,157.102 1667.38,148.285 1672.91,148.285 1672.91,145.673 1678.44,145.673 1678.44,150.179 1683.98,150.179 1683.98,152.488 1689.51,152.488 1689.51,156.608 1695.04,156.608 1695.04,156.742 1700.57,156.742 1700.57,156.127 1706.1,156.127 1706.1,156.345 1711.64,156.345 1711.64,145.854 1717.17,145.854 1717.17,145.593 1722.7,145.593 1722.7,147.921 1728.23,147.921 1728.23,148.377 1733.76,148.377 1733.76,148.737 1739.3,148.737 1739.3,143.018 1744.83,143.018 1744.83,138.75 1750.36,138.75 1750.36,140.319 1755.89,140.319 1755.89,134.145 1761.43,134.145 1761.43,127.627 1766.96,127.627 1766.96,127.154 1772.49,127.154 1772.49,135.407 1778.02,135.407 1778.02,137.49 1783.55,137.49 1783.55,136.481 1789.09,136.481 1789.09,129.321 1794.62,129.321 1794.62,127.748 1800.15,127.748 1800.15,131.023 1805.68,131.023 1805.68,132.208 1811.21,132.208 1811.21,131.664 1816.75,131.664 1816.75,119.079 1822.28,119.079 1822.28,122.097 1827.81,122.097 1827.81,123.078 1833.34,123.078 1833.34,128.092 1838.88,128.092 1838.88,124.18 1844.41,124.18 1844.41,123.959 1849.94,123.959 1849.94,124.084 1855.47,124.084 1855.47,124.098 1861,124.098 1861,129.052 1866.54,129.052 1866.54,126.307 1872.07,126.307 1872.07,126.735 1877.6,126.735 1877.6,126.464 1883.13,126.464 1883.13,113.541 1888.66,113.541 1888.66,117.738 1894.2,117.738 1894.2,117.243 1899.73,117.243 1899.73,112.097 1905.26,112.097 1905.26,111.788 1910.79,111.788 1910.79,113.853 1916.33,113.853 1916.33,112.823 1921.86,112.823 1921.86,113.031 1927.39,113.031 1927.39,111.443 1932.92,111.443 1932.92,115.274 1938.45,115.274 1938.45,124.534 1943.99,124.534 1943.99,127.457 1949.52,127.457 1949.52,133.876 1955.05,133.876 1955.05,138.87 1960.58,138.87 1960.58,139.791 1966.11,139.791 1966.11,139.751 1971.65,139.751 1971.65,138.814 1977.18,138.814 1977.18,136.284 1982.71,136.284 1982.71,137.762 1988.24,137.762 1988.24,134.222 1993.78,134.222 1993.78,135.98 1999.31,135.98 1999.31,136.15 2004.84,136.15 2004.84,125.801 2010.37,125.801 2010.37,125.288 2015.9,125.288 2015.9,120.07 2021.44,120.07 2021.44,107.612 2026.97,107.612 2026.97,112.978 2032.5,112.978 2032.5,114.586 2038.03,114.586 2038.03,113.015 2043.56,113.015 2043.56,109.065 2049.1,109.065 2049.1,108.679 2054.63,108.679 2054.63,108.183 2060.16,108.183 2060.16,108.078 2065.69,108.078 2065.69,107.353 2071.23,107.353 2071.23,110.585 2076.76,110.585 2076.76,107.609 2082.29,107.609 2082.29,107.881 2087.82,107.881 2087.82,104.507 2093.35,104.507 2093.35,106.622 2098.89,106.622 2098.89,104.411 2104.42,104.411 2104.42,106.906 2109.95,106.906 2109.95,107.167 2115.48,107.167 2115.48,107.528 2121.01,107.528 2121.01,111.856 2126.55,111.856 2126.55,111.836 2132.08,111.836 2132.08,108.546 2137.61,108.546 2137.61,101.927 2143.14,101.927 2143.14,96.5067 2148.68,96.5067 2148.68,99.0964 2154.21,99.0964 2154.21,97.796 2159.74,97.796 2159.74,99.2784 2165.27,99.2784 2165.27,94.633 2170.8,94.633 2170.8,92.9155 2176.34,92.9155 2176.34,92.3049 2181.87,92.3049 2181.87,92.4484 2187.4,92.4484 2187.4,95.176 2192.93,95.176 2192.93,87.9763 2198.46,87.9763 2198.46,88.4337 2204,88.4337 2204,97.2915 2209.53,97.2915 2209.53,97.9961 2215.06,97.9961 2215.06,95.3313 2220.59,95.3313 2220.59,98.8785 2226.13,98.8785 2226.13,97.6713 2231.66,97.6713 2231.66,100.884 2237.19,100.884 2237.19,107.142 2242.72,107.142 2242.72,106.368 2248.25,106.368 2248.25,110.706 2253.79,110.706 2253.79,111.639 2259.32,111.639 2259.32,117.021 2264.85,117.021 2264.85,122.875 2270.38,122.875 2270.38,119.488 2275.91,119.488 2275.91,120.349 2281.45,120.349 2281.45,116.811 2286.98,116.811 2286.98,119.117 2292.51,119.117 2292.51,118.725 "/>
<path clip-path="url(#clip740)" d="M1821.2 1438.47 L2281.8 1438.47 L2281.8 1334.79 L1821.2 1334.79  Z" fill="#ffffff" fill-rule="evenodd" fill-opacity="1"/>
<polyline clip-path="url(#clip740)" style="stroke:#000000; stroke-linecap:round; stroke-linejoin:round; stroke-width:4; stroke-opacity:1; fill:none" points="1821.2,1438.47 2281.8,1438.47 2281.8,1334.79 1821.2,1334.79 1821.2,1438.47 "/>
<polyline clip-path="url(#clip740)" style="stroke:#009af9; stroke-linecap:round; stroke-linejoin:round; stroke-width:4; stroke-opacity:1; fill:none" points="1844.86,1386.63 1986.77,1386.63 "/>
<path clip-path="url(#clip740)" d="M2030.93 1378.98 L2030.93 1382.97 Q2029.12 1381.97 2027.29 1381.48 Q2025.49 1380.97 2023.64 1380.97 Q2019.49 1380.97 2017.2 1383.61 Q2014.91 1386.23 2014.91 1390.97 Q2014.91 1395.72 2017.2 1398.36 Q2019.49 1400.97 2023.64 1400.97 Q2025.49 1400.97 2027.29 1400.49 Q2029.12 1399.98 2030.93 1398.98 L2030.93 1402.92 Q2029.15 1403.75 2027.22 1404.17 Q2025.33 1404.59 2023.17 1404.59 Q2017.32 1404.59 2013.87 1400.91 Q2010.42 1397.22 2010.42 1390.97 Q2010.42 1384.63 2013.89 1381 Q2017.39 1377.36 2023.45 1377.36 Q2025.42 1377.36 2027.29 1377.78 Q2029.17 1378.17 2030.93 1378.98 Z" fill="#000000" fill-rule="nonzero" fill-opacity="1" /><path clip-path="url(#clip740)" d="M2048.38 1380.97 Q2044.96 1380.97 2042.96 1383.66 Q2040.97 1386.32 2040.97 1390.97 Q2040.97 1395.63 2042.94 1398.31 Q2044.93 1400.97 2048.38 1400.97 Q2051.78 1400.97 2053.77 1398.29 Q2055.77 1395.6 2055.77 1390.97 Q2055.77 1386.37 2053.77 1383.68 Q2051.78 1380.97 2048.38 1380.97 M2048.38 1377.36 Q2053.94 1377.36 2057.11 1380.97 Q2060.28 1384.59 2060.28 1390.97 Q2060.28 1397.34 2057.11 1400.97 Q2053.94 1404.59 2048.38 1404.59 Q2042.8 1404.59 2039.63 1400.97 Q2036.48 1397.34 2036.48 1390.97 Q2036.48 1384.59 2039.63 1380.97 Q2042.8 1377.36 2048.38 1377.36 Z" fill="#000000" fill-rule="nonzero" fill-opacity="1" /><path clip-path="url(#clip740)" d="M2082.36 1381.97 Q2081.65 1381.55 2080.79 1381.37 Q2079.96 1381.16 2078.94 1381.16 Q2075.33 1381.16 2073.38 1383.52 Q2071.46 1385.86 2071.46 1390.26 L2071.46 1403.91 L2067.18 1403.91 L2067.18 1377.99 L2071.46 1377.99 L2071.46 1382.02 Q2072.8 1379.66 2074.96 1378.52 Q2077.11 1377.36 2080.19 1377.36 Q2080.63 1377.36 2081.16 1377.43 Q2081.69 1377.48 2082.34 1377.6 L2082.36 1381.97 Z" fill="#000000" fill-rule="nonzero" fill-opacity="1" /><path clip-path="url(#clip740)" d="M2101.02 1381.97 Q2100.3 1381.55 2099.45 1381.37 Q2098.61 1381.16 2097.59 1381.16 Q2093.98 1381.16 2092.04 1383.52 Q2090.12 1385.86 2090.12 1390.26 L2090.12 1403.91 L2085.83 1403.91 L2085.83 1377.99 L2090.12 1377.99 L2090.12 1382.02 Q2091.46 1379.66 2093.61 1378.52 Q2095.77 1377.36 2098.84 1377.36 Q2099.28 1377.36 2099.82 1377.43 Q2100.35 1377.48 2101 1377.6 L2101.02 1381.97 Z" fill="#000000" fill-rule="nonzero" fill-opacity="1" /><path clip-path="url(#clip740)" d="M2126.62 1389.89 L2126.62 1391.97 L2107.04 1391.97 Q2107.32 1396.37 2109.68 1398.68 Q2112.06 1400.97 2116.3 1400.97 Q2118.75 1400.97 2121.04 1400.37 Q2123.36 1399.77 2125.63 1398.57 L2125.63 1402.59 Q2123.33 1403.57 2120.93 1404.08 Q2118.52 1404.59 2116.04 1404.59 Q2109.84 1404.59 2106.21 1400.97 Q2102.59 1397.36 2102.59 1391.21 Q2102.59 1384.84 2106.02 1381.11 Q2109.47 1377.36 2115.3 1377.36 Q2120.53 1377.36 2123.57 1380.74 Q2126.62 1384.1 2126.62 1389.89 M2122.36 1388.64 Q2122.32 1385.14 2120.39 1383.06 Q2118.5 1380.97 2115.35 1380.97 Q2111.78 1380.97 2109.63 1382.99 Q2107.5 1385 2107.18 1388.66 L2122.36 1388.64 Z" fill="#000000" fill-rule="nonzero" fill-opacity="1" /><path clip-path="url(#clip740)" d="M2133.61 1367.9 L2137.87 1367.9 L2137.87 1403.91 L2133.61 1403.91 L2133.61 1367.9 Z" fill="#000000" fill-rule="nonzero" fill-opacity="1" /><path clip-path="url(#clip740)" d="M2158.57 1390.88 Q2153.4 1390.88 2151.41 1392.06 Q2149.42 1393.24 2149.42 1396.09 Q2149.42 1398.36 2150.9 1399.7 Q2152.41 1401.02 2154.98 1401.02 Q2158.52 1401.02 2160.65 1398.52 Q2162.8 1396 2162.8 1391.83 L2162.8 1390.88 L2158.57 1390.88 M2167.06 1389.12 L2167.06 1403.91 L2162.8 1403.91 L2162.8 1399.98 Q2161.34 1402.34 2159.17 1403.47 Q2156.99 1404.59 2153.84 1404.59 Q2149.86 1404.59 2147.5 1402.36 Q2145.16 1400.12 2145.16 1396.37 Q2145.16 1391.99 2148.08 1389.77 Q2151.02 1387.55 2156.83 1387.55 L2162.8 1387.55 L2162.8 1387.13 Q2162.8 1384.19 2160.86 1382.6 Q2158.94 1380.97 2155.44 1380.97 Q2153.22 1380.97 2151.11 1381.51 Q2149.01 1382.04 2147.06 1383.1 L2147.06 1379.17 Q2149.4 1378.27 2151.6 1377.83 Q2153.8 1377.36 2155.88 1377.36 Q2161.51 1377.36 2164.28 1380.28 Q2167.06 1383.2 2167.06 1389.12 Z" fill="#000000" fill-rule="nonzero" fill-opacity="1" /><path clip-path="url(#clip740)" d="M2180.05 1370.63 L2180.05 1377.99 L2188.82 1377.99 L2188.82 1381.3 L2180.05 1381.3 L2180.05 1395.37 Q2180.05 1398.54 2180.9 1399.45 Q2181.78 1400.35 2184.45 1400.35 L2188.82 1400.35 L2188.82 1403.91 L2184.45 1403.91 Q2179.52 1403.91 2177.64 1402.09 Q2175.77 1400.23 2175.77 1395.37 L2175.77 1381.3 L2172.64 1381.3 L2172.64 1377.99 L2175.77 1377.99 L2175.77 1370.63 L2180.05 1370.63 Z" fill="#000000" fill-rule="nonzero" fill-opacity="1" /><path clip-path="url(#clip740)" d="M2194.42 1377.99 L2198.68 1377.99 L2198.68 1403.91 L2194.42 1403.91 L2194.42 1377.99 M2194.42 1367.9 L2198.68 1367.9 L2198.68 1373.29 L2194.42 1373.29 L2194.42 1367.9 Z" fill="#000000" fill-rule="nonzero" fill-opacity="1" /><path clip-path="url(#clip740)" d="M2217.64 1380.97 Q2214.21 1380.97 2212.22 1383.66 Q2210.23 1386.32 2210.23 1390.97 Q2210.23 1395.63 2212.2 1398.31 Q2214.19 1400.97 2217.64 1400.97 Q2221.04 1400.97 2223.03 1398.29 Q2225.02 1395.6 2225.02 1390.97 Q2225.02 1386.37 2223.03 1383.68 Q2221.04 1380.97 2217.64 1380.97 M2217.64 1377.36 Q2223.2 1377.36 2226.37 1380.97 Q2229.54 1384.59 2229.54 1390.97 Q2229.54 1397.34 2226.37 1400.97 Q2223.2 1404.59 2217.64 1404.59 Q2212.06 1404.59 2208.89 1400.97 Q2205.74 1397.34 2205.74 1390.97 Q2205.74 1384.59 2208.89 1380.97 Q2212.06 1377.36 2217.64 1377.36 Z" fill="#000000" fill-rule="nonzero" fill-opacity="1" /><path clip-path="url(#clip740)" d="M2258.15 1388.27 L2258.15 1403.91 L2253.89 1403.91 L2253.89 1388.41 Q2253.89 1384.72 2252.45 1382.9 Q2251.02 1381.07 2248.15 1381.07 Q2244.7 1381.07 2242.71 1383.27 Q2240.72 1385.47 2240.72 1389.26 L2240.72 1403.91 L2236.44 1403.91 L2236.44 1377.99 L2240.72 1377.99 L2240.72 1382.02 Q2242.25 1379.68 2244.31 1378.52 Q2246.39 1377.36 2249.1 1377.36 Q2253.57 1377.36 2255.86 1380.14 Q2258.15 1382.9 2258.15 1388.27 Z" fill="#000000" fill-rule="nonzero" fill-opacity="1" /></svg>
