<?xml version="1.0" encoding="utf-8"?>
<svg xmlns="http://www.w3.org/2000/svg" xmlns:xlink="http://www.w3.org/1999/xlink" width="600" height="400" viewBox="0 0 2400 1600">
<defs>
  <clipPath id="clip380">
    <rect x="0" y="0" width="2400" height="1600"/>
  </clipPath>
</defs>
<path clip-path="url(#clip380)" d="M0 1600 L2400 1600 L2400 0 L0 0  Z" fill="#ffffff" fill-rule="evenodd" fill-opacity="1"/>
<defs>
  <clipPath id="clip381">
    <rect x="480" y="0" width="1681" height="1600"/>
  </clipPath>
</defs>
<path clip-path="url(#clip380)" d="M186.274 1486.45 L2352.76 1486.45 L2352.76 47.2441 L186.274 47.2441  Z" fill="#ffffff" fill-rule="evenodd" fill-opacity="1"/>
<defs>
  <clipPath id="clip382">
    <rect x="186" y="47" width="2167" height="1440"/>
  </clipPath>
</defs>
<polyline clip-path="url(#clip382)" style="stroke:#000000; stroke-linecap:round; stroke-linejoin:round; stroke-width:2; stroke-opacity:0.1; fill:none" points="247.59,1486.45 247.59,47.2441 "/>
<polyline clip-path="url(#clip382)" style="stroke:#000000; stroke-linecap:round; stroke-linejoin:round; stroke-width:2; stroke-opacity:0.1; fill:none" points="1270.92,1486.45 1270.92,47.2441 "/>
<polyline clip-path="url(#clip382)" style="stroke:#000000; stroke-linecap:round; stroke-linejoin:round; stroke-width:2; stroke-opacity:0.1; fill:none" points="2294.24,1486.45 2294.24,47.2441 "/>
<polyline clip-path="url(#clip382)" style="stroke:#000000; stroke-linecap:round; stroke-linejoin:round; stroke-width:2; stroke-opacity:0.1; fill:none" points="186.274,1446.48 2352.76,1446.48 "/>
<polyline clip-path="url(#clip382)" style="stroke:#000000; stroke-linecap:round; stroke-linejoin:round; stroke-width:2; stroke-opacity:0.1; fill:none" points="186.274,1106.31 2352.76,1106.31 "/>
<polyline clip-path="url(#clip382)" style="stroke:#000000; stroke-linecap:round; stroke-linejoin:round; stroke-width:2; stroke-opacity:0.1; fill:none" points="186.274,766.14 2352.76,766.14 "/>
<polyline clip-path="url(#clip382)" style="stroke:#000000; stroke-linecap:round; stroke-linejoin:round; stroke-width:2; stroke-opacity:0.1; fill:none" points="186.274,425.969 2352.76,425.969 "/>
<polyline clip-path="url(#clip382)" style="stroke:#000000; stroke-linecap:round; stroke-linejoin:round; stroke-width:2; stroke-opacity:0.1; fill:none" points="186.274,85.7969 2352.76,85.7969 "/>
<polyline clip-path="url(#clip380)" style="stroke:#000000; stroke-linecap:round; stroke-linejoin:round; stroke-width:4; stroke-opacity:1; fill:none" points="186.274,1486.45 2352.76,1486.45 "/>
<polyline clip-path="url(#clip380)" style="stroke:#000000; stroke-linecap:round; stroke-linejoin:round; stroke-width:4; stroke-opacity:1; fill:none" points="247.59,1486.45 247.59,1467.55 "/>
<polyline clip-path="url(#clip380)" style="stroke:#000000; stroke-linecap:round; stroke-linejoin:round; stroke-width:4; stroke-opacity:1; fill:none" points="1270.92,1486.45 1270.92,1467.55 "/>
<polyline clip-path="url(#clip380)" style="stroke:#000000; stroke-linecap:round; stroke-linejoin:round; stroke-width:4; stroke-opacity:1; fill:none" points="2294.24,1486.45 2294.24,1467.55 "/>
<path clip-path="url(#clip380)" d="M119.384 1544.91 L135.704 1544.91 L135.704 1548.85 L113.759 1548.85 L113.759 1544.91 Q116.421 1542.16 121.005 1537.53 Q125.611 1532.88 126.792 1531.53 Q129.037 1529.01 129.917 1527.27 Q130.819 1525.51 130.819 1523.82 Q130.819 1521.07 128.875 1519.33 Q126.954 1517.6 123.852 1517.6 Q121.653 1517.6 119.199 1518.36 Q116.768 1519.13 113.991 1520.68 L113.991 1515.95 Q116.815 1514.82 119.268 1514.24 Q121.722 1513.66 123.759 1513.66 Q129.13 1513.66 132.324 1516.35 Q135.518 1519.03 135.518 1523.52 Q135.518 1525.65 134.708 1527.57 Q133.921 1529.47 131.815 1532.07 Q131.236 1532.74 128.134 1535.95 Q125.032 1539.15 119.384 1544.91 Z" fill="#000000" fill-rule="nonzero" fill-opacity="1" /><path clip-path="url(#clip380)" d="M155.518 1517.37 Q151.907 1517.37 150.078 1520.93 Q148.273 1524.47 148.273 1531.6 Q148.273 1538.71 150.078 1542.27 Q151.907 1545.82 155.518 1545.82 Q159.153 1545.82 160.958 1542.27 Q162.787 1538.71 162.787 1531.6 Q162.787 1524.47 160.958 1520.93 Q159.153 1517.37 155.518 1517.37 M155.518 1513.66 Q161.328 1513.66 164.384 1518.27 Q167.463 1522.85 167.463 1531.6 Q167.463 1540.33 164.384 1544.94 Q161.328 1549.52 155.518 1549.52 Q149.708 1549.52 146.629 1544.94 Q143.574 1540.33 143.574 1531.6 Q143.574 1522.85 146.629 1518.27 Q149.708 1513.66 155.518 1513.66 Z" fill="#000000" fill-rule="nonzero" fill-opacity="1" /><path clip-path="url(#clip380)" d="M185.68 1517.37 Q182.069 1517.37 180.24 1520.93 Q178.435 1524.47 178.435 1531.6 Q178.435 1538.71 180.24 1542.27 Q182.069 1545.82 185.68 1545.82 Q189.314 1545.82 191.12 1542.27 Q192.949 1538.71 192.949 1531.6 Q192.949 1524.47 191.12 1520.93 Q189.314 1517.37 185.68 1517.37 M185.68 1513.66 Q191.49 1513.66 194.546 1518.27 Q197.625 1522.85 197.625 1531.6 Q197.625 1540.33 194.546 1544.94 Q191.49 1549.52 185.68 1549.52 Q179.87 1549.52 176.791 1544.94 Q173.736 1540.33 173.736 1531.6 Q173.736 1522.85 176.791 1518.27 Q179.87 1513.66 185.68 1513.66 Z" fill="#000000" fill-rule="nonzero" fill-opacity="1" /><path clip-path="url(#clip380)" d="M206.652 1544.91 L214.291 1544.91 L214.291 1518.55 L205.981 1520.21 L205.981 1515.95 L214.245 1514.29 L218.921 1514.29 L218.921 1544.91 L226.56 1544.91 L226.56 1548.85 L206.652 1548.85 L206.652 1544.91 Z" fill="#000000" fill-rule="nonzero" fill-opacity="1" /><path clip-path="url(#clip380)" d="M233.249 1533.96 L245.726 1533.96 L245.726 1537.76 L233.249 1537.76 L233.249 1533.96 Z" fill="#000000" fill-rule="nonzero" fill-opacity="1" /><path clip-path="url(#clip380)" d="M263.11 1517.37 Q259.499 1517.37 257.67 1520.93 Q255.865 1524.47 255.865 1531.6 Q255.865 1538.71 257.67 1542.27 Q259.499 1545.82 263.11 1545.82 Q266.745 1545.82 268.55 1542.27 Q270.379 1538.71 270.379 1531.6 Q270.379 1524.47 268.55 1520.93 Q266.745 1517.37 263.11 1517.37 M263.11 1513.66 Q268.92 1513.66 271.976 1518.27 Q275.055 1522.85 275.055 1531.6 Q275.055 1540.33 271.976 1544.94 Q268.92 1549.52 263.11 1549.52 Q257.3 1549.52 254.221 1544.94 Q251.166 1540.33 251.166 1531.6 Q251.166 1522.85 254.221 1518.27 Q257.3 1513.66 263.11 1513.66 Z" fill="#000000" fill-rule="nonzero" fill-opacity="1" /><path clip-path="url(#clip380)" d="M284.082 1544.91 L291.721 1544.91 L291.721 1518.55 L283.411 1520.21 L283.411 1515.95 L291.675 1514.29 L296.351 1514.29 L296.351 1544.91 L303.99 1544.91 L303.99 1548.85 L284.082 1548.85 L284.082 1544.91 Z" fill="#000000" fill-rule="nonzero" fill-opacity="1" /><path clip-path="url(#clip380)" d="M310.679 1533.96 L323.156 1533.96 L323.156 1537.76 L310.679 1537.76 L310.679 1533.96 Z" fill="#000000" fill-rule="nonzero" fill-opacity="1" /><path clip-path="url(#clip380)" d="M340.54 1517.37 Q336.929 1517.37 335.101 1520.93 Q333.295 1524.47 333.295 1531.6 Q333.295 1538.71 335.101 1542.27 Q336.929 1545.82 340.54 1545.82 Q344.175 1545.82 345.98 1542.27 Q347.809 1538.71 347.809 1531.6 Q347.809 1524.47 345.98 1520.93 Q344.175 1517.37 340.54 1517.37 M340.54 1513.66 Q346.351 1513.66 349.406 1518.27 Q352.485 1522.85 352.485 1531.6 Q352.485 1540.33 349.406 1544.94 Q346.351 1549.52 340.54 1549.52 Q334.73 1549.52 331.652 1544.94 Q328.596 1540.33 328.596 1531.6 Q328.596 1522.85 331.652 1518.27 Q334.73 1513.66 340.54 1513.66 Z" fill="#000000" fill-rule="nonzero" fill-opacity="1" /><path clip-path="url(#clip380)" d="M361.513 1544.91 L369.151 1544.91 L369.151 1518.55 L360.841 1520.21 L360.841 1515.95 L369.105 1514.29 L373.781 1514.29 L373.781 1544.91 L381.42 1544.91 L381.42 1548.85 L361.513 1548.85 L361.513 1544.91 Z" fill="#000000" fill-rule="nonzero" fill-opacity="1" /><path clip-path="url(#clip380)" d="M1142.71 1544.91 L1159.03 1544.91 L1159.03 1548.85 L1137.09 1548.85 L1137.09 1544.91 Q1139.75 1542.16 1144.33 1537.53 Q1148.94 1532.88 1150.12 1531.53 Q1152.36 1529.01 1153.24 1527.27 Q1154.15 1525.51 1154.15 1523.82 Q1154.15 1521.07 1152.2 1519.33 Q1150.28 1517.6 1147.18 1517.6 Q1144.98 1517.6 1142.53 1518.36 Q1140.1 1519.13 1137.32 1520.68 L1137.32 1515.95 Q1140.14 1514.82 1142.6 1514.24 Q1145.05 1513.66 1147.09 1513.66 Q1152.46 1513.66 1155.65 1516.35 Q1158.85 1519.03 1158.85 1523.52 Q1158.85 1525.65 1158.04 1527.57 Q1157.25 1529.47 1155.14 1532.07 Q1154.56 1532.74 1151.46 1535.95 Q1148.36 1539.15 1142.71 1544.91 Z" fill="#000000" fill-rule="nonzero" fill-opacity="1" /><path clip-path="url(#clip380)" d="M1178.85 1517.37 Q1175.23 1517.37 1173.41 1520.93 Q1171.6 1524.47 1171.6 1531.6 Q1171.6 1538.71 1173.41 1542.27 Q1175.23 1545.82 1178.85 1545.82 Q1182.48 1545.82 1184.29 1542.27 Q1186.11 1538.71 1186.11 1531.6 Q1186.11 1524.47 1184.29 1520.93 Q1182.48 1517.37 1178.85 1517.37 M1178.85 1513.66 Q1184.66 1513.66 1187.71 1518.27 Q1190.79 1522.85 1190.79 1531.6 Q1190.79 1540.33 1187.71 1544.94 Q1184.66 1549.52 1178.85 1549.52 Q1173.04 1549.52 1169.96 1544.94 Q1166.9 1540.33 1166.9 1531.6 Q1166.9 1522.85 1169.96 1518.27 Q1173.04 1513.66 1178.85 1513.66 Z" fill="#000000" fill-rule="nonzero" fill-opacity="1" /><path clip-path="url(#clip380)" d="M1209.01 1517.37 Q1205.4 1517.37 1203.57 1520.93 Q1201.76 1524.47 1201.76 1531.6 Q1201.76 1538.71 1203.57 1542.27 Q1205.4 1545.82 1209.01 1545.82 Q1212.64 1545.82 1214.45 1542.27 Q1216.28 1538.71 1216.28 1531.6 Q1216.28 1524.47 1214.45 1520.93 Q1212.64 1517.37 1209.01 1517.37 M1209.01 1513.66 Q1214.82 1513.66 1217.87 1518.27 Q1220.95 1522.85 1220.95 1531.6 Q1220.95 1540.33 1217.87 1544.94 Q1214.82 1549.52 1209.01 1549.52 Q1203.2 1549.52 1200.12 1544.94 Q1197.06 1540.33 1197.06 1531.6 Q1197.06 1522.85 1200.12 1518.27 Q1203.2 1513.66 1209.01 1513.66 Z" fill="#000000" fill-rule="nonzero" fill-opacity="1" /><path clip-path="url(#clip380)" d="M1233.2 1544.91 L1249.52 1544.91 L1249.52 1548.85 L1227.57 1548.85 L1227.57 1544.91 Q1230.23 1542.16 1234.82 1537.53 Q1239.42 1532.88 1240.6 1531.53 Q1242.85 1529.01 1243.73 1527.27 Q1244.63 1525.51 1244.63 1523.82 Q1244.63 1521.07 1242.69 1519.33 Q1240.77 1517.6 1237.66 1517.6 Q1235.47 1517.6 1233.01 1518.36 Q1230.58 1519.13 1227.8 1520.68 L1227.8 1515.95 Q1230.63 1514.82 1233.08 1514.24 Q1235.54 1513.66 1237.57 1513.66 Q1242.94 1513.66 1246.14 1516.35 Q1249.33 1519.03 1249.33 1523.52 Q1249.33 1525.65 1248.52 1527.57 Q1247.73 1529.47 1245.63 1532.07 Q1245.05 1532.74 1241.95 1535.95 Q1238.85 1539.15 1233.2 1544.91 Z" fill="#000000" fill-rule="nonzero" fill-opacity="1" /><path clip-path="url(#clip380)" d="M1256.58 1533.96 L1269.05 1533.96 L1269.05 1537.76 L1256.58 1537.76 L1256.58 1533.96 Z" fill="#000000" fill-rule="nonzero" fill-opacity="1" /><path clip-path="url(#clip380)" d="M1286.44 1517.37 Q1282.83 1517.37 1281 1520.93 Q1279.19 1524.47 1279.19 1531.6 Q1279.19 1538.71 1281 1542.27 Q1282.83 1545.82 1286.44 1545.82 Q1290.07 1545.82 1291.88 1542.27 Q1293.71 1538.71 1293.71 1531.6 Q1293.71 1524.47 1291.88 1520.93 Q1290.07 1517.37 1286.44 1517.37 M1286.44 1513.66 Q1292.25 1513.66 1295.3 1518.27 Q1298.38 1522.85 1298.38 1531.6 Q1298.38 1540.33 1295.3 1544.94 Q1292.25 1549.52 1286.44 1549.52 Q1280.63 1549.52 1277.55 1544.94 Q1274.49 1540.33 1274.49 1531.6 Q1274.49 1522.85 1277.55 1518.27 Q1280.63 1513.66 1286.44 1513.66 Z" fill="#000000" fill-rule="nonzero" fill-opacity="1" /><path clip-path="url(#clip380)" d="M1307.41 1544.91 L1315.05 1544.91 L1315.05 1518.55 L1306.74 1520.21 L1306.74 1515.95 L1315 1514.29 L1319.68 1514.29 L1319.68 1544.91 L1327.32 1544.91 L1327.32 1548.85 L1307.41 1548.85 L1307.41 1544.91 Z" fill="#000000" fill-rule="nonzero" fill-opacity="1" /><path clip-path="url(#clip380)" d="M1334.01 1533.96 L1346.48 1533.96 L1346.48 1537.76 L1334.01 1537.76 L1334.01 1533.96 Z" fill="#000000" fill-rule="nonzero" fill-opacity="1" /><path clip-path="url(#clip380)" d="M1363.87 1517.37 Q1360.26 1517.37 1358.43 1520.93 Q1356.62 1524.47 1356.62 1531.6 Q1356.62 1538.71 1358.43 1542.27 Q1360.26 1545.82 1363.87 1545.82 Q1367.5 1545.82 1369.31 1542.27 Q1371.14 1538.71 1371.14 1531.6 Q1371.14 1524.47 1369.31 1520.93 Q1367.5 1517.37 1363.87 1517.37 M1363.87 1513.66 Q1369.68 1513.66 1372.73 1518.27 Q1375.81 1522.85 1375.81 1531.6 Q1375.81 1540.33 1372.73 1544.94 Q1369.68 1549.52 1363.87 1549.52 Q1358.06 1549.52 1354.98 1544.94 Q1351.92 1540.33 1351.92 1531.6 Q1351.92 1522.85 1354.98 1518.27 Q1358.06 1513.66 1363.87 1513.66 Z" fill="#000000" fill-rule="nonzero" fill-opacity="1" /><path clip-path="url(#clip380)" d="M1384.84 1544.91 L1392.48 1544.91 L1392.48 1518.55 L1384.17 1520.21 L1384.17 1515.95 L1392.43 1514.29 L1397.11 1514.29 L1397.11 1544.91 L1404.75 1544.91 L1404.75 1548.85 L1384.84 1548.85 L1384.84 1544.91 Z" fill="#000000" fill-rule="nonzero" fill-opacity="1" /><path clip-path="url(#clip380)" d="M2166.04 1544.91 L2182.36 1544.91 L2182.36 1548.85 L2160.41 1548.85 L2160.41 1544.91 Q2163.08 1542.16 2167.66 1537.53 Q2172.27 1532.88 2173.45 1531.53 Q2175.69 1529.01 2176.57 1527.27 Q2177.47 1525.51 2177.47 1523.82 Q2177.47 1521.07 2175.53 1519.33 Q2173.61 1517.6 2170.51 1517.6 Q2168.31 1517.6 2165.85 1518.36 Q2163.42 1519.13 2160.65 1520.68 L2160.65 1515.95 Q2163.47 1514.82 2165.92 1514.24 Q2168.38 1513.66 2170.41 1513.66 Q2175.78 1513.66 2178.98 1516.35 Q2182.17 1519.03 2182.17 1523.52 Q2182.17 1525.65 2181.36 1527.57 Q2180.58 1529.47 2178.47 1532.07 Q2177.89 1532.74 2174.79 1535.95 Q2171.69 1539.15 2166.04 1544.91 Z" fill="#000000" fill-rule="nonzero" fill-opacity="1" /><path clip-path="url(#clip380)" d="M2202.17 1517.37 Q2198.56 1517.37 2196.73 1520.93 Q2194.93 1524.47 2194.93 1531.6 Q2194.93 1538.71 2196.73 1542.27 Q2198.56 1545.82 2202.17 1545.82 Q2205.81 1545.82 2207.61 1542.27 Q2209.44 1538.71 2209.44 1531.6 Q2209.44 1524.47 2207.61 1520.93 Q2205.81 1517.37 2202.17 1517.37 M2202.17 1513.66 Q2207.98 1513.66 2211.04 1518.27 Q2214.12 1522.85 2214.12 1531.6 Q2214.12 1540.33 2211.04 1544.94 Q2207.98 1549.52 2202.17 1549.52 Q2196.36 1549.52 2193.28 1544.94 Q2190.23 1540.33 2190.23 1531.6 Q2190.23 1522.85 2193.28 1518.27 Q2196.36 1513.66 2202.17 1513.66 Z" fill="#000000" fill-rule="nonzero" fill-opacity="1" /><path clip-path="url(#clip380)" d="M2232.33 1517.37 Q2228.72 1517.37 2226.89 1520.93 Q2225.09 1524.47 2225.09 1531.6 Q2225.09 1538.71 2226.89 1542.27 Q2228.72 1545.82 2232.33 1545.82 Q2235.97 1545.82 2237.77 1542.27 Q2239.6 1538.71 2239.6 1531.6 Q2239.6 1524.47 2237.77 1520.93 Q2235.97 1517.37 2232.33 1517.37 M2232.33 1513.66 Q2238.14 1513.66 2241.2 1518.27 Q2244.28 1522.85 2244.28 1531.6 Q2244.28 1540.33 2241.2 1544.94 Q2238.14 1549.52 2232.33 1549.52 Q2226.52 1549.52 2223.45 1544.94 Q2220.39 1540.33 2220.39 1531.6 Q2220.39 1522.85 2223.45 1518.27 Q2226.52 1513.66 2232.33 1513.66 Z" fill="#000000" fill-rule="nonzero" fill-opacity="1" /><path clip-path="url(#clip380)" d="M2266.66 1530.21 Q2270.02 1530.93 2271.89 1533.2 Q2273.79 1535.47 2273.79 1538.8 Q2273.79 1543.92 2270.27 1546.72 Q2266.76 1549.52 2260.27 1549.52 Q2258.1 1549.52 2255.78 1549.08 Q2253.49 1548.66 2251.04 1547.81 L2251.04 1543.29 Q2252.98 1544.43 2255.3 1545.01 Q2257.61 1545.58 2260.14 1545.58 Q2264.53 1545.58 2266.83 1543.85 Q2269.14 1542.11 2269.14 1538.8 Q2269.14 1535.75 2266.99 1534.03 Q2264.86 1532.3 2261.04 1532.3 L2257.01 1532.3 L2257.01 1528.45 L2261.22 1528.45 Q2264.67 1528.45 2266.5 1527.09 Q2268.33 1525.7 2268.33 1523.11 Q2268.33 1520.45 2266.43 1519.03 Q2264.56 1517.6 2261.04 1517.6 Q2259.12 1517.6 2256.92 1518.01 Q2254.72 1518.43 2252.08 1519.31 L2252.08 1515.14 Q2254.74 1514.4 2257.06 1514.03 Q2259.39 1513.66 2261.45 1513.66 Q2266.78 1513.66 2269.88 1516.09 Q2272.98 1518.5 2272.98 1522.62 Q2272.98 1525.49 2271.34 1527.48 Q2269.7 1529.45 2266.66 1530.21 Z" fill="#000000" fill-rule="nonzero" fill-opacity="1" /><path clip-path="url(#clip380)" d="M2279.9 1533.96 L2292.38 1533.96 L2292.38 1537.76 L2279.9 1537.76 L2279.9 1533.96 Z" fill="#000000" fill-rule="nonzero" fill-opacity="1" /><path clip-path="url(#clip380)" d="M2309.76 1517.37 Q2306.15 1517.37 2304.32 1520.93 Q2302.52 1524.47 2302.52 1531.6 Q2302.52 1538.71 2304.32 1542.27 Q2306.15 1545.82 2309.76 1545.82 Q2313.4 1545.82 2315.2 1542.27 Q2317.03 1538.71 2317.03 1531.6 Q2317.03 1524.47 2315.2 1520.93 Q2313.4 1517.37 2309.76 1517.37 M2309.76 1513.66 Q2315.57 1513.66 2318.63 1518.27 Q2321.71 1522.85 2321.71 1531.6 Q2321.71 1540.33 2318.63 1544.94 Q2315.57 1549.52 2309.76 1549.52 Q2303.95 1549.52 2300.88 1544.94 Q2297.82 1540.33 2297.82 1531.6 Q2297.82 1522.85 2300.88 1518.27 Q2303.95 1513.66 2309.76 1513.66 Z" fill="#000000" fill-rule="nonzero" fill-opacity="1" /><path clip-path="url(#clip380)" d="M2330.74 1544.91 L2338.38 1544.91 L2338.38 1518.55 L2330.07 1520.21 L2330.07 1515.95 L2338.33 1514.29 L2343.01 1514.29 L2343.01 1544.91 L2350.64 1544.91 L2350.64 1548.85 L2330.74 1548.85 L2330.74 1544.91 Z" fill="#000000" fill-rule="nonzero" fill-opacity="1" /><path clip-path="url(#clip380)" d="M2357.33 1533.96 L2369.81 1533.96 L2369.81 1537.76 L2357.33 1537.76 L2357.33 1533.96 Z" fill="#000000" fill-rule="nonzero" fill-opacity="1" /><path clip-path="url(#clip380)" d="M2387.19 1517.37 Q2383.58 1517.37 2381.76 1520.93 Q2379.95 1524.47 2379.95 1531.6 Q2379.95 1538.71 2381.76 1542.27 Q2383.58 1545.82 2387.19 1545.82 Q2390.83 1545.82 2392.63 1542.27 Q2394.46 1538.71 2394.46 1531.6 Q2394.46 1524.47 2392.63 1520.93 Q2390.83 1517.37 2387.19 1517.37 M2387.19 1513.66 Q2393.01 1513.66 2396.06 1518.27 Q2399.14 1522.85 2399.14 1531.6 Q2399.14 1540.33 2396.06 1544.94 Q2393.01 1549.52 2387.19 1549.52 Q2381.38 1549.52 2378.31 1544.94 Q2375.25 1540.33 2375.25 1531.6 Q2375.25 1522.85 2378.31 1518.27 Q2381.38 1513.66 2387.19 1513.66 Z" fill="#000000" fill-rule="nonzero" fill-opacity="1" /><path clip-path="url(#clip380)" d="M2408.17 1544.91 L2415.81 1544.91 L2415.81 1518.55 L2407.5 1520.21 L2407.5 1515.95 L2415.76 1514.29 L2420.44 1514.29 L2420.44 1544.91 L2428.07 1544.91 L2428.07 1548.85 L2408.17 1548.85 L2408.17 1544.91 Z" fill="#000000" fill-rule="nonzero" fill-opacity="1" /><polyline clip-path="url(#clip380)" style="stroke:#000000; stroke-linecap:round; stroke-linejoin:round; stroke-width:4; stroke-opacity:1; fill:none" points="186.274,1486.45 186.274,47.2441 "/>
<polyline clip-path="url(#clip380)" style="stroke:#000000; stroke-linecap:round; stroke-linejoin:round; stroke-width:4; stroke-opacity:1; fill:none" points="186.274,1446.48 205.172,1446.48 "/>
<polyline clip-path="url(#clip380)" style="stroke:#000000; stroke-linecap:round; stroke-linejoin:round; stroke-width:4; stroke-opacity:1; fill:none" points="186.274,1106.31 205.172,1106.31 "/>
<polyline clip-path="url(#clip380)" style="stroke:#000000; stroke-linecap:round; stroke-linejoin:round; stroke-width:4; stroke-opacity:1; fill:none" points="186.274,766.14 205.172,766.14 "/>
<polyline clip-path="url(#clip380)" style="stroke:#000000; stroke-linecap:round; stroke-linejoin:round; stroke-width:4; stroke-opacity:1; fill:none" points="186.274,425.969 205.172,425.969 "/>
<polyline clip-path="url(#clip380)" style="stroke:#000000; stroke-linecap:round; stroke-linejoin:round; stroke-width:4; stroke-opacity:1; fill:none" points="186.274,85.7969 205.172,85.7969 "/>
<path clip-path="url(#clip380)" d="M62.9365 1432.28 Q59.3254 1432.28 57.4967 1435.85 Q55.6912 1439.39 55.6912 1446.52 Q55.6912 1453.62 57.4967 1457.19 Q59.3254 1460.73 62.9365 1460.73 Q66.5707 1460.73 68.3763 1457.19 Q70.205 1453.62 70.205 1446.52 Q70.205 1439.39 68.3763 1435.85 Q66.5707 1432.28 62.9365 1432.28 M62.9365 1428.58 Q68.7467 1428.58 71.8022 1433.19 Q74.8809 1437.77 74.8809 1446.52 Q74.8809 1455.25 71.8022 1459.85 Q68.7467 1464.43 62.9365 1464.43 Q57.1264 1464.43 54.0477 1459.85 Q50.9921 1455.25 50.9921 1446.52 Q50.9921 1437.77 54.0477 1433.19 Q57.1264 1428.58 62.9365 1428.58 Z" fill="#000000" fill-rule="nonzero" fill-opacity="1" /><path clip-path="url(#clip380)" d="M83.0984 1457.88 L87.9827 1457.88 L87.9827 1463.76 L83.0984 1463.76 L83.0984 1457.88 Z" fill="#000000" fill-rule="nonzero" fill-opacity="1" /><path clip-path="url(#clip380)" d="M108.168 1432.28 Q104.557 1432.28 102.728 1435.85 Q100.922 1439.39 100.922 1446.52 Q100.922 1453.62 102.728 1457.19 Q104.557 1460.73 108.168 1460.73 Q111.802 1460.73 113.608 1457.19 Q115.436 1453.62 115.436 1446.52 Q115.436 1439.39 113.608 1435.85 Q111.802 1432.28 108.168 1432.28 M108.168 1428.58 Q113.978 1428.58 117.033 1433.19 Q120.112 1437.77 120.112 1446.52 Q120.112 1455.25 117.033 1459.85 Q113.978 1464.43 108.168 1464.43 Q102.358 1464.43 99.2789 1459.85 Q96.2234 1455.25 96.2234 1446.52 Q96.2234 1437.77 99.2789 1433.19 Q102.358 1428.58 108.168 1428.58 Z" fill="#000000" fill-rule="nonzero" fill-opacity="1" /><path clip-path="url(#clip380)" d="M138.33 1432.28 Q134.719 1432.28 132.89 1435.85 Q131.084 1439.39 131.084 1446.52 Q131.084 1453.62 132.89 1457.19 Q134.719 1460.73 138.33 1460.73 Q141.964 1460.73 143.769 1457.19 Q145.598 1453.62 145.598 1446.52 Q145.598 1439.39 143.769 1435.85 Q141.964 1432.28 138.33 1432.28 M138.33 1428.58 Q144.14 1428.58 147.195 1433.19 Q150.274 1437.77 150.274 1446.52 Q150.274 1455.25 147.195 1459.85 Q144.14 1464.43 138.33 1464.43 Q132.519 1464.43 129.441 1459.85 Q126.385 1455.25 126.385 1446.52 Q126.385 1437.77 129.441 1433.19 Q132.519 1428.58 138.33 1428.58 Z" fill="#000000" fill-rule="nonzero" fill-opacity="1" /><path clip-path="url(#clip380)" d="M63.9319 1092.11 Q60.3208 1092.11 58.4921 1095.68 Q56.6865 1099.22 56.6865 1106.35 Q56.6865 1113.45 58.4921 1117.02 Q60.3208 1120.56 63.9319 1120.56 Q67.5661 1120.56 69.3717 1117.02 Q71.2004 1113.45 71.2004 1106.35 Q71.2004 1099.22 69.3717 1095.68 Q67.5661 1092.11 63.9319 1092.11 M63.9319 1088.41 Q69.742 1088.41 72.7976 1093.01 Q75.8763 1097.6 75.8763 1106.35 Q75.8763 1115.07 72.7976 1119.68 Q69.742 1124.26 63.9319 1124.26 Q58.1217 1124.26 55.043 1119.68 Q51.9875 1115.07 51.9875 1106.35 Q51.9875 1097.6 55.043 1093.01 Q58.1217 1088.41 63.9319 1088.41 Z" fill="#000000" fill-rule="nonzero" fill-opacity="1" /><path clip-path="url(#clip380)" d="M84.0938 1117.71 L88.978 1117.71 L88.978 1123.59 L84.0938 1123.59 L84.0938 1117.71 Z" fill="#000000" fill-rule="nonzero" fill-opacity="1" /><path clip-path="url(#clip380)" d="M103.191 1119.66 L119.51 1119.66 L119.51 1123.59 L97.566 1123.59 L97.566 1119.66 Q100.228 1116.9 104.811 1112.27 Q109.418 1107.62 110.598 1106.28 Q112.844 1103.75 113.723 1102.02 Q114.626 1100.26 114.626 1098.57 Q114.626 1095.81 112.682 1094.08 Q110.76 1092.34 107.658 1092.34 Q105.459 1092.34 103.006 1093.11 Q100.575 1093.87 97.7974 1095.42 L97.7974 1090.7 Q100.621 1089.56 103.075 1088.99 Q105.529 1088.41 107.566 1088.41 Q112.936 1088.41 116.131 1091.09 Q119.325 1093.78 119.325 1098.27 Q119.325 1100.4 118.515 1102.32 Q117.728 1104.22 115.621 1106.81 Q115.043 1107.48 111.941 1110.7 Q108.839 1113.89 103.191 1119.66 Z" fill="#000000" fill-rule="nonzero" fill-opacity="1" /><path clip-path="url(#clip380)" d="M129.371 1089.03 L147.728 1089.03 L147.728 1092.97 L133.654 1092.97 L133.654 1101.44 Q134.672 1101.09 135.691 1100.93 Q136.709 1100.74 137.728 1100.74 Q143.515 1100.74 146.894 1103.92 Q150.274 1107.09 150.274 1112.5 Q150.274 1118.08 146.802 1121.18 Q143.33 1124.26 137.01 1124.26 Q134.834 1124.26 132.566 1123.89 Q130.32 1123.52 127.913 1122.78 L127.913 1118.08 Q129.996 1119.22 132.219 1119.77 Q134.441 1120.33 136.918 1120.33 Q140.922 1120.33 143.26 1118.22 Q145.598 1116.12 145.598 1112.5 Q145.598 1108.89 143.26 1106.79 Q140.922 1104.68 136.918 1104.68 Q135.043 1104.68 133.168 1105.1 Q131.316 1105.51 129.371 1106.39 L129.371 1089.03 Z" fill="#000000" fill-rule="nonzero" fill-opacity="1" /><path clip-path="url(#clip380)" d="M62.9365 751.939 Q59.3254 751.939 57.4967 755.504 Q55.6912 759.045 55.6912 766.175 Q55.6912 773.281 57.4967 776.846 Q59.3254 780.388 62.9365 780.388 Q66.5707 780.388 68.3763 776.846 Q70.205 773.281 70.205 766.175 Q70.205 759.045 68.3763 755.504 Q66.5707 751.939 62.9365 751.939 M62.9365 748.235 Q68.7467 748.235 71.8022 752.842 Q74.8809 757.425 74.8809 766.175 Q74.8809 774.902 71.8022 779.508 Q68.7467 784.092 62.9365 784.092 Q57.1264 784.092 54.0477 779.508 Q50.9921 774.902 50.9921 766.175 Q50.9921 757.425 54.0477 752.842 Q57.1264 748.235 62.9365 748.235 Z" fill="#000000" fill-rule="nonzero" fill-opacity="1" /><path clip-path="url(#clip380)" d="M83.0984 777.541 L87.9827 777.541 L87.9827 783.42 L83.0984 783.42 L83.0984 777.541 Z" fill="#000000" fill-rule="nonzero" fill-opacity="1" /><path clip-path="url(#clip380)" d="M98.2141 748.86 L116.57 748.86 L116.57 752.795 L102.496 752.795 L102.496 761.268 Q103.515 760.92 104.534 760.758 Q105.552 760.573 106.571 760.573 Q112.358 760.573 115.737 763.744 Q119.117 766.916 119.117 772.332 Q119.117 777.911 115.645 781.013 Q112.172 784.092 105.853 784.092 Q103.677 784.092 101.409 783.721 Q99.1632 783.351 96.7558 782.61 L96.7558 777.911 Q98.8391 779.045 101.061 779.601 Q103.284 780.156 105.76 780.156 Q109.765 780.156 112.103 778.05 Q114.441 775.943 114.441 772.332 Q114.441 768.721 112.103 766.615 Q109.765 764.508 105.76 764.508 Q103.885 764.508 102.01 764.925 Q100.159 765.342 98.2141 766.221 L98.2141 748.86 Z" fill="#000000" fill-rule="nonzero" fill-opacity="1" /><path clip-path="url(#clip380)" d="M138.33 751.939 Q134.719 751.939 132.89 755.504 Q131.084 759.045 131.084 766.175 Q131.084 773.281 132.89 776.846 Q134.719 780.388 138.33 780.388 Q141.964 780.388 143.769 776.846 Q145.598 773.281 145.598 766.175 Q145.598 759.045 143.769 755.504 Q141.964 751.939 138.33 751.939 M138.33 748.235 Q144.14 748.235 147.195 752.842 Q150.274 757.425 150.274 766.175 Q150.274 774.902 147.195 779.508 Q144.14 784.092 138.33 784.092 Q132.519 784.092 129.441 779.508 Q126.385 774.902 126.385 766.175 Q126.385 757.425 129.441 752.842 Q132.519 748.235 138.33 748.235 Z" fill="#000000" fill-rule="nonzero" fill-opacity="1" /><path clip-path="url(#clip380)" d="M63.9319 411.767 Q60.3208 411.767 58.4921 415.332 Q56.6865 418.874 56.6865 426.003 Q56.6865 433.11 58.4921 436.675 Q60.3208 440.216 63.9319 440.216 Q67.5661 440.216 69.3717 436.675 Q71.2004 433.11 71.2004 426.003 Q71.2004 418.874 69.3717 415.332 Q67.5661 411.767 63.9319 411.767 M63.9319 408.064 Q69.742 408.064 72.7976 412.67 Q75.8763 417.253 75.8763 426.003 Q75.8763 434.73 72.7976 439.337 Q69.742 443.92 63.9319 443.92 Q58.1217 443.92 55.043 439.337 Q51.9875 434.73 51.9875 426.003 Q51.9875 417.253 55.043 412.67 Q58.1217 408.064 63.9319 408.064 Z" fill="#000000" fill-rule="nonzero" fill-opacity="1" /><path clip-path="url(#clip380)" d="M84.0938 437.369 L88.978 437.369 L88.978 443.249 L84.0938 443.249 L84.0938 437.369 Z" fill="#000000" fill-rule="nonzero" fill-opacity="1" /><path clip-path="url(#clip380)" d="M97.9826 408.689 L120.205 408.689 L120.205 410.679 L107.658 443.249 L102.774 443.249 L114.58 412.624 L97.9826 412.624 L97.9826 408.689 Z" fill="#000000" fill-rule="nonzero" fill-opacity="1" /><path clip-path="url(#clip380)" d="M129.371 408.689 L147.728 408.689 L147.728 412.624 L133.654 412.624 L133.654 421.096 Q134.672 420.749 135.691 420.587 Q136.709 420.401 137.728 420.401 Q143.515 420.401 146.894 423.573 Q150.274 426.744 150.274 432.161 Q150.274 437.739 146.802 440.841 Q143.33 443.92 137.01 443.92 Q134.834 443.92 132.566 443.55 Q130.32 443.179 127.913 442.438 L127.913 437.739 Q129.996 438.874 132.219 439.429 Q134.441 439.985 136.918 439.985 Q140.922 439.985 143.26 437.878 Q145.598 435.772 145.598 432.161 Q145.598 428.55 143.26 426.443 Q140.922 424.337 136.918 424.337 Q135.043 424.337 133.168 424.753 Q131.316 425.17 129.371 426.05 L129.371 408.689 Z" fill="#000000" fill-rule="nonzero" fill-opacity="1" /><path clip-path="url(#clip380)" d="M53.7467 99.1417 L61.3856 99.1417 L61.3856 72.7761 L53.0754 74.4428 L53.0754 70.1835 L61.3393 68.5169 L66.0152 68.5169 L66.0152 99.1417 L73.654 99.1417 L73.654 103.077 L53.7467 103.077 L53.7467 99.1417 Z" fill="#000000" fill-rule="nonzero" fill-opacity="1" /><path clip-path="url(#clip380)" d="M83.0984 97.1973 L87.9827 97.1973 L87.9827 103.077 L83.0984 103.077 L83.0984 97.1973 Z" fill="#000000" fill-rule="nonzero" fill-opacity="1" /><path clip-path="url(#clip380)" d="M108.168 71.5956 Q104.557 71.5956 102.728 75.1604 Q100.922 78.702 100.922 85.8316 Q100.922 92.938 102.728 96.5028 Q104.557 100.044 108.168 100.044 Q111.802 100.044 113.608 96.5028 Q115.436 92.938 115.436 85.8316 Q115.436 78.702 113.608 75.1604 Q111.802 71.5956 108.168 71.5956 M108.168 67.8919 Q113.978 67.8919 117.033 72.4983 Q120.112 77.0816 120.112 85.8316 Q120.112 94.5584 117.033 99.1649 Q113.978 103.748 108.168 103.748 Q102.358 103.748 99.2789 99.1649 Q96.2234 94.5584 96.2234 85.8316 Q96.2234 77.0816 99.2789 72.4983 Q102.358 67.8919 108.168 67.8919 Z" fill="#000000" fill-rule="nonzero" fill-opacity="1" /><path clip-path="url(#clip380)" d="M138.33 71.5956 Q134.719 71.5956 132.89 75.1604 Q131.084 78.702 131.084 85.8316 Q131.084 92.938 132.89 96.5028 Q134.719 100.044 138.33 100.044 Q141.964 100.044 143.769 96.5028 Q145.598 92.938 145.598 85.8316 Q145.598 78.702 143.769 75.1604 Q141.964 71.5956 138.33 71.5956 M138.33 67.8919 Q144.14 67.8919 147.195 72.4983 Q150.274 77.0816 150.274 85.8316 Q150.274 94.5584 147.195 99.1649 Q144.14 103.748 138.33 103.748 Q132.519 103.748 129.441 99.1649 Q126.385 94.5584 126.385 85.8316 Q126.385 77.0816 129.441 72.4983 Q132.519 67.8919 138.33 67.8919 Z" fill="#000000" fill-rule="nonzero" fill-opacity="1" /><polyline clip-path="url(#clip382)" style="stroke:#009af9; stroke-linecap:round; stroke-linejoin:round; stroke-width:4; stroke-opacity:1; fill:none" points="247.59,872.611 250.393,872.611 250.393,415.11 253.197,415.11 253.197,358.007 256,358.007 256,103.089 258.804,103.089 258.804,1095.46 261.608,1095.46 261.608,1385.97 264.411,1385.97 264.411,1354.34 267.215,1354.34 267.215,575.871 270.019,575.871 270.019,208.029 272.822,208.029 272.822,224.711 275.626,224.711 275.626,223.955 278.43,223.955 278.43,549.372 281.233,549.372 281.233,1154.73 284.037,1154.73 284.037,811.146 286.84,811.146 286.84,1136.74 289.644,1136.74 289.644,1311.91 292.448,1311.91 292.448,1225 295.251,1225 295.251,577.595 298.055,577.595 298.055,1054.41 300.859,1054.41 300.859,1068.2 303.662,1068.2 303.662,581.993 306.466,581.993 306.466,1023.89 309.27,1023.89 309.27,93.5003 312.073,93.5003 312.073,604.901 314.877,604.901 314.877,1251.82 317.68,1251.82 317.68,290.194 320.484,290.194 320.484,1020.52 323.288,1020.52 323.288,1265.81 326.091,1265.81 326.091,1391.18 328.895,1391.18 328.895,1117.96 331.699,1117.96 331.699,683.203 334.502,683.203 334.502,513.546 337.306,513.546 337.306,766.342 340.11,766.342 340.11,1193.15 342.913,1193.15 342.913,461.069 345.717,461.069 345.717,284.816 348.52,284.816 348.52,1140.08 351.324,1140.08 351.324,200.307 354.128,200.307 354.128,711.003 356.931,711.003 356.931,871.519 359.735,871.519 359.735,1004.41 362.539,1004.41 362.539,339.092 365.342,339.092 365.342,817.399 368.146,817.399 368.146,544.935 370.95,544.935 370.95,201.507 373.753,201.507 373.753,789.426 376.557,789.426 376.557,293.764 379.36,293.764 379.36,486.787 382.164,486.787 382.164,897.018 384.968,897.018 384.968,819.489 387.771,819.489 387.771,1221.75 390.575,1221.75 390.575,947.618 393.379,947.618 393.379,1190.19 396.182,1190.19 396.182,1125.14 398.986,1125.14 398.986,820.646 401.79,820.646 401.79,301.447 404.593,301.447 404.593,1393.07 407.397,1393.07 407.397,1336.68 410.2,1336.68 410.2,1195.09 413.004,1195.09 413.004,446.828 415.808,446.828 415.808,1242.88 418.611,1242.88 418.611,656.026 421.415,656.026 421.415,1188.8 424.219,1188.8 424.219,964.208 427.022,964.208 427.022,1445.72 429.826,1445.72 429.826,1354.61 432.63,1354.61 432.63,556.521 435.433,556.521 435.433,506.315 438.237,506.315 438.237,367.681 441.04,367.681 441.04,1415.91 443.844,1415.91 443.844,1328.15 446.648,1328.15 446.648,311.014 449.451,311.014 449.451,974.262 452.255,974.262 452.255,307.037 455.059,307.037 455.059,708.195 457.862,708.195 457.862,907.49 460.666,907.49 460.666,1406.64 463.47,1406.64 463.47,1189.11 466.273,1189.11 466.273,943.198 469.077,943.198 469.077,170.82 471.88,170.82 471.88,1116.87 474.684,1116.87 474.684,1117.36 477.488,1117.36 477.488,568.76 480.291,568.76 480.291,1097.96 483.095,1097.96 483.095,1270.63 485.899,1270.63 485.899,361.06 488.702,361.06 488.702,1287.27 491.506,1287.27 491.506,1293.62 494.31,1293.62 494.31,212.521 497.113,212.521 497.113,328.039 499.917,328.039 499.917,1315.46 502.72,1315.46 502.72,1331.59 505.524,1331.59 505.524,207.994 508.328,207.994 508.328,1175.48 511.131,1175.48 511.131,422.537 513.935,422.537 513.935,156.576 516.739,156.576 516.739,491.739 519.542,491.739 519.542,164.456 522.346,164.456 522.346,375.802 525.15,375.802 525.15,1211.2 527.953,1211.2 527.953,1282.97 530.757,1282.97 530.757,271.453 533.56,271.453 533.56,425.202 536.364,425.202 536.364,298.199 539.168,298.199 539.168,146.917 541.971,146.917 541.971,442.609 544.775,442.609 544.775,689.662 547.579,689.662 547.579,1368.12 550.382,1368.12 550.382,942.008 553.186,942.008 553.186,555.981 555.99,555.981 555.99,1155.97 558.793,1155.97 558.793,427.262 561.597,427.262 561.597,1118.98 564.4,1118.98 564.4,491.223 567.204,491.223 567.204,183.525 570.008,183.525 570.008,638.316 572.811,638.316 572.811,457.241 575.615,457.241 575.615,913.048 578.419,913.048 578.419,213.2 581.222,213.2 581.222,1149.63 584.026,1149.63 584.026,258.361 586.83,258.361 586.83,1239.49 589.633,1239.49 589.633,615.152 592.437,615.152 592.437,1314.06 595.24,1314.06 595.24,1441.32 598.044,1441.32 598.044,253.369 600.848,253.369 600.848,428.004 603.651,428.004 603.651,1281.06 606.455,1281.06 606.455,457.479 609.259,457.479 609.259,661.474 612.062,661.474 612.062,134.892 614.866,134.892 614.866,1329.76 617.67,1329.76 617.67,466.779 620.473,466.779 620.473,1056.73 623.277,1056.73 623.277,757.348 626.08,757.348 626.08,1157.08 628.884,1157.08 628.884,1112.06 631.688,1112.06 631.688,1067.83 634.491,1067.83 634.491,1260.35 637.295,1260.35 637.295,687.174 640.099,687.174 640.099,136.971 642.902,136.971 642.902,479.757 645.706,479.757 645.706,929.837 648.51,929.837 648.51,1166.92 651.313,1166.92 651.313,1375.13 654.117,1375.13 654.117,265.892 656.92,265.892 656.92,192.29 659.724,192.29 659.724,738.537 662.528,738.537 662.528,935.606 665.331,935.606 665.331,1024.78 668.135,1024.78 668.135,957.765 670.939,957.765 670.939,753.644 673.742,753.644 673.742,342.403 676.546,342.403 676.546,1439.62 679.35,1439.62 679.35,992.397 682.153,992.397 682.153,596.968 684.957,596.968 684.957,956.584 687.76,956.584 687.76,199.549 690.564,199.549 690.564,875.97 693.368,875.97 693.368,1038.51 696.171,1038.51 696.171,604.3 698.975,604.3 698.975,888.813 701.779,888.813 701.779,835.364 704.582,835.364 704.582,915.93 707.386,915.93 707.386,251.003 710.19,251.003 710.19,839.312 712.993,839.312 712.993,134.36 715.797,134.36 715.797,1205.14 718.6,1205.14 718.6,301.948 721.404,301.948 721.404,1019.05 724.208,1019.05 724.208,102.161 727.011,102.161 727.011,176.545 729.815,176.545 729.815,1235.02 732.619,1235.02 732.619,884.096 735.422,884.096 735.422,1283.91 738.226,1283.91 738.226,849.495 741.03,849.495 741.03,1212.29 743.833,1212.29 743.833,214.976 746.637,214.976 746.637,567.936 749.44,567.936 749.44,101.127 752.244,101.127 752.244,539.501 755.048,539.501 755.048,956.912 757.851,956.912 757.851,719.866 760.655,719.866 760.655,1297.86 763.459,1297.86 763.459,181.914 766.262,181.914 766.262,248.344 769.066,248.344 769.066,1382.11 771.87,1382.11 771.87,165.051 774.673,165.051 774.673,545.98 777.477,545.98 777.477,111.607 780.28,111.607 780.28,405.965 783.084,405.965 783.084,366.717 785.888,366.717 785.888,286.013 788.691,286.013 788.691,607.347 791.495,607.347 791.495,864.06 794.299,864.06 794.299,93.7079 797.102,93.7079 797.102,1036.61 799.906,1036.61 799.906,1078.48 802.71,1078.48 802.71,124.968 805.513,124.968 805.513,1256.07 808.317,1256.07 808.317,193.113 811.12,193.113 811.12,212.083 813.924,212.083 813.924,698.834 816.728,698.834 816.728,140.315 819.531,140.315 819.531,1044.4 822.335,1044.4 822.335,356.674 825.139,356.674 825.139,241.496 827.942,241.496 827.942,868.153 830.746,868.153 830.746,1082.19 833.55,1082.19 833.55,1121.49 836.353,1121.49 836.353,606.153 839.157,606.153 839.157,587.007 841.96,587.007 841.96,674.924 844.764,674.924 844.764,656.451 847.568,656.451 847.568,1374.32 850.371,1374.32 850.371,570.432 853.175,570.432 853.175,1071.47 855.979,1071.47 855.979,1361.82 858.782,1361.82 858.782,136.694 861.586,136.694 861.586,1294.67 864.39,1294.67 864.39,1433.1 867.193,1433.1 867.193,973.55 869.997,973.55 869.997,1351.79 872.8,1351.79 872.8,568.485 875.604,568.485 875.604,746.362 878.408,746.362 878.408,134.977 881.211,134.977 881.211,1123.38 884.015,1123.38 884.015,221.141 886.819,221.141 886.819,1099.9 889.622,1099.9 889.622,544.005 892.426,544.005 892.426,270.511 895.23,270.511 895.23,165.494 898.033,165.494 898.033,656.618 900.837,656.618 900.837,265.064 903.64,265.064 903.64,1257.58 906.444,1257.58 906.444,123.729 909.248,123.729 909.248,1092.33 912.051,1092.33 912.051,529.422 914.855,529.422 914.855,912.87 917.659,912.87 917.659,1055.2 920.462,1055.2 920.462,1235.92 923.266,1235.92 923.266,788.32 926.07,788.32 926.07,1132.4 928.873,1132.4 928.873,1112.62 931.677,1112.62 931.677,433.899 934.48,433.899 934.48,165.541 937.284,165.541 937.284,1365.58 940.088,1365.58 940.088,875.437 942.891,875.437 942.891,1207.92 945.695,1207.92 945.695,1081.67 948.499,1081.67 948.499,1222.51 951.302,1222.51 951.302,1065.62 954.106,1065.62 954.106,1133.93 956.91,1133.93 956.91,472.927 959.713,472.927 959.713,263.715 962.517,263.715 962.517,891.857 965.32,891.857 965.32,305.773 968.124,305.773 968.124,333.605 970.928,333.605 970.928,347.457 973.731,347.457 973.731,1361.5 976.535,1361.5 976.535,326.739 979.339,326.739 979.339,800.114 982.142,800.114 982.142,1239.85 984.946,1239.85 984.946,221.057 987.75,221.057 987.75,1333.51 990.553,1333.51 990.553,405.394 993.357,405.394 993.357,970.201 996.16,970.201 996.16,225.574 998.964,225.574 998.964,1214.53 1001.77,1214.53 1001.77,641.522 1004.57,641.522 1004.57,685.258 1007.37,685.258 1007.37,140.762 1010.18,140.762 1010.18,852.204 1012.98,852.204 1012.98,985.821 1015.79,985.821 1015.79,1220.97 1018.59,1220.97 1018.59,1368.12 1021.39,1368.12 1021.39,237.606 1024.2,237.606 1024.2,102.464 1027,102.464 1027,1078.23 1029.8,1078.23 1029.8,936.944 1032.61,936.944 1032.61,559.781 1035.41,559.781 1035.41,773.877 1038.21,773.877 1038.21,470.352 1041.02,470.352 1041.02,376.346 1043.82,376.346 1043.82,1368.27 1046.63,1368.27 1046.63,1324.73 1049.43,1324.73 1049.43,1341.28 1052.23,1341.28 1052.23,635.931 1055.04,635.931 1055.04,278.112 1057.84,278.112 1057.84,660.693 1060.64,660.693 1060.64,243.178 1063.45,243.178 1063.45,1217.07 1066.25,1217.07 1066.25,110.502 1069.05,110.502 1069.05,1150.05 1071.86,1150.05 1071.86,1269.24 1074.66,1269.24 1074.66,524.569 1077.47,524.569 1077.47,1207.87 1080.27,1207.87 1080.27,1011.58 1083.07,1011.58 1083.07,1097.97 1085.88,1097.97 1085.88,615.697 1088.68,615.697 1088.68,185.14 1091.48,185.14 1091.48,1319.09 1094.29,1319.09 1094.29,1403.98 1097.09,1403.98 1097.09,194.636 1099.89,194.636 1099.89,749.521 1102.7,749.521 1102.7,1191.35 1105.5,1191.35 1105.5,636.344 1108.31,636.344 1108.31,1289.19 1111.11,1289.19 1111.11,1081.51 1113.91,1081.51 1113.91,988.584 1116.72,988.584 1116.72,1434.23 1119.52,1434.23 1119.52,1279.32 1122.32,1279.32 1122.32,936.884 1125.13,936.884 1125.13,531.601 1127.93,531.601 1127.93,1229.32 1130.73,1229.32 1130.73,516.065 1133.54,516.065 1133.54,1152.13 1136.34,1152.13 1136.34,897.396 1139.15,897.396 1139.15,724.712 1141.95,724.712 1141.95,1440.79 1144.75,1440.79 1144.75,457.609 1147.56,457.609 1147.56,787.208 1150.36,787.208 1150.36,1394.78 1153.16,1394.78 1153.16,1380.94 1155.97,1380.94 1155.97,484.846 1158.77,484.846 1158.77,1287.63 1161.57,1287.63 1161.57,1036.16 1164.38,1036.16 1164.38,1007.56 1167.18,1007.56 1167.18,1270.01 1169.99,1270.01 1169.99,1189.12 1172.79,1189.12 1172.79,531.08 1175.59,531.08 1175.59,1438.63 1178.4,1438.63 1178.4,1191.47 1181.2,1191.47 1181.2,909.366 1184,909.366 1184,1326.15 1186.81,1326.15 1186.81,1219.7 1189.61,1219.7 1189.61,119.57 1192.41,119.57 1192.41,1211.38 1195.22,1211.38 1195.22,1190.24 1198.02,1190.24 1198.02,88.3487 1200.83,88.3487 1200.83,502.519 1203.63,502.519 1203.63,833.02 1206.43,833.02 1206.43,751.513 1209.24,751.513 1209.24,1224.61 1212.04,1224.61 1212.04,662.011 1214.84,662.011 1214.84,723.349 1217.65,723.349 1217.65,1209.97 1220.45,1209.97 1220.45,465.623 1223.25,465.623 1223.25,418.469 1226.06,418.469 1226.06,735.421 1228.86,735.421 1228.86,1012.43 1231.67,1012.43 1231.67,950.919 1234.47,950.919 1234.47,1155.15 1237.27,1155.15 1237.27,1391.72 1240.08,1391.72 1240.08,852.488 1242.88,852.488 1242.88,1082.17 1245.68,1082.17 1245.68,676.685 1248.49,676.685 1248.49,865.158 1251.29,865.158 1251.29,931.771 1254.09,931.771 1254.09,159.357 1256.9,159.357 1256.9,1250.54 1259.7,1250.54 1259.7,668.777 1262.51,668.777 1262.51,792.954 1265.31,792.954 1265.31,1151.63 1268.11,1151.63 1268.11,769.737 1270.92,769.737 1270.92,433.232 1273.72,433.232 1273.72,596.683 1276.52,596.683 1276.52,245.332 1279.33,245.332 1279.33,294.618 1282.13,294.618 1282.13,185.915 1284.93,185.915 1284.93,947.178 1287.74,947.178 1287.74,1268.04 1290.54,1268.04 1290.54,1101.15 1293.35,1101.15 1293.35,667.278 1296.15,667.278 1296.15,320.246 1298.95,320.246 1298.95,1409.23 1301.76,1409.23 1301.76,641.597 1304.56,641.597 1304.56,969.022 1307.36,969.022 1307.36,375.035 1310.17,375.035 1310.17,149.474 1312.97,149.474 1312.97,1184.53 1315.77,1184.53 1315.77,923.4 1318.58,923.4 1318.58,123.745 1321.38,123.745 1321.38,427.693 1324.19,427.693 1324.19,1285.94 1326.99,1285.94 1326.99,904.621 1329.79,904.621 1329.79,1213.31 1332.6,1213.31 1332.6,1168.78 1335.4,1168.78 1335.4,636.406 1338.2,636.406 1338.2,1085.49 1341.01,1085.49 1341.01,1008.84 1343.81,1008.84 1343.81,870.961 1346.61,870.961 1346.61,524.145 1349.42,524.145 1349.42,336.597 1352.22,336.597 1352.22,665.017 1355.03,665.017 1355.03,280.273 1357.83,280.273 1357.83,1116.79 1360.63,1116.79 1360.63,1144.24 1363.44,1144.24 1363.44,1220.59 1366.24,1220.59 1366.24,1248.52 1369.04,1248.52 1369.04,216.892 1371.85,216.892 1371.85,1077.27 1374.65,1077.27 1374.65,790.605 1377.45,790.605 1377.45,1269.58 1380.26,1269.58 1380.26,299.973 1383.06,299.973 1383.06,436.691 1385.87,436.691 1385.87,592.843 1388.67,592.843 1388.67,1421.06 1391.47,1421.06 1391.47,598.263 1394.28,598.263 1394.28,503.447 1397.08,503.447 1397.08,550.781 1399.88,550.781 1399.88,501.41 1402.69,501.41 1402.69,770.251 1405.49,770.251 1405.49,1221.71 1408.29,1221.71 1408.29,1148.54 1411.1,1148.54 1411.1,1114.07 1413.9,1114.07 1413.9,425.727 1416.71,425.727 1416.71,182.776 1419.51,182.776 1419.51,1022.95 1422.31,1022.95 1422.31,1303.65 1425.12,1303.65 1425.12,262.404 1427.92,262.404 1427.92,1094.47 1430.72,1094.47 1430.72,862.2 1433.53,862.2 1433.53,226.412 1436.33,226.412 1436.33,1246.51 1439.13,1246.51 1439.13,396.65 1441.94,396.65 1441.94,338.607 1444.74,338.607 1444.74,966.208 1447.55,966.208 1447.55,685.859 1450.35,685.859 1450.35,1318.1 1453.15,1318.1 1453.15,1077.75 1455.96,1077.75 1455.96,297.16 1458.76,297.16 1458.76,1071.77 1461.56,1071.77 1461.56,1359.17 1464.37,1359.17 1464.37,480.949 1467.17,480.949 1467.17,731.274 1469.97,731.274 1469.97,1063.8 1472.78,1063.8 1472.78,1223.5 1475.58,1223.5 1475.58,725.214 1478.39,725.214 1478.39,949.829 1481.19,949.829 1481.19,1270.79 1483.99,1270.79 1483.99,560.985 1486.8,560.985 1486.8,1135.95 1489.6,1135.95 1489.6,869.358 1492.4,869.358 1492.4,530.857 1495.21,530.857 1495.21,674.255 1498.01,674.255 1498.01,254.826 1500.81,254.826 1500.81,790.189 1503.62,790.189 1503.62,726.343 1506.42,726.343 1506.42,371.601 1509.23,371.601 1509.23,1351.93 1512.03,1351.93 1512.03,180.415 1514.83,180.415 1514.83,1004.1 1517.64,1004.1 1517.64,515.045 1520.44,515.045 1520.44,325.949 1523.24,325.949 1523.24,374.016 1526.05,374.016 1526.05,282.359 1528.85,282.359 1528.85,98.2554 1531.65,98.2554 1531.65,1046.45 1534.46,1046.45 1534.46,317.772 1537.26,317.772 1537.26,1029.9 1540.07,1029.9 1540.07,419.887 1542.87,419.887 1542.87,262.886 1545.67,262.886 1545.67,187.287 1548.48,187.287 1548.48,678.71 1551.28,678.71 1551.28,554.402 1554.08,554.402 1554.08,1297.03 1556.89,1297.03 1556.89,514.961 1559.69,514.961 1559.69,1304.54 1562.49,1304.54 1562.49,1309.08 1565.3,1309.08 1565.3,195.877 1568.1,195.877 1568.1,381.561 1570.91,381.561 1570.91,228.944 1573.71,228.944 1573.71,372.76 1576.51,372.76 1576.51,171.712 1579.32,171.712 1579.32,1322.32 1582.12,1322.32 1582.12,1295.9 1584.92,1295.9 1584.92,225.182 1587.73,225.182 1587.73,1115.08 1590.53,1115.08 1590.53,598.369 1593.33,598.369 1593.33,631.886 1596.14,631.886 1596.14,1140.73 1598.94,1140.73 1598.94,524.355 1601.75,524.355 1601.75,957.215 1604.55,957.215 1604.55,1142.25 1607.35,1142.25 1607.35,97.3191 1610.16,97.3191 1610.16,164.819 1612.96,164.819 1612.96,444.049 1615.76,444.049 1615.76,443.503 1618.57,443.503 1618.57,917.62 1621.37,917.62 1621.37,641.018 1624.17,641.018 1624.17,206.149 1626.98,206.149 1626.98,955.214 1629.78,955.214 1629.78,422.175 1632.59,422.175 1632.59,424.701 1635.39,424.701 1635.39,740.513 1638.19,740.513 1638.19,863.399 1641,863.399 1641,1214.46 1643.8,1214.46 1643.8,172.036 1646.6,172.036 1646.6,947.986 1649.41,947.986 1649.41,290.12 1652.21,290.12 1652.21,898.797 1655.01,898.797 1655.01,600.159 1657.82,600.159 1657.82,234.807 1660.62,234.807 1660.62,476.693 1663.43,476.693 1663.43,324.828 1666.23,324.828 1666.23,855.26 1669.03,855.26 1669.03,175.669 1671.84,175.669 1671.84,428.36 1674.64,428.36 1674.64,274.531 1677.44,274.531 1677.44,108.154 1680.25,108.154 1680.25,177.545 1683.05,177.545 1683.05,508.524 1685.85,508.524 1685.85,963.546 1688.66,963.546 1688.66,262.444 1691.46,262.444 1691.46,332.412 1694.27,332.412 1694.27,288.441 1697.07,288.441 1697.07,1091.68 1699.87,1091.68 1699.87,1007.98 1702.68,1007.98 1702.68,343.388 1705.48,343.388 1705.48,1300.65 1708.28,1300.65 1708.28,597.942 1711.09,597.942 1711.09,620.138 1713.89,620.138 1713.89,852.933 1716.69,852.933 1716.69,1005.46 1719.5,1005.46 1719.5,434.864 1722.3,434.864 1722.3,417.103 1725.11,417.103 1725.11,570.61 1727.91,570.61 1727.91,1070.01 1730.71,1070.01 1730.71,1419.35 1733.52,1419.35 1733.52,926.693 1736.32,926.693 1736.32,1152.63 1739.12,1152.63 1739.12,1187.35 1741.93,1187.35 1741.93,290.464 1744.73,290.464 1744.73,536.79 1747.53,536.79 1747.53,1056.14 1750.34,1056.14 1750.34,490.002 1753.14,490.002 1753.14,650.693 1755.95,650.693 1755.95,919.771 1758.75,919.771 1758.75,1149.59 1761.55,1149.59 1761.55,299.129 1764.36,299.129 1764.36,401.939 1767.16,401.939 1767.16,1281.77 1769.96,1281.77 1769.96,124.621 1772.77,124.621 1772.77,1315.59 1775.57,1315.59 1775.57,1082.07 1778.37,1082.07 1778.37,786.584 1781.18,786.584 1781.18,867.695 1783.98,867.695 1783.98,723.494 1786.79,723.494 1786.79,847.968 1789.59,847.968 1789.59,794.519 1792.39,794.519 1792.39,1179.75 1795.2,1179.75 1795.2,1174.12 1798,1174.12 1798,975.335 1800.8,975.335 1800.8,527.688 1803.61,527.688 1803.61,1075.53 1806.41,1075.53 1806.41,1276.65 1809.21,1276.65 1809.21,1218.55 1812.02,1218.55 1812.02,616.694 1814.82,616.694 1814.82,737.612 1817.63,737.612 1817.63,169.878 1820.43,169.878 1820.43,87.9763 1823.23,87.9763 1823.23,293.135 1826.04,293.135 1826.04,1259.67 1828.84,1259.67 1828.84,635.021 1831.64,635.021 1831.64,1087.21 1834.45,1087.21 1834.45,389.706 1837.25,389.706 1837.25,715.949 1840.05,715.949 1840.05,457.121 1842.86,457.121 1842.86,1009.72 1845.66,1009.72 1845.66,710.527 1848.47,710.527 1848.47,791.734 1851.27,791.734 1851.27,1441.25 1854.07,1441.25 1854.07,177.906 1856.88,177.906 1856.88,688.47 1859.68,688.47 1859.68,511.164 1862.48,511.164 1862.48,496.189 1865.29,496.189 1865.29,910.905 1868.09,910.905 1868.09,122.317 1870.89,122.317 1870.89,381.986 1873.7,381.986 1873.7,947.637 1876.5,947.637 1876.5,1057.17 1879.31,1057.17 1879.31,664.222 1882.11,664.222 1882.11,782.735 1884.91,782.735 1884.91,1402.88 1887.72,1402.88 1887.72,364.488 1890.52,364.488 1890.52,738.138 1893.32,738.138 1893.32,1268.23 1896.13,1268.23 1896.13,303.313 1898.93,303.313 1898.93,387.709 1901.73,387.709 1901.73,1362.24 1904.54,1362.24 1904.54,1400.46 1907.34,1400.46 1907.34,462.434 1910.15,462.434 1910.15,113.734 1912.95,113.734 1912.95,1232.15 1915.75,1232.15 1915.75,1123.32 1918.56,1123.32 1918.56,587.927 1921.36,587.927 1921.36,815.996 1924.16,815.996 1924.16,581.955 1926.97,581.955 1926.97,103.786 1929.77,103.786 1929.77,1274.61 1932.57,1274.61 1932.57,580.818 1935.38,580.818 1935.38,105.319 1938.18,105.319 1938.18,909.445 1940.99,909.445 1940.99,122.809 1943.79,122.809 1943.79,1212.53 1946.59,1212.53 1946.59,758.3 1949.4,758.3 1949.4,160.462 1952.2,160.462 1952.2,597.112 1955,597.112 1955,1147.77 1957.81,1147.77 1957.81,1187.49 1960.61,1187.49 1960.61,1135 1963.41,1135 1963.41,1244.52 1966.22,1244.52 1966.22,126.051 1969.02,126.051 1969.02,909.023 1971.83,909.023 1971.83,316.683 1974.63,316.683 1974.63,1283.18 1977.43,1283.18 1977.43,1274.41 1980.24,1274.41 1980.24,838.299 1983.04,838.299 1983.04,1366.55 1985.84,1366.55 1985.84,924.413 1988.65,924.413 1988.65,885.683 1991.45,885.683 1991.45,368.43 1994.25,368.43 1994.25,574.523 1997.06,574.523 1997.06,472.837 1999.86,472.837 1999.86,803.239 2002.67,803.239 2002.67,814.882 2005.47,814.882 2005.47,1156.04 2008.27,1156.04 2008.27,833.575 2011.08,833.575 2011.08,1323.85 2013.88,1323.85 2013.88,369.272 2016.68,369.272 2016.68,827.7 2019.49,827.7 2019.49,486.296 2022.29,486.296 2022.29,1307.59 2025.09,1307.59 2025.09,1322.44 2027.9,1322.44 2027.9,895.481 2030.7,895.481 2030.7,312.359 2033.51,312.359 2033.51,1346.57 2036.31,1346.57 2036.31,332.095 2039.11,332.095 2039.11,217.373 2041.92,217.373 2041.92,323.182 2044.72,323.182 2044.72,1161.27 2047.52,1161.27 2047.52,732.396 2050.33,732.396 2050.33,1287.27 2053.13,1287.27 2053.13,1064.11 2055.93,1064.11 2055.93,122.676 2058.74,122.676 2058.74,597.064 2061.54,597.064 2061.54,339.121 2064.35,339.121 2064.35,481.273 2067.15,481.273 2067.15,125.236 2069.95,125.236 2069.95,967.798 2072.76,967.798 2072.76,1092.7 2075.56,1092.7 2075.56,329.637 2078.36,329.637 2078.36,621.172 2081.17,621.172 2081.17,945.854 2083.97,945.854 2083.97,944.433 2086.77,944.433 2086.77,1306.7 2089.58,1306.7 2089.58,1217.54 2092.38,1217.54 2092.38,1319.94 2095.19,1319.94 2095.19,589.853 2097.99,589.853 2097.99,902.158 2100.79,902.158 2100.79,483.915 2103.6,483.915 2103.6,1421.71 2106.4,1421.71 2106.4,348.227 2109.2,348.227 2109.2,297.796 2112.01,297.796 2112.01,1027.62 2114.81,1027.62 2114.81,966.028 2117.61,966.028 2117.61,995.745 2120.42,995.745 2120.42,727.535 2123.22,727.535 2123.22,1395.34 2126.03,1395.34 2126.03,1250.18 2128.83,1250.18 2128.83,1359.65 2131.63,1359.65 2131.63,958.954 2134.44,958.954 2134.44,883.94 2137.24,883.94 2137.24,560.061 2140.04,560.061 2140.04,594.048 2142.85,594.048 2142.85,798.085 2145.65,798.085 2145.65,250.492 2148.45,250.492 2148.45,582.379 2151.26,582.379 2151.26,1256.62 2154.06,1256.62 2154.06,438.346 2156.87,438.346 2156.87,1175.41 2159.67,1175.41 2159.67,1267.1 2162.47,1267.1 2162.47,930.867 2165.28,930.867 2165.28,1124.33 2168.08,1124.33 2168.08,890.332 2170.88,890.332 2170.88,1175.41 2173.69,1175.41 2173.69,278.385 2176.49,278.385 2176.49,1024.75 2179.29,1024.75 2179.29,651.121 2182.1,651.121 2182.1,477.06 2184.9,477.06 2184.9,261.189 2187.71,261.189 2187.71,1178.32 2190.51,1178.32 2190.51,988.884 2193.31,988.884 2193.31,145.218 2196.12,145.218 2196.12,112.441 2198.92,112.441 2198.92,1354.6 2201.72,1354.6 2201.72,367.456 2204.53,367.456 2204.53,262.1 2207.33,262.1 2207.33,738.572 2210.13,738.572 2210.13,416.84 2212.94,416.84 2212.94,1020.08 2215.74,1020.08 2215.74,1154.18 2218.55,1154.18 2218.55,995.324 2221.35,995.324 2221.35,1070.06 2224.15,1070.06 2224.15,370.311 2226.96,370.311 2226.96,789.604 2229.76,789.604 2229.76,490.581 2232.56,490.581 2232.56,104.932 2235.37,104.932 2235.37,788.695 2238.17,788.695 2238.17,1404.41 2240.97,1404.41 2240.97,810.358 2243.78,810.358 2243.78,1332.53 2246.58,1332.53 2246.58,379.798 2249.39,379.798 2249.39,1108.67 2252.19,1108.67 2252.19,1388.71 2254.99,1388.71 2254.99,425.341 2257.8,425.341 2257.8,270.767 2260.6,270.767 2260.6,1119.46 2263.4,1119.46 2263.4,1076.95 2266.21,1076.95 2266.21,1159.88 2269.01,1159.88 2269.01,98.6644 2271.81,98.6644 2271.81,699.878 2274.62,699.878 2274.62,1377.97 2277.42,1377.97 2277.42,1302.72 2280.23,1302.72 2280.23,776.207 2283.03,776.207 2283.03,894.297 2285.83,894.297 2285.83,1390.17 2288.64,1390.17 2288.64,977.704 2291.44,977.704 2291.44,1190.03 "/>
<polyline clip-path="url(#clip382)" style="stroke:#e26f46; stroke-linecap:round; stroke-linejoin:round; stroke-width:4; stroke-opacity:1; fill:none" points="247.59,872.611 250.393,872.611 250.393,415.11 253.197,415.11 253.197,358.007 256,358.007 256,103.089 258.804,103.089 258.804,1095.46 261.608,1095.46 261.608,1385.97 264.411,1385.97 264.411,1354.34 267.215,1354.34 267.215,575.871 270.019,575.871 270.019,208.029 272.822,208.029 272.822,224.711 275.626,224.711 275.626,223.955 278.43,223.955 278.43,549.372 281.233,549.372 281.233,1154.73 284.037,1154.73 284.037,811.146 286.84,811.146 286.84,1136.74 289.644,1136.74 289.644,1311.91 292.448,1311.91 292.448,1225 295.251,1225 295.251,577.595 298.055,577.595 298.055,1054.41 300.859,1054.41 300.859,1068.2 303.662,1068.2 303.662,581.993 306.466,581.993 306.466,1023.89 309.27,1023.89 309.27,93.5003 312.073,93.5003 312.073,604.901 314.877,604.901 314.877,1251.82 317.68,1251.82 317.68,290.194 320.484,290.194 320.484,1020.52 323.288,1020.52 323.288,1265.81 326.091,1265.81 326.091,1391.18 328.895,1391.18 328.895,1117.96 331.699,1117.96 331.699,683.203 334.502,683.203 334.502,513.546 337.306,513.546 337.306,766.342 340.11,766.342 340.11,1193.15 342.913,1193.15 342.913,461.069 345.717,461.069 345.717,284.816 348.52,284.816 348.52,1140.08 351.324,1140.08 351.324,200.307 354.128,200.307 354.128,711.003 356.931,711.003 356.931,871.519 359.735,871.519 359.735,1004.41 362.539,1004.41 362.539,339.092 365.342,339.092 365.342,817.399 368.146,817.399 368.146,544.935 370.95,544.935 370.95,201.507 373.753,201.507 373.753,789.426 376.557,789.426 376.557,293.764 379.36,293.764 379.36,486.787 382.164,486.787 382.164,897.018 384.968,897.018 384.968,819.489 387.771,819.489 387.771,1221.75 390.575,1221.75 390.575,947.618 393.379,947.618 393.379,1190.19 396.182,1190.19 396.182,1125.14 398.986,1125.14 398.986,820.646 401.79,820.646 401.79,301.447 404.593,301.447 404.593,1393.07 407.397,1393.07 407.397,1336.68 410.2,1336.68 410.2,1195.09 413.004,1195.09 413.004,446.828 415.808,446.828 415.808,1242.88 418.611,1242.88 418.611,656.026 421.415,656.026 421.415,1188.8 424.219,1188.8 424.219,964.208 427.022,964.208 427.022,1445.72 429.826,1445.72 429.826,1354.61 432.63,1354.61 432.63,556.521 435.433,556.521 435.433,506.315 438.237,506.315 438.237,367.681 441.04,367.681 441.04,1415.91 443.844,1415.91 443.844,1328.15 446.648,1328.15 446.648,311.014 449.451,311.014 449.451,974.262 452.255,974.262 452.255,307.037 455.059,307.037 455.059,708.195 457.862,708.195 457.862,907.49 460.666,907.49 460.666,1406.64 463.47,1406.64 463.47,1189.11 466.273,1189.11 466.273,943.198 469.077,943.198 469.077,170.82 471.88,170.82 471.88,1116.87 474.684,1116.87 474.684,1117.36 477.488,1117.36 477.488,568.76 480.291,568.76 480.291,1097.96 483.095,1097.96 483.095,1270.63 485.899,1270.63 485.899,361.06 488.702,361.06 488.702,1287.27 491.506,1287.27 491.506,1293.62 494.31,1293.62 494.31,212.521 497.113,212.521 497.113,328.039 499.917,328.039 499.917,1315.46 502.72,1315.46 502.72,1331.59 505.524,1331.59 505.524,207.994 508.328,207.994 508.328,1175.48 511.131,1175.48 511.131,422.537 513.935,422.537 513.935,156.576 516.739,156.576 516.739,491.739 519.542,491.739 519.542,164.456 522.346,164.456 522.346,375.802 525.15,375.802 525.15,1211.2 527.953,1211.2 527.953,1282.97 530.757,1282.97 530.757,271.453 533.56,271.453 533.56,425.202 536.364,425.202 536.364,298.199 539.168,298.199 539.168,146.917 541.971,146.917 541.971,442.609 544.775,442.609 544.775,689.662 547.579,689.662 547.579,1368.12 550.382,1368.12 550.382,942.008 553.186,942.008 553.186,555.981 555.99,555.981 555.99,1155.97 558.793,1155.97 558.793,427.262 561.597,427.262 561.597,1118.98 564.4,1118.98 564.4,491.223 567.204,491.223 567.204,183.525 570.008,183.525 570.008,638.316 572.811,638.316 572.811,457.241 575.615,457.241 575.615,913.048 578.419,913.048 578.419,213.2 581.222,213.2 581.222,1149.63 584.026,1149.63 584.026,258.361 586.83,258.361 586.83,1239.49 589.633,1239.49 589.633,615.152 592.437,615.152 592.437,1314.06 595.24,1314.06 595.24,1441.32 598.044,1441.32 598.044,253.369 600.848,253.369 600.848,428.004 603.651,428.004 603.651,1281.06 606.455,1281.06 606.455,457.479 609.259,457.479 609.259,661.474 612.062,661.474 612.062,134.892 614.866,134.892 614.866,1329.76 617.67,1329.76 617.67,466.779 620.473,466.779 620.473,1056.73 623.277,1056.73 623.277,757.348 626.08,757.348 626.08,1157.08 628.884,1157.08 628.884,1112.06 631.688,1112.06 631.688,1067.83 634.491,1067.83 634.491,1260.35 637.295,1260.35 637.295,687.174 640.099,687.174 640.099,136.971 642.902,136.971 642.902,479.757 645.706,479.757 645.706,929.837 648.51,929.837 648.51,1166.92 651.313,1166.92 651.313,1375.13 654.117,1375.13 654.117,265.892 656.92,265.892 656.92,192.29 659.724,192.29 659.724,738.537 662.528,738.537 662.528,935.606 665.331,935.606 665.331,1024.78 668.135,1024.78 668.135,957.765 670.939,957.765 670.939,753.644 673.742,753.644 673.742,342.403 676.546,342.403 676.546,1439.62 679.35,1439.62 679.35,992.397 682.153,992.397 682.153,596.968 684.957,596.968 684.957,956.584 687.76,956.584 687.76,199.549 690.564,199.549 690.564,875.97 693.368,875.97 693.368,1038.51 696.171,1038.51 696.171,604.3 698.975,604.3 698.975,888.813 701.779,888.813 701.779,835.364 704.582,835.364 704.582,915.93 707.386,915.93 707.386,251.003 710.19,251.003 710.19,839.312 712.993,839.312 712.993,134.36 715.797,134.36 715.797,1205.14 718.6,1205.14 718.6,301.948 721.404,301.948 721.404,1019.05 724.208,1019.05 724.208,102.161 727.011,102.161 727.011,176.545 729.815,176.545 729.815,1235.02 732.619,1235.02 732.619,884.096 735.422,884.096 735.422,1283.91 738.226,1283.91 738.226,849.495 741.03,849.495 741.03,1212.29 743.833,1212.29 743.833,214.976 746.637,214.976 746.637,567.936 749.44,567.936 749.44,101.127 752.244,101.127 752.244,539.501 755.048,539.501 755.048,956.912 757.851,956.912 757.851,719.866 760.655,719.866 760.655,1297.86 763.459,1297.86 763.459,181.914 766.262,181.914 766.262,248.344 769.066,248.344 769.066,1382.11 771.87,1382.11 771.87,165.051 774.673,165.051 774.673,545.98 777.477,545.98 777.477,111.607 780.28,111.607 780.28,405.965 783.084,405.965 783.084,366.717 785.888,366.717 785.888,286.013 788.691,286.013 788.691,607.347 791.495,607.347 791.495,864.06 794.299,864.06 794.299,93.7079 797.102,93.7079 797.102,1036.61 799.906,1036.61 799.906,1078.48 802.71,1078.48 802.71,124.968 805.513,124.968 805.513,1256.07 808.317,1256.07 808.317,193.113 811.12,193.113 811.12,212.083 813.924,212.083 813.924,698.834 816.728,698.834 816.728,140.315 819.531,140.315 819.531,1044.4 822.335,1044.4 822.335,356.674 825.139,356.674 825.139,241.496 827.942,241.496 827.942,868.153 830.746,868.153 830.746,1082.19 833.55,1082.19 833.55,1121.49 836.353,1121.49 836.353,606.153 839.157,606.153 839.157,587.007 841.96,587.007 841.96,674.924 844.764,674.924 844.764,656.451 847.568,656.451 847.568,1374.32 850.371,1374.32 850.371,570.432 853.175,570.432 853.175,1071.47 855.979,1071.47 855.979,1361.82 858.782,1361.82 858.782,136.694 861.586,136.694 861.586,1294.67 864.39,1294.67 864.39,1433.1 867.193,1433.1 867.193,973.55 869.997,973.55 869.997,1351.79 872.8,1351.79 872.8,568.485 875.604,568.485 875.604,746.362 878.408,746.362 878.408,134.977 881.211,134.977 881.211,1123.38 884.015,1123.38 884.015,221.141 886.819,221.141 886.819,1099.9 889.622,1099.9 889.622,544.005 892.426,544.005 892.426,270.511 895.23,270.511 895.23,165.494 898.033,165.494 898.033,656.618 900.837,656.618 900.837,265.064 903.64,265.064 903.64,1257.58 906.444,1257.58 906.444,123.729 909.248,123.729 909.248,1092.33 912.051,1092.33 912.051,529.422 914.855,529.422 914.855,912.87 917.659,912.87 917.659,1055.2 920.462,1055.2 920.462,1235.92 923.266,1235.92 923.266,788.32 926.07,788.32 926.07,1132.4 928.873,1132.4 928.873,1112.62 931.677,1112.62 931.677,433.899 934.48,433.899 934.48,165.541 937.284,165.541 937.284,1365.58 940.088,1365.58 940.088,875.437 942.891,875.437 942.891,1207.92 945.695,1207.92 945.695,1081.67 948.499,1081.67 948.499,1222.51 951.302,1222.51 951.302,1065.62 954.106,1065.62 954.106,1133.93 956.91,1133.93 956.91,472.927 959.713,472.927 959.713,263.715 962.517,263.715 962.517,891.857 965.32,891.857 965.32,305.773 968.124,305.773 968.124,333.605 970.928,333.605 970.928,347.457 973.731,347.457 973.731,1361.5 976.535,1361.5 976.535,326.739 979.339,326.739 979.339,800.114 982.142,800.114 982.142,1239.85 984.946,1239.85 984.946,221.057 987.75,221.057 987.75,1333.51 990.553,1333.51 990.553,405.394 993.357,405.394 993.357,970.201 996.16,970.201 996.16,225.574 998.964,225.574 998.964,1214.53 1001.77,1214.53 1001.77,641.522 1004.57,641.522 1004.57,685.258 1007.37,685.258 1007.37,140.762 1010.18,140.762 1010.18,852.204 1012.98,852.204 1012.98,985.821 1015.79,985.821 1015.79,1220.97 1018.59,1220.97 1018.59,1368.12 1021.39,1368.12 1021.39,237.606 1024.2,237.606 1024.2,102.464 1027,102.464 1027,1078.23 1029.8,1078.23 1029.8,936.944 1032.61,936.944 1032.61,559.781 1035.41,559.781 1035.41,773.877 1038.21,773.877 1038.21,470.352 1041.02,470.352 1041.02,376.346 1043.82,376.346 1043.82,1368.27 1046.63,1368.27 1046.63,1324.73 1049.43,1324.73 1049.43,1341.28 1052.23,1341.28 1052.23,635.931 1055.04,635.931 1055.04,278.112 1057.84,278.112 1057.84,660.693 1060.64,660.693 1060.64,243.178 1063.45,243.178 1063.45,1217.07 1066.25,1217.07 1066.25,110.502 1069.05,110.502 1069.05,1150.05 1071.86,1150.05 1071.86,1269.24 1074.66,1269.24 1074.66,524.569 1077.47,524.569 1077.47,1207.87 1080.27,1207.87 1080.27,1011.58 1083.07,1011.58 1083.07,1097.97 1085.88,1097.97 1085.88,615.697 1088.68,615.697 1088.68,185.14 1091.48,185.14 1091.48,1319.09 1094.29,1319.09 1094.29,1403.98 1097.09,1403.98 1097.09,194.636 1099.89,194.636 1099.89,749.521 1102.7,749.521 1102.7,1191.35 1105.5,1191.35 1105.5,636.344 1108.31,636.344 1108.31,1289.19 1111.11,1289.19 1111.11,1081.51 1113.91,1081.51 1113.91,988.584 1116.72,988.584 1116.72,1434.23 1119.52,1434.23 1119.52,1279.32 1122.32,1279.32 1122.32,936.884 1125.13,936.884 1125.13,531.601 1127.93,531.601 1127.93,1229.32 1130.73,1229.32 1130.73,516.065 1133.54,516.065 1133.54,1152.13 1136.34,1152.13 1136.34,897.396 1139.15,897.396 1139.15,724.712 1141.95,724.712 1141.95,1440.79 1144.75,1440.79 1144.75,457.609 1147.56,457.609 1147.56,787.208 1150.36,787.208 1150.36,1394.78 1153.16,1394.78 1153.16,1380.94 1155.97,1380.94 1155.97,484.846 1158.77,484.846 1158.77,1287.63 1161.57,1287.63 1161.57,1036.16 1164.38,1036.16 1164.38,1007.56 1167.18,1007.56 1167.18,1270.01 1169.99,1270.01 1169.99,1189.12 1172.79,1189.12 1172.79,531.08 1175.59,531.08 1175.59,1438.63 1178.4,1438.63 1178.4,1191.47 1181.2,1191.47 1181.2,909.366 1184,909.366 1184,1326.15 1186.81,1326.15 1186.81,1219.7 1189.61,1219.7 1189.61,119.57 1192.41,119.57 1192.41,1211.38 1195.22,1211.38 1195.22,1190.24 1198.02,1190.24 1198.02,88.3487 1200.83,88.3487 1200.83,502.519 1203.63,502.519 1203.63,833.02 1206.43,833.02 1206.43,751.513 1209.24,751.513 1209.24,1224.61 1212.04,1224.61 1212.04,662.011 1214.84,662.011 1214.84,723.349 1217.65,723.349 1217.65,1209.97 1220.45,1209.97 1220.45,465.623 1223.25,465.623 1223.25,418.469 1226.06,418.469 1226.06,735.421 1228.86,735.421 1228.86,1012.43 1231.67,1012.43 1231.67,950.919 1234.47,950.919 1234.47,1155.15 1237.27,1155.15 1237.27,1391.72 1240.08,1391.72 1240.08,852.488 1242.88,852.488 1242.88,1082.17 1245.68,1082.17 1245.68,676.685 1248.49,676.685 1248.49,865.158 1251.29,865.158 1251.29,931.771 1254.09,931.771 1254.09,159.357 1256.9,159.357 1256.9,1250.54 1259.7,1250.54 1259.7,668.777 1262.51,668.777 1262.51,792.954 1265.31,792.954 1265.31,1151.63 1268.11,1151.63 1268.11,769.737 "/>
<path clip-path="url(#clip380)" d="M1763.62 250.738 L2280.54 250.738 L2280.54 95.2176 L1763.62 95.2176  Z" fill="#ffffff" fill-rule="evenodd" fill-opacity="1"/>
<polyline clip-path="url(#clip380)" style="stroke:#000000; stroke-linecap:round; stroke-linejoin:round; stroke-width:4; stroke-opacity:1; fill:none" points="1763.62,250.738 2280.54,250.738 2280.54,95.2176 1763.62,95.2176 1763.62,250.738 "/>
<polyline clip-path="url(#clip380)" style="stroke:#009af9; stroke-linecap:round; stroke-linejoin:round; stroke-width:4; stroke-opacity:1; fill:none" points="1787.69,147.058 1932.12,147.058 "/>
<path clip-path="url(#clip380)" d="M1956.19 128.319 L1966.01 128.319 L1966.01 131.629 L1960.45 131.629 L1960.45 167.277 L1966.01 167.277 L1966.01 170.588 L1956.19 170.588 L1956.19 128.319 Z" fill="#000000" fill-rule="nonzero" fill-opacity="1" /><path clip-path="url(#clip380)" d="M1979.71 160.402 L1996.03 160.402 L1996.03 164.338 L1974.09 164.338 L1974.09 160.402 Q1976.75 157.648 1981.33 153.018 Q1985.94 148.365 1987.12 147.023 Q1989.36 144.5 1990.24 142.764 Q1991.15 141.004 1991.15 139.315 Q1991.15 136.56 1989.2 134.824 Q1987.28 133.088 1984.18 133.088 Q1981.98 133.088 1979.52 133.852 Q1977.09 134.615 1974.32 136.166 L1974.32 131.444 Q1977.14 130.31 1979.59 129.731 Q1982.05 129.153 1984.09 129.153 Q1989.46 129.153 1992.65 131.838 Q1995.84 134.523 1995.84 139.014 Q1995.84 141.143 1995.03 143.065 Q1994.25 144.963 1992.14 147.555 Q1991.56 148.227 1988.46 151.444 Q1985.36 154.639 1979.71 160.402 Z" fill="#000000" fill-rule="nonzero" fill-opacity="1" /><path clip-path="url(#clip380)" d="M2015.84 132.856 Q2012.23 132.856 2010.4 136.421 Q2008.6 139.963 2008.6 147.092 Q2008.6 154.199 2010.4 157.764 Q2012.23 161.305 2015.84 161.305 Q2019.48 161.305 2021.28 157.764 Q2023.11 154.199 2023.11 147.092 Q2023.11 139.963 2021.28 136.421 Q2019.48 132.856 2015.84 132.856 M2015.84 129.153 Q2021.65 129.153 2024.71 133.759 Q2027.79 138.342 2027.79 147.092 Q2027.79 155.819 2024.71 160.426 Q2021.65 165.009 2015.84 165.009 Q2010.03 165.009 2006.96 160.426 Q2003.9 155.819 2003.9 147.092 Q2003.9 138.342 2006.96 133.759 Q2010.03 129.153 2015.84 129.153 Z" fill="#000000" fill-rule="nonzero" fill-opacity="1" /><path clip-path="url(#clip380)" d="M2046.01 132.856 Q2042.39 132.856 2040.57 136.421 Q2038.76 139.963 2038.76 147.092 Q2038.76 154.199 2040.57 157.764 Q2042.39 161.305 2046.01 161.305 Q2049.64 161.305 2051.45 157.764 Q2053.27 154.199 2053.27 147.092 Q2053.27 139.963 2051.45 136.421 Q2049.64 132.856 2046.01 132.856 M2046.01 129.153 Q2051.82 129.153 2054.87 133.759 Q2057.95 138.342 2057.95 147.092 Q2057.95 155.819 2054.87 160.426 Q2051.82 165.009 2046.01 165.009 Q2040.2 165.009 2037.12 160.426 Q2034.06 155.819 2034.06 147.092 Q2034.06 138.342 2037.12 133.759 Q2040.2 129.153 2046.01 129.153 Z" fill="#000000" fill-rule="nonzero" fill-opacity="1" /><path clip-path="url(#clip380)" d="M2066.98 160.402 L2074.62 160.402 L2074.62 134.037 L2066.31 135.703 L2066.31 131.444 L2074.57 129.778 L2079.25 129.778 L2079.25 160.402 L2086.89 160.402 L2086.89 164.338 L2066.98 164.338 L2066.98 160.402 Z" fill="#000000" fill-rule="nonzero" fill-opacity="1" /><path clip-path="url(#clip380)" d="M2096.82 158.458 L2101.7 158.458 L2101.7 162.439 L2097.9 169.847 L2094.92 169.847 L2096.82 162.439 L2096.82 158.458 Z" fill="#000000" fill-rule="nonzero" fill-opacity="1" /><path clip-path="url(#clip380)" d="M2130.5 160.402 L2146.82 160.402 L2146.82 164.338 L2124.87 164.338 L2124.87 160.402 Q2127.53 157.648 2132.12 153.018 Q2136.72 148.365 2137.9 147.023 Q2140.15 144.5 2141.03 142.764 Q2141.93 141.004 2141.93 139.315 Q2141.93 136.56 2139.99 134.824 Q2138.07 133.088 2134.96 133.088 Q2132.76 133.088 2130.31 133.852 Q2127.88 134.615 2125.1 136.166 L2125.1 131.444 Q2127.93 130.31 2130.38 129.731 Q2132.83 129.153 2134.87 129.153 Q2140.24 129.153 2143.44 131.838 Q2146.63 134.523 2146.63 139.014 Q2146.63 141.143 2145.82 143.065 Q2145.03 144.963 2142.93 147.555 Q2142.35 148.227 2139.25 151.444 Q2136.14 154.639 2130.5 160.402 Z" fill="#000000" fill-rule="nonzero" fill-opacity="1" /><path clip-path="url(#clip380)" d="M2166.63 132.856 Q2163.02 132.856 2161.19 136.421 Q2159.39 139.963 2159.39 147.092 Q2159.39 154.199 2161.19 157.764 Q2163.02 161.305 2166.63 161.305 Q2170.26 161.305 2172.07 157.764 Q2173.9 154.199 2173.9 147.092 Q2173.9 139.963 2172.07 136.421 Q2170.26 132.856 2166.63 132.856 M2166.63 129.153 Q2172.44 129.153 2175.5 133.759 Q2178.57 138.342 2178.57 147.092 Q2178.57 155.819 2175.5 160.426 Q2172.44 165.009 2166.63 165.009 Q2160.82 165.009 2157.74 160.426 Q2154.69 155.819 2154.69 147.092 Q2154.69 138.342 2157.74 133.759 Q2160.82 129.153 2166.63 129.153 Z" fill="#000000" fill-rule="nonzero" fill-opacity="1" /><path clip-path="url(#clip380)" d="M2196.79 132.856 Q2193.18 132.856 2191.35 136.421 Q2189.55 139.963 2189.55 147.092 Q2189.55 154.199 2191.35 157.764 Q2193.18 161.305 2196.79 161.305 Q2200.43 161.305 2202.23 157.764 Q2204.06 154.199 2204.06 147.092 Q2204.06 139.963 2202.23 136.421 Q2200.43 132.856 2196.79 132.856 M2196.79 129.153 Q2202.6 129.153 2205.66 133.759 Q2208.74 138.342 2208.74 147.092 Q2208.74 155.819 2205.66 160.426 Q2202.6 165.009 2196.79 165.009 Q2190.98 165.009 2187.9 160.426 Q2184.85 155.819 2184.85 147.092 Q2184.85 138.342 2187.9 133.759 Q2190.98 129.153 2196.79 129.153 Z" fill="#000000" fill-rule="nonzero" fill-opacity="1" /><path clip-path="url(#clip380)" d="M2231.12 145.703 Q2234.48 146.421 2236.35 148.689 Q2238.25 150.958 2238.25 154.291 Q2238.25 159.407 2234.73 162.208 Q2231.21 165.009 2224.73 165.009 Q2222.56 165.009 2220.24 164.569 Q2217.95 164.152 2215.5 163.296 L2215.5 158.782 Q2217.44 159.916 2219.76 160.495 Q2222.07 161.074 2224.59 161.074 Q2228.99 161.074 2231.28 159.338 Q2233.6 157.601 2233.6 154.291 Q2233.6 151.236 2231.44 149.523 Q2229.32 147.787 2225.5 147.787 L2221.47 147.787 L2221.47 143.944 L2225.68 143.944 Q2229.13 143.944 2230.96 142.578 Q2232.79 141.19 2232.79 138.597 Q2232.79 135.935 2230.89 134.523 Q2229.01 133.088 2225.5 133.088 Q2223.57 133.088 2221.38 133.504 Q2219.18 133.921 2216.54 134.801 L2216.54 130.634 Q2219.2 129.893 2221.51 129.523 Q2223.85 129.153 2225.91 129.153 Q2231.24 129.153 2234.34 131.583 Q2237.44 133.99 2237.44 138.111 Q2237.44 140.981 2235.8 142.972 Q2234.15 144.94 2231.12 145.703 Z" fill="#000000" fill-rule="nonzero" fill-opacity="1" /><path clip-path="url(#clip380)" d="M2245.84 128.366 L2249.55 128.366 Q2253.02 133.828 2254.73 139.06 Q2256.47 144.291 2256.47 149.453 Q2256.47 154.639 2254.73 159.893 Q2253.02 165.148 2249.55 170.588 L2245.84 170.588 Q2248.92 165.287 2250.43 160.055 Q2251.95 154.801 2251.95 149.453 Q2251.95 144.106 2250.43 138.898 Q2248.92 133.69 2245.84 128.366 Z" fill="#000000" fill-rule="nonzero" fill-opacity="1" /><polyline clip-path="url(#clip380)" style="stroke:#e26f46; stroke-linecap:round; stroke-linejoin:round; stroke-width:4; stroke-opacity:1; fill:none" points="1787.69,198.898 1932.12,198.898 "/>
<path clip-path="url(#clip380)" d="M1956.19 180.159 L1966.01 180.159 L1966.01 183.469 L1960.45 183.469 L1960.45 219.117 L1966.01 219.117 L1966.01 222.428 L1956.19 222.428 L1956.19 180.159 Z" fill="#000000" fill-rule="nonzero" fill-opacity="1" /><path clip-path="url(#clip380)" d="M1979.71 212.242 L1996.03 212.242 L1996.03 216.178 L1974.09 216.178 L1974.09 212.242 Q1976.75 209.488 1981.33 204.858 Q1985.94 200.205 1987.12 198.863 Q1989.36 196.34 1990.24 194.604 Q1991.15 192.844 1991.15 191.155 Q1991.15 188.4 1989.2 186.664 Q1987.28 184.928 1984.18 184.928 Q1981.98 184.928 1979.52 185.692 Q1977.09 186.455 1974.32 188.006 L1974.32 183.284 Q1977.14 182.15 1979.59 181.571 Q1982.05 180.993 1984.09 180.993 Q1989.46 180.993 1992.65 183.678 Q1995.84 186.363 1995.84 190.854 Q1995.84 192.983 1995.03 194.905 Q1994.25 196.803 1992.14 199.395 Q1991.56 200.067 1988.46 203.284 Q1985.36 206.479 1979.71 212.242 Z" fill="#000000" fill-rule="nonzero" fill-opacity="1" /><path clip-path="url(#clip380)" d="M2015.84 184.696 Q2012.23 184.696 2010.4 188.261 Q2008.6 191.803 2008.6 198.932 Q2008.6 206.039 2010.4 209.604 Q2012.23 213.145 2015.84 213.145 Q2019.48 213.145 2021.28 209.604 Q2023.11 206.039 2023.11 198.932 Q2023.11 191.803 2021.28 188.261 Q2019.48 184.696 2015.84 184.696 M2015.84 180.993 Q2021.65 180.993 2024.71 185.599 Q2027.79 190.182 2027.79 198.932 Q2027.79 207.659 2024.71 212.266 Q2021.65 216.849 2015.84 216.849 Q2010.03 216.849 2006.96 212.266 Q2003.9 207.659 2003.9 198.932 Q2003.9 190.182 2006.96 185.599 Q2010.03 180.993 2015.84 180.993 Z" fill="#000000" fill-rule="nonzero" fill-opacity="1" /><path clip-path="url(#clip380)" d="M2046.01 184.696 Q2042.39 184.696 2040.57 188.261 Q2038.76 191.803 2038.76 198.932 Q2038.76 206.039 2040.57 209.604 Q2042.39 213.145 2046.01 213.145 Q2049.64 213.145 2051.45 209.604 Q2053.27 206.039 2053.27 198.932 Q2053.27 191.803 2051.45 188.261 Q2049.64 184.696 2046.01 184.696 M2046.01 180.993 Q2051.82 180.993 2054.87 185.599 Q2057.95 190.182 2057.95 198.932 Q2057.95 207.659 2054.87 212.266 Q2051.82 216.849 2046.01 216.849 Q2040.2 216.849 2037.12 212.266 Q2034.06 207.659 2034.06 198.932 Q2034.06 190.182 2037.12 185.599 Q2040.2 180.993 2046.01 180.993 Z" fill="#000000" fill-rule="nonzero" fill-opacity="1" /><path clip-path="url(#clip380)" d="M2066.98 212.242 L2074.62 212.242 L2074.62 185.877 L2066.31 187.543 L2066.31 183.284 L2074.57 181.618 L2079.25 181.618 L2079.25 212.242 L2086.89 212.242 L2086.89 216.178 L2066.98 216.178 L2066.98 212.242 Z" fill="#000000" fill-rule="nonzero" fill-opacity="1" /><path clip-path="url(#clip380)" d="M2096.82 210.298 L2101.7 210.298 L2101.7 214.279 L2097.9 221.687 L2094.92 221.687 L2096.82 214.279 L2096.82 210.298 Z" fill="#000000" fill-rule="nonzero" fill-opacity="1" /><path clip-path="url(#clip380)" d="M2130.5 212.242 L2146.82 212.242 L2146.82 216.178 L2124.87 216.178 L2124.87 212.242 Q2127.53 209.488 2132.12 204.858 Q2136.72 200.205 2137.9 198.863 Q2140.15 196.34 2141.03 194.604 Q2141.93 192.844 2141.93 191.155 Q2141.93 188.4 2139.99 186.664 Q2138.07 184.928 2134.96 184.928 Q2132.76 184.928 2130.31 185.692 Q2127.88 186.455 2125.1 188.006 L2125.1 183.284 Q2127.93 182.15 2130.38 181.571 Q2132.83 180.993 2134.87 180.993 Q2140.24 180.993 2143.44 183.678 Q2146.63 186.363 2146.63 190.854 Q2146.63 192.983 2145.82 194.905 Q2145.03 196.803 2142.93 199.395 Q2142.35 200.067 2139.25 203.284 Q2136.14 206.479 2130.5 212.242 Z" fill="#000000" fill-rule="nonzero" fill-opacity="1" /><path clip-path="url(#clip380)" d="M2166.63 184.696 Q2163.02 184.696 2161.19 188.261 Q2159.39 191.803 2159.39 198.932 Q2159.39 206.039 2161.19 209.604 Q2163.02 213.145 2166.63 213.145 Q2170.26 213.145 2172.07 209.604 Q2173.9 206.039 2173.9 198.932 Q2173.9 191.803 2172.07 188.261 Q2170.26 184.696 2166.63 184.696 M2166.63 180.993 Q2172.44 180.993 2175.5 185.599 Q2178.57 190.182 2178.57 198.932 Q2178.57 207.659 2175.5 212.266 Q2172.44 216.849 2166.63 216.849 Q2160.82 216.849 2157.74 212.266 Q2154.69 207.659 2154.69 198.932 Q2154.69 190.182 2157.74 185.599 Q2160.82 180.993 2166.63 180.993 Z" fill="#000000" fill-rule="nonzero" fill-opacity="1" /><path clip-path="url(#clip380)" d="M2196.79 184.696 Q2193.18 184.696 2191.35 188.261 Q2189.55 191.803 2189.55 198.932 Q2189.55 206.039 2191.35 209.604 Q2193.18 213.145 2196.79 213.145 Q2200.43 213.145 2202.23 209.604 Q2204.06 206.039 2204.06 198.932 Q2204.06 191.803 2202.23 188.261 Q2200.43 184.696 2196.79 184.696 M2196.79 180.993 Q2202.6 180.993 2205.66 185.599 Q2208.74 190.182 2208.74 198.932 Q2208.74 207.659 2205.66 212.266 Q2202.6 216.849 2196.79 216.849 Q2190.98 216.849 2187.9 212.266 Q2184.85 207.659 2184.85 198.932 Q2184.85 190.182 2187.9 185.599 Q2190.98 180.993 2196.79 180.993 Z" fill="#000000" fill-rule="nonzero" fill-opacity="1" /><path clip-path="url(#clip380)" d="M2220.98 212.242 L2237.3 212.242 L2237.3 216.178 L2215.36 216.178 L2215.36 212.242 Q2218.02 209.488 2222.6 204.858 Q2227.21 200.205 2228.39 198.863 Q2230.63 196.34 2231.51 194.604 Q2232.42 192.844 2232.42 191.155 Q2232.42 188.4 2230.47 186.664 Q2228.55 184.928 2225.45 184.928 Q2223.25 184.928 2220.8 185.692 Q2218.37 186.455 2215.59 188.006 L2215.59 183.284 Q2218.41 182.15 2220.87 181.571 Q2223.32 180.993 2225.36 180.993 Q2230.73 180.993 2233.92 183.678 Q2237.12 186.363 2237.12 190.854 Q2237.12 192.983 2236.31 194.905 Q2235.52 196.803 2233.41 199.395 Q2232.83 200.067 2229.73 203.284 Q2226.63 206.479 2220.98 212.242 Z" fill="#000000" fill-rule="nonzero" fill-opacity="1" /><path clip-path="url(#clip380)" d="M2245.84 180.206 L2249.55 180.206 Q2253.02 185.668 2254.73 190.9 Q2256.47 196.131 2256.47 201.293 Q2256.47 206.479 2254.73 211.733 Q2253.02 216.988 2249.55 222.428 L2245.84 222.428 Q2248.92 217.127 2250.43 211.895 Q2251.95 206.641 2251.95 201.293 Q2251.95 195.946 2250.43 190.738 Q2248.92 185.53 2245.84 180.206 Z" fill="#000000" fill-rule="nonzero" fill-opacity="1" /></svg>
