<?xml version="1.0" encoding="utf-8"?>
<svg xmlns="http://www.w3.org/2000/svg" xmlns:xlink="http://www.w3.org/1999/xlink" width="600" height="400" viewBox="0 0 2400 1600">
<defs>
  <clipPath id="clip270">
    <rect x="0" y="0" width="2400" height="1600"/>
  </clipPath>
</defs>
<path clip-path="url(#clip270)" d="M0 1600 L2400 1600 L2400 0 L0 0  Z" fill="#ffffff" fill-rule="evenodd" fill-opacity="1"/>
<defs>
  <clipPath id="clip271">
    <rect x="480" y="0" width="1681" height="1600"/>
  </clipPath>
</defs>
<path clip-path="url(#clip270)" d="M186.274 1486.45 L2352.76 1486.45 L2352.76 47.2441 L186.274 47.2441  Z" fill="#ffffff" fill-rule="evenodd" fill-opacity="1"/>
<defs>
  <clipPath id="clip272">
    <rect x="186" y="47" width="2167" height="1440"/>
  </clipPath>
</defs>
<polyline clip-path="url(#clip272)" style="stroke:#000000; stroke-linecap:round; stroke-linejoin:round; stroke-width:2; stroke-opacity:0.1; fill:none" points="247.59,1486.45 247.59,47.2441 "/>
<polyline clip-path="url(#clip272)" style="stroke:#000000; stroke-linecap:round; stroke-linejoin:round; stroke-width:2; stroke-opacity:0.1; fill:none" points="1270.92,1486.45 1270.92,47.2441 "/>
<polyline clip-path="url(#clip272)" style="stroke:#000000; stroke-linecap:round; stroke-linejoin:round; stroke-width:2; stroke-opacity:0.1; fill:none" points="2294.24,1486.45 2294.24,47.2441 "/>
<polyline clip-path="url(#clip272)" style="stroke:#000000; stroke-linecap:round; stroke-linejoin:round; stroke-width:2; stroke-opacity:0.1; fill:none" points="186.274,1460.44 2352.76,1460.44 "/>
<polyline clip-path="url(#clip272)" style="stroke:#000000; stroke-linecap:round; stroke-linejoin:round; stroke-width:2; stroke-opacity:0.1; fill:none" points="186.274,1117.13 2352.76,1117.13 "/>
<polyline clip-path="url(#clip272)" style="stroke:#000000; stroke-linecap:round; stroke-linejoin:round; stroke-width:2; stroke-opacity:0.1; fill:none" points="186.274,773.827 2352.76,773.827 "/>
<polyline clip-path="url(#clip272)" style="stroke:#000000; stroke-linecap:round; stroke-linejoin:round; stroke-width:2; stroke-opacity:0.1; fill:none" points="186.274,430.521 2352.76,430.521 "/>
<polyline clip-path="url(#clip272)" style="stroke:#000000; stroke-linecap:round; stroke-linejoin:round; stroke-width:2; stroke-opacity:0.1; fill:none" points="186.274,87.215 2352.76,87.215 "/>
<polyline clip-path="url(#clip270)" style="stroke:#000000; stroke-linecap:round; stroke-linejoin:round; stroke-width:4; stroke-opacity:1; fill:none" points="186.274,1486.45 2352.76,1486.45 "/>
<polyline clip-path="url(#clip270)" style="stroke:#000000; stroke-linecap:round; stroke-linejoin:round; stroke-width:4; stroke-opacity:1; fill:none" points="247.59,1486.45 247.59,1467.55 "/>
<polyline clip-path="url(#clip270)" style="stroke:#000000; stroke-linecap:round; stroke-linejoin:round; stroke-width:4; stroke-opacity:1; fill:none" points="1270.92,1486.45 1270.92,1467.55 "/>
<polyline clip-path="url(#clip270)" style="stroke:#000000; stroke-linecap:round; stroke-linejoin:round; stroke-width:4; stroke-opacity:1; fill:none" points="2294.24,1486.45 2294.24,1467.55 "/>
<path clip-path="url(#clip270)" d="M119.384 1544.91 L135.704 1544.91 L135.704 1548.85 L113.759 1548.85 L113.759 1544.91 Q116.421 1542.16 121.005 1537.53 Q125.611 1532.88 126.792 1531.53 Q129.037 1529.01 129.917 1527.27 Q130.819 1525.51 130.819 1523.82 Q130.819 1521.07 128.875 1519.33 Q126.954 1517.6 123.852 1517.6 Q121.653 1517.6 119.199 1518.36 Q116.768 1519.13 113.991 1520.68 L113.991 1515.95 Q116.815 1514.82 119.268 1514.24 Q121.722 1513.66 123.759 1513.66 Q129.13 1513.66 132.324 1516.35 Q135.518 1519.03 135.518 1523.52 Q135.518 1525.65 134.708 1527.57 Q133.921 1529.47 131.815 1532.07 Q131.236 1532.74 128.134 1535.95 Q125.032 1539.15 119.384 1544.91 Z" fill="#000000" fill-rule="nonzero" fill-opacity="1" /><path clip-path="url(#clip270)" d="M155.518 1517.37 Q151.907 1517.37 150.078 1520.93 Q148.273 1524.47 148.273 1531.6 Q148.273 1538.71 150.078 1542.27 Q151.907 1545.82 155.518 1545.82 Q159.153 1545.82 160.958 1542.27 Q162.787 1538.71 162.787 1531.6 Q162.787 1524.47 160.958 1520.93 Q159.153 1517.37 155.518 1517.37 M155.518 1513.66 Q161.328 1513.66 164.384 1518.27 Q167.463 1522.85 167.463 1531.6 Q167.463 1540.33 164.384 1544.94 Q161.328 1549.52 155.518 1549.52 Q149.708 1549.52 146.629 1544.94 Q143.574 1540.33 143.574 1531.6 Q143.574 1522.85 146.629 1518.27 Q149.708 1513.66 155.518 1513.66 Z" fill="#000000" fill-rule="nonzero" fill-opacity="1" /><path clip-path="url(#clip270)" d="M185.68 1517.37 Q182.069 1517.37 180.24 1520.93 Q178.435 1524.47 178.435 1531.6 Q178.435 1538.71 180.24 1542.27 Q182.069 1545.82 185.68 1545.82 Q189.314 1545.82 191.12 1542.27 Q192.949 1538.71 192.949 1531.6 Q192.949 1524.47 191.12 1520.93 Q189.314 1517.37 185.68 1517.37 M185.68 1513.66 Q191.49 1513.66 194.546 1518.27 Q197.625 1522.85 197.625 1531.6 Q197.625 1540.33 194.546 1544.94 Q191.49 1549.52 185.68 1549.52 Q179.87 1549.52 176.791 1544.94 Q173.736 1540.33 173.736 1531.6 Q173.736 1522.85 176.791 1518.27 Q179.87 1513.66 185.68 1513.66 Z" fill="#000000" fill-rule="nonzero" fill-opacity="1" /><path clip-path="url(#clip270)" d="M206.652 1544.91 L214.291 1544.91 L214.291 1518.55 L205.981 1520.21 L205.981 1515.95 L214.245 1514.29 L218.921 1514.29 L218.921 1544.91 L226.56 1544.91 L226.56 1548.85 L206.652 1548.85 L206.652 1544.91 Z" fill="#000000" fill-rule="nonzero" fill-opacity="1" /><path clip-path="url(#clip270)" d="M233.249 1533.96 L245.726 1533.96 L245.726 1537.76 L233.249 1537.76 L233.249 1533.96 Z" fill="#000000" fill-rule="nonzero" fill-opacity="1" /><path clip-path="url(#clip270)" d="M263.11 1517.37 Q259.499 1517.37 257.67 1520.93 Q255.865 1524.47 255.865 1531.6 Q255.865 1538.71 257.67 1542.27 Q259.499 1545.82 263.11 1545.82 Q266.745 1545.82 268.55 1542.27 Q270.379 1538.71 270.379 1531.6 Q270.379 1524.47 268.55 1520.93 Q266.745 1517.37 263.11 1517.37 M263.11 1513.66 Q268.92 1513.66 271.976 1518.27 Q275.055 1522.85 275.055 1531.6 Q275.055 1540.33 271.976 1544.94 Q268.92 1549.52 263.11 1549.52 Q257.3 1549.52 254.221 1544.94 Q251.166 1540.33 251.166 1531.6 Q251.166 1522.85 254.221 1518.27 Q257.3 1513.66 263.11 1513.66 Z" fill="#000000" fill-rule="nonzero" fill-opacity="1" /><path clip-path="url(#clip270)" d="M284.082 1544.91 L291.721 1544.91 L291.721 1518.55 L283.411 1520.21 L283.411 1515.95 L291.675 1514.29 L296.351 1514.29 L296.351 1544.91 L303.99 1544.91 L303.99 1548.85 L284.082 1548.85 L284.082 1544.91 Z" fill="#000000" fill-rule="nonzero" fill-opacity="1" /><path clip-path="url(#clip270)" d="M310.679 1533.96 L323.156 1533.96 L323.156 1537.76 L310.679 1537.76 L310.679 1533.96 Z" fill="#000000" fill-rule="nonzero" fill-opacity="1" /><path clip-path="url(#clip270)" d="M340.54 1517.37 Q336.929 1517.37 335.101 1520.93 Q333.295 1524.47 333.295 1531.6 Q333.295 1538.71 335.101 1542.27 Q336.929 1545.82 340.54 1545.82 Q344.175 1545.82 345.98 1542.27 Q347.809 1538.71 347.809 1531.6 Q347.809 1524.47 345.98 1520.93 Q344.175 1517.37 340.54 1517.37 M340.54 1513.66 Q346.351 1513.66 349.406 1518.27 Q352.485 1522.85 352.485 1531.6 Q352.485 1540.33 349.406 1544.94 Q346.351 1549.52 340.54 1549.52 Q334.73 1549.52 331.652 1544.94 Q328.596 1540.33 328.596 1531.6 Q328.596 1522.85 331.652 1518.27 Q334.73 1513.66 340.54 1513.66 Z" fill="#000000" fill-rule="nonzero" fill-opacity="1" /><path clip-path="url(#clip270)" d="M361.513 1544.91 L369.151 1544.91 L369.151 1518.55 L360.841 1520.21 L360.841 1515.95 L369.105 1514.29 L373.781 1514.29 L373.781 1544.91 L381.42 1544.91 L381.42 1548.85 L361.513 1548.85 L361.513 1544.91 Z" fill="#000000" fill-rule="nonzero" fill-opacity="1" /><path clip-path="url(#clip270)" d="M1142.71 1544.91 L1159.03 1544.91 L1159.03 1548.85 L1137.09 1548.85 L1137.09 1544.91 Q1139.75 1542.16 1144.33 1537.53 Q1148.94 1532.88 1150.12 1531.53 Q1152.36 1529.01 1153.24 1527.27 Q1154.15 1525.51 1154.15 1523.82 Q1154.15 1521.07 1152.2 1519.33 Q1150.28 1517.6 1147.18 1517.6 Q1144.98 1517.6 1142.53 1518.36 Q1140.1 1519.13 1137.32 1520.68 L1137.32 1515.95 Q1140.14 1514.82 1142.6 1514.24 Q1145.05 1513.66 1147.09 1513.66 Q1152.46 1513.66 1155.65 1516.35 Q1158.85 1519.03 1158.85 1523.52 Q1158.85 1525.65 1158.04 1527.57 Q1157.25 1529.47 1155.14 1532.07 Q1154.56 1532.74 1151.46 1535.95 Q1148.36 1539.15 1142.71 1544.91 Z" fill="#000000" fill-rule="nonzero" fill-opacity="1" /><path clip-path="url(#clip270)" d="M1178.85 1517.37 Q1175.23 1517.37 1173.41 1520.93 Q1171.6 1524.47 1171.6 1531.6 Q1171.6 1538.71 1173.41 1542.27 Q1175.23 1545.82 1178.85 1545.82 Q1182.48 1545.82 1184.29 1542.27 Q1186.11 1538.71 1186.11 1531.6 Q1186.11 1524.47 1184.29 1520.93 Q1182.48 1517.37 1178.85 1517.37 M1178.85 1513.66 Q1184.66 1513.66 1187.71 1518.27 Q1190.79 1522.85 1190.79 1531.6 Q1190.79 1540.33 1187.71 1544.94 Q1184.66 1549.52 1178.85 1549.52 Q1173.04 1549.52 1169.96 1544.94 Q1166.9 1540.33 1166.9 1531.6 Q1166.9 1522.85 1169.96 1518.27 Q1173.04 1513.66 1178.85 1513.66 Z" fill="#000000" fill-rule="nonzero" fill-opacity="1" /><path clip-path="url(#clip270)" d="M1209.01 1517.37 Q1205.4 1517.37 1203.57 1520.93 Q1201.76 1524.47 1201.76 1531.6 Q1201.76 1538.71 1203.57 1542.27 Q1205.4 1545.82 1209.01 1545.82 Q1212.64 1545.82 1214.45 1542.27 Q1216.28 1538.71 1216.28 1531.6 Q1216.28 1524.47 1214.45 1520.93 Q1212.64 1517.37 1209.01 1517.37 M1209.01 1513.66 Q1214.82 1513.66 1217.87 1518.27 Q1220.95 1522.85 1220.95 1531.6 Q1220.95 1540.33 1217.87 1544.94 Q1214.82 1549.52 1209.01 1549.52 Q1203.2 1549.52 1200.12 1544.94 Q1197.06 1540.33 1197.06 1531.6 Q1197.06 1522.85 1200.12 1518.27 Q1203.2 1513.66 1209.01 1513.66 Z" fill="#000000" fill-rule="nonzero" fill-opacity="1" /><path clip-path="url(#clip270)" d="M1233.2 1544.91 L1249.52 1544.91 L1249.52 1548.85 L1227.57 1548.85 L1227.57 1544.91 Q1230.23 1542.16 1234.82 1537.53 Q1239.42 1532.88 1240.6 1531.53 Q1242.85 1529.01 1243.73 1527.27 Q1244.63 1525.51 1244.63 1523.82 Q1244.63 1521.07 1242.69 1519.33 Q1240.77 1517.6 1237.66 1517.6 Q1235.47 1517.6 1233.01 1518.36 Q1230.58 1519.13 1227.8 1520.68 L1227.8 1515.95 Q1230.63 1514.82 1233.08 1514.24 Q1235.54 1513.66 1237.57 1513.66 Q1242.94 1513.66 1246.14 1516.35 Q1249.33 1519.03 1249.33 1523.52 Q1249.33 1525.65 1248.52 1527.57 Q1247.73 1529.47 1245.63 1532.07 Q1245.05 1532.74 1241.95 1535.95 Q1238.85 1539.15 1233.2 1544.91 Z" fill="#000000" fill-rule="nonzero" fill-opacity="1" /><path clip-path="url(#clip270)" d="M1256.58 1533.96 L1269.05 1533.96 L1269.05 1537.76 L1256.58 1537.76 L1256.58 1533.96 Z" fill="#000000" fill-rule="nonzero" fill-opacity="1" /><path clip-path="url(#clip270)" d="M1286.44 1517.37 Q1282.83 1517.37 1281 1520.93 Q1279.19 1524.47 1279.19 1531.6 Q1279.19 1538.71 1281 1542.27 Q1282.83 1545.82 1286.44 1545.82 Q1290.07 1545.82 1291.88 1542.27 Q1293.71 1538.71 1293.71 1531.6 Q1293.71 1524.47 1291.88 1520.93 Q1290.07 1517.37 1286.44 1517.37 M1286.44 1513.66 Q1292.25 1513.66 1295.3 1518.27 Q1298.38 1522.85 1298.38 1531.6 Q1298.38 1540.33 1295.3 1544.94 Q1292.25 1549.52 1286.44 1549.52 Q1280.63 1549.52 1277.55 1544.94 Q1274.49 1540.33 1274.49 1531.6 Q1274.49 1522.85 1277.55 1518.27 Q1280.63 1513.66 1286.44 1513.66 Z" fill="#000000" fill-rule="nonzero" fill-opacity="1" /><path clip-path="url(#clip270)" d="M1307.41 1544.91 L1315.05 1544.91 L1315.05 1518.55 L1306.74 1520.21 L1306.74 1515.95 L1315 1514.29 L1319.68 1514.29 L1319.68 1544.91 L1327.32 1544.91 L1327.32 1548.85 L1307.41 1548.85 L1307.41 1544.91 Z" fill="#000000" fill-rule="nonzero" fill-opacity="1" /><path clip-path="url(#clip270)" d="M1334.01 1533.96 L1346.48 1533.96 L1346.48 1537.76 L1334.01 1537.76 L1334.01 1533.96 Z" fill="#000000" fill-rule="nonzero" fill-opacity="1" /><path clip-path="url(#clip270)" d="M1363.87 1517.37 Q1360.26 1517.37 1358.43 1520.93 Q1356.62 1524.47 1356.62 1531.6 Q1356.62 1538.71 1358.43 1542.27 Q1360.26 1545.82 1363.87 1545.82 Q1367.5 1545.82 1369.31 1542.27 Q1371.14 1538.71 1371.14 1531.6 Q1371.14 1524.47 1369.31 1520.93 Q1367.5 1517.37 1363.87 1517.37 M1363.87 1513.66 Q1369.68 1513.66 1372.73 1518.27 Q1375.81 1522.85 1375.81 1531.6 Q1375.81 1540.33 1372.73 1544.94 Q1369.68 1549.52 1363.87 1549.52 Q1358.06 1549.52 1354.98 1544.94 Q1351.92 1540.33 1351.92 1531.6 Q1351.92 1522.85 1354.98 1518.27 Q1358.06 1513.66 1363.87 1513.66 Z" fill="#000000" fill-rule="nonzero" fill-opacity="1" /><path clip-path="url(#clip270)" d="M1384.84 1544.91 L1392.48 1544.91 L1392.48 1518.55 L1384.17 1520.21 L1384.17 1515.95 L1392.43 1514.29 L1397.11 1514.29 L1397.11 1544.91 L1404.75 1544.91 L1404.75 1548.85 L1384.84 1548.85 L1384.84 1544.91 Z" fill="#000000" fill-rule="nonzero" fill-opacity="1" /><path clip-path="url(#clip270)" d="M2166.04 1544.91 L2182.36 1544.91 L2182.36 1548.85 L2160.41 1548.85 L2160.41 1544.91 Q2163.08 1542.16 2167.66 1537.53 Q2172.27 1532.88 2173.45 1531.53 Q2175.69 1529.01 2176.57 1527.27 Q2177.47 1525.51 2177.47 1523.82 Q2177.47 1521.07 2175.53 1519.33 Q2173.61 1517.6 2170.51 1517.6 Q2168.31 1517.6 2165.85 1518.36 Q2163.42 1519.13 2160.65 1520.68 L2160.65 1515.95 Q2163.47 1514.82 2165.92 1514.24 Q2168.38 1513.66 2170.41 1513.66 Q2175.78 1513.66 2178.98 1516.35 Q2182.17 1519.03 2182.17 1523.52 Q2182.17 1525.65 2181.36 1527.57 Q2180.58 1529.47 2178.47 1532.07 Q2177.89 1532.74 2174.79 1535.95 Q2171.69 1539.15 2166.04 1544.91 Z" fill="#000000" fill-rule="nonzero" fill-opacity="1" /><path clip-path="url(#clip270)" d="M2202.17 1517.37 Q2198.56 1517.37 2196.73 1520.93 Q2194.93 1524.47 2194.93 1531.6 Q2194.93 1538.71 2196.73 1542.27 Q2198.56 1545.82 2202.17 1545.82 Q2205.81 1545.82 2207.61 1542.27 Q2209.44 1538.71 2209.44 1531.6 Q2209.44 1524.47 2207.61 1520.93 Q2205.81 1517.37 2202.17 1517.37 M2202.17 1513.66 Q2207.98 1513.66 2211.04 1518.27 Q2214.12 1522.85 2214.12 1531.6 Q2214.12 1540.33 2211.04 1544.94 Q2207.98 1549.52 2202.17 1549.52 Q2196.36 1549.52 2193.28 1544.94 Q2190.23 1540.33 2190.23 1531.6 Q2190.23 1522.85 2193.28 1518.27 Q2196.36 1513.66 2202.17 1513.66 Z" fill="#000000" fill-rule="nonzero" fill-opacity="1" /><path clip-path="url(#clip270)" d="M2232.33 1517.37 Q2228.72 1517.37 2226.89 1520.93 Q2225.09 1524.47 2225.09 1531.6 Q2225.09 1538.71 2226.89 1542.27 Q2228.72 1545.82 2232.33 1545.82 Q2235.97 1545.82 2237.77 1542.27 Q2239.6 1538.71 2239.6 1531.6 Q2239.6 1524.47 2237.77 1520.93 Q2235.97 1517.37 2232.33 1517.37 M2232.33 1513.66 Q2238.14 1513.66 2241.2 1518.27 Q2244.28 1522.85 2244.28 1531.6 Q2244.28 1540.33 2241.2 1544.94 Q2238.14 1549.52 2232.33 1549.52 Q2226.52 1549.52 2223.45 1544.94 Q2220.39 1540.33 2220.39 1531.6 Q2220.39 1522.85 2223.45 1518.27 Q2226.52 1513.66 2232.33 1513.66 Z" fill="#000000" fill-rule="nonzero" fill-opacity="1" /><path clip-path="url(#clip270)" d="M2266.66 1530.21 Q2270.02 1530.93 2271.89 1533.2 Q2273.79 1535.47 2273.79 1538.8 Q2273.79 1543.92 2270.27 1546.72 Q2266.76 1549.52 2260.27 1549.52 Q2258.1 1549.52 2255.78 1549.08 Q2253.49 1548.66 2251.04 1547.81 L2251.04 1543.29 Q2252.98 1544.43 2255.3 1545.01 Q2257.61 1545.58 2260.14 1545.58 Q2264.53 1545.58 2266.83 1543.85 Q2269.14 1542.11 2269.14 1538.8 Q2269.14 1535.75 2266.99 1534.03 Q2264.86 1532.3 2261.04 1532.3 L2257.01 1532.3 L2257.01 1528.45 L2261.22 1528.45 Q2264.67 1528.45 2266.5 1527.09 Q2268.33 1525.7 2268.33 1523.11 Q2268.33 1520.45 2266.43 1519.03 Q2264.56 1517.6 2261.04 1517.6 Q2259.12 1517.6 2256.92 1518.01 Q2254.72 1518.43 2252.08 1519.31 L2252.08 1515.14 Q2254.74 1514.4 2257.06 1514.03 Q2259.39 1513.66 2261.45 1513.66 Q2266.78 1513.66 2269.88 1516.09 Q2272.98 1518.5 2272.98 1522.62 Q2272.98 1525.49 2271.34 1527.48 Q2269.7 1529.45 2266.66 1530.21 Z" fill="#000000" fill-rule="nonzero" fill-opacity="1" /><path clip-path="url(#clip270)" d="M2279.9 1533.96 L2292.38 1533.96 L2292.38 1537.76 L2279.9 1537.76 L2279.9 1533.96 Z" fill="#000000" fill-rule="nonzero" fill-opacity="1" /><path clip-path="url(#clip270)" d="M2309.76 1517.37 Q2306.15 1517.37 2304.32 1520.93 Q2302.52 1524.47 2302.52 1531.6 Q2302.52 1538.71 2304.32 1542.27 Q2306.15 1545.82 2309.76 1545.82 Q2313.4 1545.82 2315.2 1542.27 Q2317.03 1538.71 2317.03 1531.6 Q2317.03 1524.47 2315.2 1520.93 Q2313.4 1517.37 2309.76 1517.37 M2309.76 1513.66 Q2315.57 1513.66 2318.63 1518.27 Q2321.71 1522.85 2321.71 1531.6 Q2321.71 1540.33 2318.63 1544.94 Q2315.57 1549.52 2309.76 1549.52 Q2303.95 1549.52 2300.88 1544.94 Q2297.82 1540.33 2297.82 1531.6 Q2297.82 1522.85 2300.88 1518.27 Q2303.95 1513.66 2309.76 1513.66 Z" fill="#000000" fill-rule="nonzero" fill-opacity="1" /><path clip-path="url(#clip270)" d="M2330.74 1544.91 L2338.38 1544.91 L2338.38 1518.55 L2330.07 1520.21 L2330.07 1515.95 L2338.33 1514.29 L2343.01 1514.29 L2343.01 1544.91 L2350.64 1544.91 L2350.64 1548.85 L2330.74 1548.85 L2330.74 1544.91 Z" fill="#000000" fill-rule="nonzero" fill-opacity="1" /><path clip-path="url(#clip270)" d="M2357.33 1533.96 L2369.81 1533.96 L2369.81 1537.76 L2357.33 1537.76 L2357.33 1533.96 Z" fill="#000000" fill-rule="nonzero" fill-opacity="1" /><path clip-path="url(#clip270)" d="M2387.19 1517.37 Q2383.58 1517.37 2381.76 1520.93 Q2379.95 1524.47 2379.95 1531.6 Q2379.95 1538.71 2381.76 1542.27 Q2383.58 1545.82 2387.19 1545.82 Q2390.83 1545.82 2392.63 1542.27 Q2394.46 1538.71 2394.46 1531.6 Q2394.46 1524.47 2392.63 1520.93 Q2390.83 1517.37 2387.19 1517.37 M2387.19 1513.66 Q2393.01 1513.66 2396.06 1518.27 Q2399.14 1522.85 2399.14 1531.6 Q2399.14 1540.33 2396.06 1544.94 Q2393.01 1549.52 2387.19 1549.52 Q2381.38 1549.52 2378.31 1544.94 Q2375.25 1540.33 2375.25 1531.6 Q2375.25 1522.85 2378.31 1518.27 Q2381.38 1513.66 2387.19 1513.66 Z" fill="#000000" fill-rule="nonzero" fill-opacity="1" /><path clip-path="url(#clip270)" d="M2408.17 1544.91 L2415.81 1544.91 L2415.81 1518.55 L2407.5 1520.21 L2407.5 1515.95 L2415.76 1514.29 L2420.44 1514.29 L2420.44 1544.91 L2428.07 1544.91 L2428.07 1548.85 L2408.17 1548.85 L2408.17 1544.91 Z" fill="#000000" fill-rule="nonzero" fill-opacity="1" /><polyline clip-path="url(#clip270)" style="stroke:#000000; stroke-linecap:round; stroke-linejoin:round; stroke-width:4; stroke-opacity:1; fill:none" points="186.274,1486.45 186.274,47.2441 "/>
<polyline clip-path="url(#clip270)" style="stroke:#000000; stroke-linecap:round; stroke-linejoin:round; stroke-width:4; stroke-opacity:1; fill:none" points="186.274,1460.44 205.172,1460.44 "/>
<polyline clip-path="url(#clip270)" style="stroke:#000000; stroke-linecap:round; stroke-linejoin:round; stroke-width:4; stroke-opacity:1; fill:none" points="186.274,1117.13 205.172,1117.13 "/>
<polyline clip-path="url(#clip270)" style="stroke:#000000; stroke-linecap:round; stroke-linejoin:round; stroke-width:4; stroke-opacity:1; fill:none" points="186.274,773.827 205.172,773.827 "/>
<polyline clip-path="url(#clip270)" style="stroke:#000000; stroke-linecap:round; stroke-linejoin:round; stroke-width:4; stroke-opacity:1; fill:none" points="186.274,430.521 205.172,430.521 "/>
<polyline clip-path="url(#clip270)" style="stroke:#000000; stroke-linecap:round; stroke-linejoin:round; stroke-width:4; stroke-opacity:1; fill:none" points="186.274,87.215 205.172,87.215 "/>
<path clip-path="url(#clip270)" d="M62.9365 1446.24 Q59.3254 1446.24 57.4967 1449.8 Q55.6912 1453.34 55.6912 1460.47 Q55.6912 1467.58 57.4967 1471.14 Q59.3254 1474.69 62.9365 1474.69 Q66.5707 1474.69 68.3763 1471.14 Q70.205 1467.58 70.205 1460.47 Q70.205 1453.34 68.3763 1449.8 Q66.5707 1446.24 62.9365 1446.24 M62.9365 1442.53 Q68.7467 1442.53 71.8022 1447.14 Q74.8809 1451.72 74.8809 1460.47 Q74.8809 1469.2 71.8022 1473.81 Q68.7467 1478.39 62.9365 1478.39 Q57.1264 1478.39 54.0477 1473.81 Q50.9921 1469.2 50.9921 1460.47 Q50.9921 1451.72 54.0477 1447.14 Q57.1264 1442.53 62.9365 1442.53 Z" fill="#000000" fill-rule="nonzero" fill-opacity="1" /><path clip-path="url(#clip270)" d="M83.0984 1471.84 L87.9827 1471.84 L87.9827 1477.72 L83.0984 1477.72 L83.0984 1471.84 Z" fill="#000000" fill-rule="nonzero" fill-opacity="1" /><path clip-path="url(#clip270)" d="M108.168 1446.24 Q104.557 1446.24 102.728 1449.8 Q100.922 1453.34 100.922 1460.47 Q100.922 1467.58 102.728 1471.14 Q104.557 1474.69 108.168 1474.69 Q111.802 1474.69 113.608 1471.14 Q115.436 1467.58 115.436 1460.47 Q115.436 1453.34 113.608 1449.8 Q111.802 1446.24 108.168 1446.24 M108.168 1442.53 Q113.978 1442.53 117.033 1447.14 Q120.112 1451.72 120.112 1460.47 Q120.112 1469.2 117.033 1473.81 Q113.978 1478.39 108.168 1478.39 Q102.358 1478.39 99.2789 1473.81 Q96.2234 1469.2 96.2234 1460.47 Q96.2234 1451.72 99.2789 1447.14 Q102.358 1442.53 108.168 1442.53 Z" fill="#000000" fill-rule="nonzero" fill-opacity="1" /><path clip-path="url(#clip270)" d="M138.33 1446.24 Q134.719 1446.24 132.89 1449.8 Q131.084 1453.34 131.084 1460.47 Q131.084 1467.58 132.89 1471.14 Q134.719 1474.69 138.33 1474.69 Q141.964 1474.69 143.769 1471.14 Q145.598 1467.58 145.598 1460.47 Q145.598 1453.34 143.769 1449.8 Q141.964 1446.24 138.33 1446.24 M138.33 1442.53 Q144.14 1442.53 147.195 1447.14 Q150.274 1451.72 150.274 1460.47 Q150.274 1469.2 147.195 1473.81 Q144.14 1478.39 138.33 1478.39 Q132.519 1478.39 129.441 1473.81 Q126.385 1469.2 126.385 1460.47 Q126.385 1451.72 129.441 1447.14 Q132.519 1442.53 138.33 1442.53 Z" fill="#000000" fill-rule="nonzero" fill-opacity="1" /><path clip-path="url(#clip270)" d="M63.9319 1102.93 Q60.3208 1102.93 58.4921 1106.5 Q56.6865 1110.04 56.6865 1117.17 Q56.6865 1124.27 58.4921 1127.84 Q60.3208 1131.38 63.9319 1131.38 Q67.5661 1131.38 69.3717 1127.84 Q71.2004 1124.27 71.2004 1117.17 Q71.2004 1110.04 69.3717 1106.5 Q67.5661 1102.93 63.9319 1102.93 M63.9319 1099.23 Q69.742 1099.23 72.7976 1103.83 Q75.8763 1108.42 75.8763 1117.17 Q75.8763 1125.89 72.7976 1130.5 Q69.742 1135.08 63.9319 1135.08 Q58.1217 1135.08 55.043 1130.5 Q51.9875 1125.89 51.9875 1117.17 Q51.9875 1108.42 55.043 1103.83 Q58.1217 1099.23 63.9319 1099.23 Z" fill="#000000" fill-rule="nonzero" fill-opacity="1" /><path clip-path="url(#clip270)" d="M84.0938 1128.53 L88.978 1128.53 L88.978 1134.41 L84.0938 1134.41 L84.0938 1128.53 Z" fill="#000000" fill-rule="nonzero" fill-opacity="1" /><path clip-path="url(#clip270)" d="M103.191 1130.48 L119.51 1130.48 L119.51 1134.41 L97.566 1134.41 L97.566 1130.48 Q100.228 1127.72 104.811 1123.09 Q109.418 1118.44 110.598 1117.1 Q112.844 1114.57 113.723 1112.84 Q114.626 1111.08 114.626 1109.39 Q114.626 1106.63 112.682 1104.9 Q110.76 1103.16 107.658 1103.16 Q105.459 1103.16 103.006 1103.93 Q100.575 1104.69 97.7974 1106.24 L97.7974 1101.52 Q100.621 1100.38 103.075 1099.81 Q105.529 1099.23 107.566 1099.23 Q112.936 1099.23 116.131 1101.91 Q119.325 1104.6 119.325 1109.09 Q119.325 1111.22 118.515 1113.14 Q117.728 1115.04 115.621 1117.63 Q115.043 1118.3 111.941 1121.52 Q108.839 1124.71 103.191 1130.48 Z" fill="#000000" fill-rule="nonzero" fill-opacity="1" /><path clip-path="url(#clip270)" d="M129.371 1099.85 L147.728 1099.85 L147.728 1103.79 L133.654 1103.79 L133.654 1112.26 Q134.672 1111.91 135.691 1111.75 Q136.709 1111.57 137.728 1111.57 Q143.515 1111.57 146.894 1114.74 Q150.274 1117.91 150.274 1123.32 Q150.274 1128.9 146.802 1132 Q143.33 1135.08 137.01 1135.08 Q134.834 1135.08 132.566 1134.71 Q130.32 1134.34 127.913 1133.6 L127.913 1128.9 Q129.996 1130.04 132.219 1130.59 Q134.441 1131.15 136.918 1131.15 Q140.922 1131.15 143.26 1129.04 Q145.598 1126.94 145.598 1123.32 Q145.598 1119.71 143.26 1117.61 Q140.922 1115.5 136.918 1115.5 Q135.043 1115.5 133.168 1115.92 Q131.316 1116.33 129.371 1117.21 L129.371 1099.85 Z" fill="#000000" fill-rule="nonzero" fill-opacity="1" /><path clip-path="url(#clip270)" d="M62.9365 759.625 Q59.3254 759.625 57.4967 763.19 Q55.6912 766.732 55.6912 773.861 Q55.6912 780.968 57.4967 784.533 Q59.3254 788.074 62.9365 788.074 Q66.5707 788.074 68.3763 784.533 Q70.205 780.968 70.205 773.861 Q70.205 766.732 68.3763 763.19 Q66.5707 759.625 62.9365 759.625 M62.9365 755.922 Q68.7467 755.922 71.8022 760.528 Q74.8809 765.111 74.8809 773.861 Q74.8809 782.588 71.8022 787.195 Q68.7467 791.778 62.9365 791.778 Q57.1264 791.778 54.0477 787.195 Q50.9921 782.588 50.9921 773.861 Q50.9921 765.111 54.0477 760.528 Q57.1264 755.922 62.9365 755.922 Z" fill="#000000" fill-rule="nonzero" fill-opacity="1" /><path clip-path="url(#clip270)" d="M83.0984 785.227 L87.9827 785.227 L87.9827 791.107 L83.0984 791.107 L83.0984 785.227 Z" fill="#000000" fill-rule="nonzero" fill-opacity="1" /><path clip-path="url(#clip270)" d="M98.2141 756.547 L116.57 756.547 L116.57 760.482 L102.496 760.482 L102.496 768.954 Q103.515 768.607 104.534 768.445 Q105.552 768.259 106.571 768.259 Q112.358 768.259 115.737 771.431 Q119.117 774.602 119.117 780.019 Q119.117 785.597 115.645 788.699 Q112.172 791.778 105.853 791.778 Q103.677 791.778 101.409 791.407 Q99.1632 791.037 96.7558 790.296 L96.7558 785.597 Q98.8391 786.732 101.061 787.287 Q103.284 787.843 105.76 787.843 Q109.765 787.843 112.103 785.736 Q114.441 783.63 114.441 780.019 Q114.441 776.408 112.103 774.301 Q109.765 772.195 105.76 772.195 Q103.885 772.195 102.01 772.611 Q100.159 773.028 98.2141 773.908 L98.2141 756.547 Z" fill="#000000" fill-rule="nonzero" fill-opacity="1" /><path clip-path="url(#clip270)" d="M138.33 759.625 Q134.719 759.625 132.89 763.19 Q131.084 766.732 131.084 773.861 Q131.084 780.968 132.89 784.533 Q134.719 788.074 138.33 788.074 Q141.964 788.074 143.769 784.533 Q145.598 780.968 145.598 773.861 Q145.598 766.732 143.769 763.19 Q141.964 759.625 138.33 759.625 M138.33 755.922 Q144.14 755.922 147.195 760.528 Q150.274 765.111 150.274 773.861 Q150.274 782.588 147.195 787.195 Q144.14 791.778 138.33 791.778 Q132.519 791.778 129.441 787.195 Q126.385 782.588 126.385 773.861 Q126.385 765.111 129.441 760.528 Q132.519 755.922 138.33 755.922 Z" fill="#000000" fill-rule="nonzero" fill-opacity="1" /><path clip-path="url(#clip270)" d="M63.9319 416.319 Q60.3208 416.319 58.4921 419.884 Q56.6865 423.426 56.6865 430.556 Q56.6865 437.662 58.4921 441.227 Q60.3208 444.768 63.9319 444.768 Q67.5661 444.768 69.3717 441.227 Q71.2004 437.662 71.2004 430.556 Q71.2004 423.426 69.3717 419.884 Q67.5661 416.319 63.9319 416.319 M63.9319 412.616 Q69.742 412.616 72.7976 417.222 Q75.8763 421.806 75.8763 430.556 Q75.8763 439.282 72.7976 443.889 Q69.742 448.472 63.9319 448.472 Q58.1217 448.472 55.043 443.889 Q51.9875 439.282 51.9875 430.556 Q51.9875 421.806 55.043 417.222 Q58.1217 412.616 63.9319 412.616 Z" fill="#000000" fill-rule="nonzero" fill-opacity="1" /><path clip-path="url(#clip270)" d="M84.0938 441.921 L88.978 441.921 L88.978 447.801 L84.0938 447.801 L84.0938 441.921 Z" fill="#000000" fill-rule="nonzero" fill-opacity="1" /><path clip-path="url(#clip270)" d="M97.9826 413.241 L120.205 413.241 L120.205 415.232 L107.658 447.801 L102.774 447.801 L114.58 417.176 L97.9826 417.176 L97.9826 413.241 Z" fill="#000000" fill-rule="nonzero" fill-opacity="1" /><path clip-path="url(#clip270)" d="M129.371 413.241 L147.728 413.241 L147.728 417.176 L133.654 417.176 L133.654 425.648 Q134.672 425.301 135.691 425.139 Q136.709 424.954 137.728 424.954 Q143.515 424.954 146.894 428.125 Q150.274 431.296 150.274 436.713 Q150.274 442.292 146.802 445.393 Q143.33 448.472 137.01 448.472 Q134.834 448.472 132.566 448.102 Q130.32 447.731 127.913 446.991 L127.913 442.292 Q129.996 443.426 132.219 443.981 Q134.441 444.537 136.918 444.537 Q140.922 444.537 143.26 442.43 Q145.598 440.324 145.598 436.713 Q145.598 433.102 143.26 430.995 Q140.922 428.889 136.918 428.889 Q135.043 428.889 133.168 429.306 Q131.316 429.722 129.371 430.602 L129.371 413.241 Z" fill="#000000" fill-rule="nonzero" fill-opacity="1" /><path clip-path="url(#clip270)" d="M53.7467 100.56 L61.3856 100.56 L61.3856 74.1943 L53.0754 75.8609 L53.0754 71.6017 L61.3393 69.935 L66.0152 69.935 L66.0152 100.56 L73.654 100.56 L73.654 104.495 L53.7467 104.495 L53.7467 100.56 Z" fill="#000000" fill-rule="nonzero" fill-opacity="1" /><path clip-path="url(#clip270)" d="M83.0984 98.6154 L87.9827 98.6154 L87.9827 104.495 L83.0984 104.495 L83.0984 98.6154 Z" fill="#000000" fill-rule="nonzero" fill-opacity="1" /><path clip-path="url(#clip270)" d="M108.168 73.0137 Q104.557 73.0137 102.728 76.5785 Q100.922 80.1202 100.922 87.2497 Q100.922 94.3562 102.728 97.921 Q104.557 101.463 108.168 101.463 Q111.802 101.463 113.608 97.921 Q115.436 94.3562 115.436 87.2497 Q115.436 80.1202 113.608 76.5785 Q111.802 73.0137 108.168 73.0137 M108.168 69.31 Q113.978 69.31 117.033 73.9165 Q120.112 78.4998 120.112 87.2497 Q120.112 95.9766 117.033 100.583 Q113.978 105.166 108.168 105.166 Q102.358 105.166 99.2789 100.583 Q96.2234 95.9766 96.2234 87.2497 Q96.2234 78.4998 99.2789 73.9165 Q102.358 69.31 108.168 69.31 Z" fill="#000000" fill-rule="nonzero" fill-opacity="1" /><path clip-path="url(#clip270)" d="M138.33 73.0137 Q134.719 73.0137 132.89 76.5785 Q131.084 80.1202 131.084 87.2497 Q131.084 94.3562 132.89 97.921 Q134.719 101.463 138.33 101.463 Q141.964 101.463 143.769 97.921 Q145.598 94.3562 145.598 87.2497 Q145.598 80.1202 143.769 76.5785 Q141.964 73.0137 138.33 73.0137 M138.33 69.31 Q144.14 69.31 147.195 73.9165 Q150.274 78.4998 150.274 87.2497 Q150.274 95.9766 147.195 100.583 Q144.14 105.166 138.33 105.166 Q132.519 105.166 129.441 100.583 Q126.385 95.9766 126.385 87.2497 Q126.385 78.4998 129.441 73.9165 Q132.519 69.31 138.33 69.31 Z" fill="#000000" fill-rule="nonzero" fill-opacity="1" /><polyline clip-path="url(#clip272)" style="stroke:#009af9; stroke-linecap:round; stroke-linejoin:round; stroke-width:4; stroke-opacity:1; fill:none" points="247.59,967.58 250.393,967.58 250.393,1265.52 253.197,1265.52 253.197,193.602 256,193.602 256,445.667 258.804,445.667 258.804,1379.6 261.608,1379.6 261.608,381.348 264.411,381.348 264.411,1414.31 267.215,1414.31 267.215,560.38 270.019,560.38 270.019,1397.31 272.822,1397.31 272.822,628.131 275.626,628.131 275.626,351.488 278.43,351.488 278.43,443.198 281.233,443.198 281.233,133.537 284.037,133.537 284.037,1084.76 286.84,1084.76 286.84,284.59 289.644,284.59 289.644,1228.05 292.448,1228.05 292.448,467.563 295.251,467.563 295.251,135.297 298.055,135.297 298.055,508.543 300.859,508.543 300.859,574.342 303.662,574.342 303.662,615.167 306.466,615.167 306.466,678.969 309.27,678.969 309.27,1022.53 312.073,1022.53 312.073,383.037 314.877,383.037 314.877,845.341 317.68,845.341 317.68,1058.28 320.484,1058.28 320.484,250.739 323.288,250.739 323.288,946.567 326.091,946.567 326.091,1024.72 328.895,1024.72 328.895,1325.57 331.699,1325.57 331.699,214.929 334.502,214.929 334.502,452.265 337.306,452.265 337.306,528.37 340.11,528.37 340.11,1437.37 342.913,1437.37 342.913,1239.84 345.717,1239.84 345.717,438.516 348.52,438.516 348.52,195.546 351.324,195.546 351.324,1345.77 354.128,1345.77 354.128,596.707 356.931,596.707 356.931,867.465 359.735,867.465 359.735,339.476 362.539,339.476 362.539,801.539 365.342,801.539 365.342,1150.54 368.146,1150.54 368.146,831.21 370.95,831.21 370.95,712.606 373.753,712.606 373.753,547.084 376.557,547.084 376.557,935.451 379.36,935.451 379.36,561.435 382.164,561.435 382.164,1442.31 384.968,1442.31 384.968,903.089 387.771,903.089 387.771,134.752 390.575,134.752 390.575,690.105 393.379,690.105 393.379,505.444 396.182,505.444 396.182,1296.58 398.986,1296.58 398.986,1341.62 401.79,1341.62 401.79,1401.05 404.593,1401.05 404.593,958.214 407.397,958.214 407.397,413.864 410.2,413.864 410.2,1407.82 413.004,1407.82 413.004,1425.43 415.808,1425.43 415.808,1340.41 418.611,1340.41 418.611,1334.78 421.415,1334.78 421.415,508.295 424.219,508.295 424.219,164.722 427.022,164.722 427.022,699.614 429.826,699.614 429.826,1122.67 432.63,1122.67 432.63,659.005 435.433,659.005 435.433,643.647 438.237,643.647 438.237,475.143 441.04,475.143 441.04,856.113 443.844,856.113 443.844,467.672 446.648,467.672 446.648,1203.6 449.451,1203.6 449.451,619.599 452.255,619.599 452.255,1056.84 455.059,1056.84 455.059,1383.37 457.862,1383.37 457.862,773.537 460.666,773.537 460.666,1317.34 463.47,1317.34 463.47,996.344 466.273,996.344 466.273,1429.44 469.077,1429.44 469.077,190.06 471.88,190.06 471.88,434.827 474.684,434.827 474.684,1161.53 477.488,1161.53 477.488,1244.01 480.291,1244.01 480.291,273.276 483.095,273.276 483.095,169.672 485.899,169.672 485.899,794.883 488.702,794.883 488.702,336.98 491.506,336.98 491.506,721.711 494.31,721.711 494.31,1279.11 497.113,1279.11 497.113,314.17 499.917,314.17 499.917,645.271 502.72,645.271 502.72,146.298 505.524,146.298 505.524,1246.74 508.328,1246.74 508.328,861.859 511.131,861.859 511.131,1024.5 513.935,1024.5 513.935,747.864 516.739,747.864 516.739,1335.13 519.542,1335.13 519.542,782.971 522.346,782.971 522.346,1396.54 525.15,1396.54 525.15,595.854 527.953,595.854 527.953,1344.03 530.757,1344.03 530.757,456.245 533.56,456.245 533.56,798.794 536.364,798.794 536.364,432.922 539.168,432.922 539.168,303.617 541.971,303.617 541.971,1338.09 544.775,1338.09 544.775,1398.3 547.579,1398.3 547.579,820.688 550.382,820.688 550.382,179.163 553.186,179.163 553.186,586.797 555.99,586.797 555.99,592.59 558.793,592.59 558.793,883.346 561.597,883.346 561.597,843.467 564.4,843.467 564.4,722.045 567.204,722.045 567.204,442.061 570.008,442.061 570.008,596.51 572.811,596.51 572.811,518.722 575.615,518.722 575.615,162.706 578.419,162.706 578.419,161.233 581.222,161.233 581.222,628.185 584.026,628.185 584.026,1095.52 586.83,1095.52 586.83,172.605 589.633,172.605 589.633,806.087 592.437,806.087 592.437,504.844 595.24,504.844 595.24,234.289 598.044,234.289 598.044,971.156 600.848,971.156 600.848,776.217 603.651,776.217 603.651,310.154 606.455,310.154 606.455,1238.1 609.259,1238.1 609.259,679.508 612.062,679.508 612.062,693.716 614.866,693.716 614.866,911.324 617.67,911.324 617.67,652.333 620.473,652.333 620.473,789.954 623.277,789.954 623.277,337.265 626.08,337.265 626.08,1263.47 628.884,1263.47 628.884,375.191 631.688,375.191 631.688,1135.59 634.491,1135.59 634.491,1301.81 637.295,1301.81 637.295,1347.85 640.099,1347.85 640.099,314.591 642.902,314.591 642.902,1189.32 645.706,1189.32 645.706,589.425 648.51,589.425 648.51,1055.68 651.313,1055.68 651.313,544.783 654.117,544.783 654.117,149.877 656.92,149.877 656.92,402.187 659.724,402.187 659.724,990.318 662.528,990.318 662.528,1228.4 665.331,1228.4 665.331,1282.23 668.135,1282.23 668.135,1412.31 670.939,1412.31 670.939,128.38 673.742,128.38 673.742,1075.04 676.546,1075.04 676.546,103.544 679.35,103.544 679.35,218.971 682.153,218.971 682.153,152.804 684.957,152.804 684.957,394.45 687.76,394.45 687.76,1265.73 690.564,1265.73 690.564,632.307 693.368,632.307 693.368,1397.5 696.171,1397.5 696.171,225.925 698.975,225.925 698.975,1213.64 701.779,1213.64 701.779,854.512 704.582,854.512 704.582,1260.39 707.386,1260.39 707.386,151.963 710.19,151.963 710.19,540.835 712.993,540.835 712.993,1266.66 715.797,1266.66 715.797,1002.66 718.6,1002.66 718.6,353.975 721.404,353.975 721.404,485.244 724.208,485.244 724.208,459.793 727.011,459.793 727.011,772.947 729.815,772.947 729.815,1101.64 732.619,1101.64 732.619,913.914 735.422,913.914 735.422,458.991 738.226,458.991 738.226,385.405 741.03,385.405 741.03,220.695 743.833,220.695 743.833,1425.77 746.637,1425.77 746.637,510.502 749.44,510.502 749.44,125.538 752.244,125.538 752.244,1232.39 755.048,1232.39 755.048,325.15 757.851,325.15 757.851,651.822 760.655,651.822 760.655,490.845 763.459,490.845 763.459,92.5934 766.262,92.5934 766.262,107.69 769.066,107.69 769.066,462.075 771.87,462.075 771.87,867.136 774.673,867.136 774.673,488.678 777.477,488.678 777.477,1278 780.28,1278 780.28,636.411 783.084,636.411 783.084,669.93 785.888,669.93 785.888,944.612 788.691,944.612 788.691,1141.28 791.495,1141.28 791.495,1285.99 794.299,1285.99 794.299,443.191 797.102,443.191 797.102,1270.68 799.906,1270.68 799.906,273.971 802.71,273.971 802.71,245.856 805.513,245.856 805.513,725.634 808.317,725.634 808.317,136.523 811.12,136.523 811.12,503.453 813.924,503.453 813.924,855.34 816.728,855.34 816.728,608.213 819.531,608.213 819.531,1441.16 822.335,1441.16 822.335,1251.74 825.139,1251.74 825.139,1304.35 827.942,1304.35 827.942,820.336 830.746,820.336 830.746,638.328 833.55,638.328 833.55,395.839 836.353,395.839 836.353,787.03 839.157,787.03 839.157,403.356 841.96,403.356 841.96,1051.02 844.764,1051.02 844.764,849.516 847.568,849.516 847.568,275.857 850.371,275.857 850.371,1087 853.175,1087 853.175,504.403 855.979,504.403 855.979,770.74 858.782,770.74 858.782,1239.22 861.586,1239.22 861.586,970.784 864.39,970.784 864.39,167.737 867.193,167.737 867.193,344.105 869.997,344.105 869.997,656.199 872.8,656.199 872.8,133.861 875.604,133.861 875.604,969.839 878.408,969.839 878.408,757.14 881.211,757.14 881.211,891.795 884.015,891.795 884.015,1105.69 886.819,1105.69 886.819,959.606 889.622,959.606 889.622,346.821 892.426,346.821 892.426,178.72 895.23,178.72 895.23,1188.27 898.033,1188.27 898.033,549.047 900.837,549.047 900.837,1300.87 903.64,1300.87 903.64,1123.67 906.444,1123.67 906.444,572.245 909.248,572.245 909.248,422.002 912.051,422.002 912.051,309.641 914.855,309.641 914.855,332.783 917.659,332.783 917.659,328.331 920.462,328.331 920.462,1330.61 923.266,1330.61 923.266,816.271 926.07,816.271 926.07,855.799 928.873,855.799 928.873,1365.59 931.677,1365.59 931.677,649.889 934.48,649.889 934.48,771.74 937.284,771.74 937.284,1152.19 940.088,1152.19 940.088,1363.95 942.891,1363.95 942.891,896.715 945.695,896.715 945.695,1185.28 948.499,1185.28 948.499,1177.21 951.302,1177.21 951.302,934.144 954.106,934.144 954.106,798.228 956.91,798.228 956.91,97.0476 959.713,97.0476 959.713,565.875 962.517,565.875 962.517,345.839 965.32,345.839 965.32,1152.57 968.124,1152.57 968.124,1004.5 970.928,1004.5 970.928,1190.61 973.731,1190.61 973.731,534.442 976.535,534.442 976.535,199.012 979.339,199.012 979.339,633.587 982.142,633.587 982.142,1272.07 984.946,1272.07 984.946,1113.21 987.75,1113.21 987.75,333.816 990.553,333.816 990.553,392.381 993.357,392.381 993.357,900.455 996.16,900.455 996.16,130.367 998.964,130.367 998.964,999.617 1001.77,999.617 1001.77,920.518 1004.57,920.518 1004.57,448.837 1007.37,448.837 1007.37,1011.17 1010.18,1011.17 1010.18,118.129 1012.98,118.129 1012.98,653.1 1015.79,653.1 1015.79,367.737 1018.59,367.737 1018.59,1018.25 1021.39,1018.25 1021.39,101.917 1024.2,101.917 1024.2,926.374 1027,926.374 1027,461.18 1029.8,461.18 1029.8,382.279 1032.61,382.279 1032.61,1034.83 1035.41,1034.83 1035.41,375.305 1038.21,375.305 1038.21,453.32 1041.02,453.32 1041.02,87.9763 1043.82,87.9763 1043.82,140.602 1046.63,140.602 1046.63,1065.27 1049.43,1065.27 1049.43,603.52 1052.23,603.52 1052.23,1284.5 1055.04,1284.5 1055.04,1096.58 1057.84,1096.58 1057.84,992.698 1060.64,992.698 1060.64,1445.72 1063.45,1445.72 1063.45,1255.72 1066.25,1255.72 1066.25,1289.54 1069.05,1289.54 1069.05,786.398 1071.86,786.398 1071.86,1258.15 1074.66,1258.15 1074.66,153.223 1077.47,153.223 1077.47,565.273 1080.27,565.273 1080.27,334.04 1083.07,334.04 1083.07,1420.09 1085.88,1420.09 1085.88,1090.65 1088.68,1090.65 1088.68,895.154 1091.48,895.154 1091.48,792.106 1094.29,792.106 1094.29,1214.49 1097.09,1214.49 1097.09,537.965 1099.89,537.965 1099.89,1271.44 1102.7,1271.44 1102.7,677.813 1105.5,677.813 1105.5,505.465 1108.31,505.465 1108.31,530.884 1111.11,530.884 1111.11,1225.37 1113.91,1225.37 1113.91,1253.47 1116.72,1253.47 1116.72,1397.66 1119.52,1397.66 1119.52,633.004 1122.32,633.004 1122.32,1370.01 1125.13,1370.01 1125.13,1137.82 1127.93,1137.82 1127.93,1273.7 1130.73,1273.7 1130.73,891.602 1133.54,891.602 1133.54,538.158 1136.34,538.158 1136.34,265.305 1139.15,265.305 1139.15,884.407 1141.95,884.407 1141.95,1279.65 1144.75,1279.65 1144.75,794.079 1147.56,794.079 1147.56,912.026 1150.36,912.026 1150.36,359.001 1153.16,359.001 1153.16,735.238 1155.97,735.238 1155.97,225.104 1158.77,225.104 1158.77,294.003 1161.57,294.003 1161.57,456.384 1164.38,456.384 1164.38,876.652 1167.18,876.652 1167.18,1106.87 1169.99,1106.87 1169.99,413.356 1172.79,413.356 1172.79,159.943 1175.59,159.943 1175.59,1442.37 1178.4,1442.37 1178.4,1020.4 1181.2,1020.4 1181.2,594.976 1184,594.976 1184,836.143 1186.81,836.143 1186.81,812.702 1189.61,812.702 1189.61,1236.37 1192.41,1236.37 1192.41,196.638 1195.22,196.638 1195.22,862.117 1198.02,862.117 1198.02,811.777 1200.83,811.777 1200.83,181.312 1203.63,181.312 1203.63,139.292 1206.43,139.292 1206.43,1300.95 1209.24,1300.95 1209.24,1141.08 1212.04,1141.08 1212.04,1075.74 1214.84,1075.74 1214.84,694.284 1217.65,694.284 1217.65,522.59 1220.45,522.59 1220.45,928.001 1223.25,928.001 1223.25,1280.2 1226.06,1280.2 1226.06,1294.57 1228.86,1294.57 1228.86,499.243 1231.67,499.243 1231.67,1363.94 1234.47,1363.94 1234.47,678.611 1237.27,678.611 1237.27,1197.69 1240.08,1197.69 1240.08,556.303 1242.88,556.303 1242.88,543.462 1245.68,543.462 1245.68,994.483 1248.49,994.483 1248.49,725.014 1251.29,725.014 1251.29,991.279 1254.09,991.279 1254.09,435.72 1256.9,435.72 1256.9,1093.65 1259.7,1093.65 1259.7,603.293 1262.51,603.293 1262.51,1379.95 1265.31,1379.95 1265.31,880.191 1268.11,880.191 1268.11,656.189 1270.92,656.189 1270.92,1246.91 1273.72,1246.91 1273.72,624.93 1276.52,624.93 1276.52,524.843 1279.33,524.843 1279.33,1259.26 1282.13,1259.26 1282.13,789.807 1284.93,789.807 1284.93,952.621 1287.74,952.621 1287.74,674.013 1290.54,674.013 1290.54,242.821 1293.35,242.821 1293.35,527.498 1296.15,527.498 1296.15,386.885 1298.95,386.885 1298.95,1111.18 1301.76,1111.18 1301.76,791.743 1304.56,791.743 1304.56,1334.33 1307.36,1334.33 1307.36,1278.06 1310.17,1278.06 1310.17,1230.72 1312.97,1230.72 1312.97,249.06 1315.77,249.06 1315.77,1157.77 1318.58,1157.77 1318.58,488.828 1321.38,488.828 1321.38,846.905 1324.19,846.905 1324.19,843.507 1326.99,843.507 1326.99,1075.96 1329.79,1075.96 1329.79,189.387 1332.6,189.387 1332.6,1190.59 1335.4,1190.59 1335.4,1008.52 1338.2,1008.52 1338.2,1132.7 1341.01,1132.7 1341.01,748.934 1343.81,748.934 1343.81,277.186 1346.61,277.186 1346.61,353.328 1349.42,353.328 1349.42,403.36 1352.22,403.36 1352.22,963.257 1355.03,963.257 1355.03,1103.44 1357.83,1103.44 1357.83,1348.48 1360.63,1348.48 1360.63,282.011 1363.44,282.011 1363.44,841.757 1366.24,841.757 1366.24,1324.89 1369.04,1324.89 1369.04,847.4 1371.85,847.4 1371.85,1386.12 1374.65,1386.12 1374.65,1108.76 1377.45,1108.76 1377.45,112.566 1380.26,112.566 1380.26,432.703 1383.06,432.703 1383.06,1164.36 1385.87,1164.36 1385.87,477.572 1388.67,477.572 1388.67,1388.07 1391.47,1388.07 1391.47,272.225 1394.28,272.225 1394.28,204.842 1397.08,204.842 1397.08,543.545 1399.88,543.545 1399.88,92.7301 1402.69,92.7301 1402.69,1391.43 1405.49,1391.43 1405.49,1303.85 1408.29,1303.85 1408.29,1310.05 1411.1,1310.05 1411.1,368.688 1413.9,368.688 1413.9,663.679 1416.71,663.679 1416.71,931.654 1419.51,931.654 1419.51,464.329 1422.31,464.329 1422.31,786.904 1425.12,786.904 1425.12,834.433 1427.92,834.433 1427.92,547.422 1430.72,547.422 1430.72,1331.73 1433.53,1331.73 1433.53,123.611 1436.33,123.611 1436.33,1202.21 1439.13,1202.21 1439.13,1435.78 1441.94,1435.78 1441.94,1329.06 1444.74,1329.06 1444.74,708.786 1447.55,708.786 1447.55,221.072 1450.35,221.072 1450.35,227.486 1453.15,227.486 1453.15,1135.16 1455.96,1135.16 1455.96,1066.28 1458.76,1066.28 1458.76,499.064 1461.56,499.064 1461.56,795.74 1464.37,795.74 1464.37,670.055 1467.17,670.055 1467.17,723.927 1469.97,723.927 1469.97,578.982 1472.78,578.982 1472.78,883.632 1475.58,883.632 1475.58,545.307 1478.39,545.307 1478.39,220.048 1481.19,220.048 1481.19,747.656 1483.99,747.656 1483.99,956.936 1486.8,956.936 1486.8,1256.48 1489.6,1256.48 1489.6,902.398 1492.4,902.398 1492.4,1200.62 1495.21,1200.62 1495.21,818.086 1498.01,818.086 1498.01,894.524 1500.81,894.524 1500.81,541.529 1503.62,541.529 1503.62,1078.49 1506.42,1078.49 1506.42,1225.14 1509.23,1225.14 1509.23,715.244 1512.03,715.244 1512.03,341.583 1514.83,341.583 1514.83,319.284 1517.64,319.284 1517.64,113.142 1520.44,113.142 1520.44,924.715 1523.24,924.715 1523.24,1331.4 1526.05,1331.4 1526.05,621.586 1528.85,621.586 1528.85,577.087 1531.65,577.087 1531.65,953.172 1534.46,953.172 1534.46,251.633 1537.26,251.633 1537.26,716.152 1540.07,716.152 1540.07,1328.1 1542.87,1328.1 1542.87,691.135 1545.67,691.135 1545.67,1016.92 1548.48,1016.92 1548.48,253.859 1551.28,253.859 1551.28,401.913 1554.08,401.913 1554.08,1383.67 1556.89,1383.67 1556.89,1071.11 1559.69,1071.11 1559.69,856.133 1562.49,856.133 1562.49,1220.52 1565.3,1220.52 1565.3,962.408 1568.1,962.408 1568.1,220.876 1570.91,220.876 1570.91,539.483 1573.71,539.483 1573.71,278.515 1576.51,278.515 1576.51,813.936 1579.32,813.936 1579.32,1234.63 1582.12,1234.63 1582.12,616.669 1584.92,616.669 1584.92,408.79 1587.73,408.79 1587.73,606.782 1590.53,606.782 1590.53,731.298 1593.33,731.298 1593.33,1183.2 1596.14,1183.2 1596.14,939.613 1598.94,939.613 1598.94,1403.7 1601.75,1403.7 1601.75,810.277 1604.55,810.277 1604.55,490.56 1607.35,490.56 1607.35,1173.9 1610.16,1173.9 1610.16,910.793 1612.96,910.793 1612.96,224.137 1615.76,224.137 1615.76,469.163 1618.57,469.163 1618.57,1024.65 1621.37,1024.65 1621.37,440.979 1624.17,440.979 1624.17,1362.16 1626.98,1362.16 1626.98,1168.96 1629.78,1168.96 1629.78,1330.91 1632.59,1330.91 1632.59,1405.03 1635.39,1405.03 1635.39,286.008 1638.19,286.008 1638.19,925.485 1641,925.485 1641,1177.76 1643.8,1177.76 1643.8,270.989 1646.6,270.989 1646.6,260.44 1649.41,260.44 1649.41,436.726 1652.21,436.726 1652.21,143.601 1655.01,143.601 1655.01,485.89 1657.82,485.89 1657.82,639.967 1660.62,639.967 1660.62,1445.32 1663.43,1445.32 1663.43,1421.27 1666.23,1421.27 1666.23,1183.46 1669.03,1183.46 1669.03,385.481 1671.84,385.481 1671.84,632.999 1674.64,632.999 1674.64,99.2113 1677.44,99.2113 1677.44,123.784 1680.25,123.784 1680.25,1020.89 1683.05,1020.89 1683.05,1031.76 1685.85,1031.76 1685.85,1106.73 1688.66,1106.73 1688.66,278.285 1691.46,278.285 1691.46,392.611 1694.27,392.611 1694.27,426.45 1697.07,426.45 1697.07,324.017 1699.87,324.017 1699.87,1174.72 1702.68,1174.72 1702.68,1246.36 1705.48,1246.36 1705.48,194.13 1708.28,194.13 1708.28,623.942 1711.09,623.942 1711.09,672.922 1713.89,672.922 1713.89,1047.84 1716.69,1047.84 1716.69,243.85 1719.5,243.85 1719.5,1378.07 1722.3,1378.07 1722.3,893.62 1725.11,893.62 1725.11,343.251 1727.91,343.251 1727.91,449.356 1730.71,449.356 1730.71,314.757 1733.52,314.757 1733.52,1188.34 1736.32,1188.34 1736.32,412.647 1739.12,412.647 1739.12,761.223 1741.93,761.223 1741.93,1182.47 1744.73,1182.47 1744.73,281.28 1747.53,281.28 1747.53,1300.25 1750.34,1300.25 1750.34,784.436 1753.14,784.436 1753.14,862.575 1755.95,862.575 1755.95,143.667 1758.75,143.667 1758.75,199.056 1761.55,199.056 1761.55,489.87 1764.36,489.87 1764.36,1084.66 1767.16,1084.66 1767.16,304.931 1769.96,304.931 1769.96,1390.92 1772.77,1390.92 1772.77,434.274 1775.57,434.274 1775.57,394.774 1778.37,394.774 1778.37,672.512 1781.18,672.512 1781.18,949.681 1783.98,949.681 1783.98,131.324 1786.79,131.324 1786.79,791.092 1789.59,791.092 1789.59,641.109 1792.39,641.109 1792.39,392.286 1795.2,392.286 1795.2,1102.08 1798,1102.08 1798,275.053 1800.8,275.053 1800.8,911.225 1803.61,911.225 1803.61,1414.81 1806.41,1414.81 1806.41,1277.02 1809.21,1277.02 1809.21,382.048 1812.02,382.048 1812.02,479.615 1814.82,479.615 1814.82,883.636 1817.63,883.636 1817.63,1374.81 1820.43,1374.81 1820.43,852.793 1823.23,852.793 1823.23,1010.86 1826.04,1010.86 1826.04,784.515 1828.84,784.515 1828.84,856.447 1831.64,856.447 1831.64,954.188 1834.45,954.188 1834.45,1426.56 1837.25,1426.56 1837.25,365.194 1840.05,365.194 1840.05,812.181 1842.86,812.181 1842.86,436.166 1845.66,436.166 1845.66,908.71 1848.47,908.71 1848.47,429.544 1851.27,429.544 1851.27,1296.93 1854.07,1296.93 1854.07,637.104 1856.88,637.104 1856.88,1221.85 1859.68,1221.85 1859.68,695.536 1862.48,695.536 1862.48,1347.5 1865.29,1347.5 1865.29,1189.93 1868.09,1189.93 1868.09,1074.57 1870.89,1074.57 1870.89,419.619 1873.7,419.619 1873.7,1310.82 1876.5,1310.82 1876.5,950.416 1879.31,950.416 1879.31,1029.38 1882.11,1029.38 1882.11,1422.8 1884.91,1422.8 1884.91,713.363 1887.72,713.363 1887.72,988.106 1890.52,988.106 1890.52,1322.09 1893.32,1322.09 1893.32,650.597 1896.13,650.597 1896.13,1348.52 1898.93,1348.52 1898.93,117.836 1901.73,117.836 1901.73,332.109 1904.54,332.109 1904.54,1008.17 1907.34,1008.17 1907.34,888.257 1910.15,888.257 1910.15,225.923 1912.95,225.923 1912.95,1207.67 1915.75,1207.67 1915.75,296.914 1918.56,296.914 1918.56,773.931 1921.36,773.931 1921.36,966.534 1924.16,966.534 1924.16,1319 1926.97,1319 1926.97,844.258 1929.77,844.258 1929.77,215.781 1932.57,215.781 1932.57,1127.41 1935.38,1127.41 1935.38,989.32 1938.18,989.32 1938.18,706.415 1940.99,706.415 1940.99,599.459 1943.79,599.459 1943.79,782.767 1946.59,782.767 1946.59,734.808 1949.4,734.808 1949.4,1063.83 1952.2,1063.83 1952.2,1177.89 1955,1177.89 1955,420.93 1957.81,420.93 1957.81,1114.49 1960.61,1114.49 1960.61,1390.5 1963.41,1390.5 1963.41,915.073 1966.22,915.073 1966.22,1021.01 1969.02,1021.01 1969.02,861.313 1971.83,861.313 1971.83,189.612 1974.63,189.612 1974.63,550.238 1977.43,550.238 1977.43,923.594 1980.24,923.594 1980.24,245.681 1983.04,245.681 1983.04,823.141 1985.84,823.141 1985.84,868.326 1988.65,868.326 1988.65,138.141 1991.45,138.141 1991.45,1437.73 1994.25,1437.73 1994.25,1122.78 1997.06,1122.78 1997.06,751.438 1999.86,751.438 1999.86,276.506 2002.67,276.506 2002.67,1414.01 2005.47,1414.01 2005.47,1351.46 2008.27,1351.46 2008.27,1137.21 2011.08,1137.21 2011.08,409.423 2013.88,409.423 2013.88,782.717 2016.68,782.717 2016.68,771.216 2019.49,771.216 2019.49,519.292 2022.29,519.292 2022.29,526.453 2025.09,526.453 2025.09,610.222 2027.9,610.222 2027.9,736.58 2030.7,736.58 2030.7,989.259 2033.51,989.259 2033.51,1406.15 2036.31,1406.15 2036.31,733.983 2039.11,733.983 2039.11,272.579 2041.92,272.579 2041.92,325.664 2044.72,325.664 2044.72,630.127 2047.52,630.127 2047.52,448.681 2050.33,448.681 2050.33,346.535 2053.13,346.535 2053.13,813.72 2055.93,813.72 2055.93,176.34 2058.74,176.34 2058.74,997.904 2061.54,997.904 2061.54,1143.47 2064.35,1143.47 2064.35,788.312 2067.15,788.312 2067.15,231.536 2069.95,231.536 2069.95,1216.4 2072.76,1216.4 2072.76,954.964 2075.56,954.964 2075.56,140.463 2078.36,140.463 2078.36,112.928 2081.17,112.928 2081.17,170.972 2083.97,170.972 2083.97,443.672 2086.77,443.672 2086.77,1294.3 2089.58,1294.3 2089.58,96.5742 2092.38,96.5742 2092.38,555.394 2095.19,555.394 2095.19,476.549 2097.99,476.549 2097.99,727.243 2100.79,727.243 2100.79,187.223 2103.6,187.223 2103.6,373.11 2106.4,373.11 2106.4,634.483 2109.2,634.483 2109.2,583.092 2112.01,583.092 2112.01,494.885 2114.81,494.885 2114.81,1310.79 2117.61,1310.79 2117.61,586.831 2120.42,586.831 2120.42,1137.59 2123.22,1137.59 2123.22,570.956 2126.03,570.956 2126.03,388.641 2128.83,388.641 2128.83,1232.9 2131.63,1232.9 2131.63,800.421 2134.44,800.421 2134.44,1246.92 2137.24,1246.92 2137.24,993.991 2140.04,993.991 2140.04,593.354 2142.85,593.354 2142.85,128.152 2145.65,128.152 2145.65,1135.47 2148.45,1135.47 2148.45,1350.12 2151.26,1350.12 2151.26,578.319 2154.06,578.319 2154.06,1358.66 2156.87,1358.66 2156.87,424.682 2159.67,424.682 2159.67,480.457 2162.47,480.457 2162.47,289.524 2165.28,289.524 2165.28,1154.56 2168.08,1154.56 2168.08,255.466 2170.88,255.466 2170.88,807.461 2173.69,807.461 2173.69,374.735 2176.49,374.735 2176.49,500.338 2179.29,500.338 2179.29,583.397 2182.1,583.397 2182.1,1439.23 2184.9,1439.23 2184.9,1292.54 2187.71,1292.54 2187.71,358.437 2190.51,358.437 2190.51,587.051 2193.31,587.051 2193.31,720.594 2196.12,720.594 2196.12,1389.1 2198.92,1389.1 2198.92,1148.82 2201.72,1148.82 2201.72,793.48 2204.53,793.48 2204.53,1341.84 2207.33,1341.84 2207.33,409.123 2210.13,409.123 2210.13,1140.44 2212.94,1140.44 2212.94,503.417 2215.74,503.417 2215.74,843.775 2218.55,843.775 2218.55,1428.43 2221.35,1428.43 2221.35,825.848 2224.15,825.848 2224.15,374.492 2226.96,374.492 2226.96,715.325 2229.76,715.325 2229.76,973.776 2232.56,973.776 2232.56,1375.73 2235.37,1375.73 2235.37,139.925 2238.17,139.925 2238.17,316.574 2240.97,316.574 2240.97,617.937 2243.78,617.937 2243.78,315.186 2246.58,315.186 2246.58,444.735 2249.39,444.735 2249.39,1103.42 2252.19,1103.42 2252.19,798.438 2254.99,798.438 2254.99,756.832 2257.8,756.832 2257.8,730.795 2260.6,730.795 2260.6,1043.83 2263.4,1043.83 2263.4,289.598 2266.21,289.598 2266.21,478.264 2269.01,478.264 2269.01,1354.8 2271.81,1354.8 2271.81,507.357 2274.62,507.357 2274.62,1373.94 2277.42,1373.94 2277.42,384.278 2280.23,384.278 2280.23,518.716 2283.03,518.716 2283.03,769.466 2285.83,769.466 2285.83,1356.07 2288.64,1356.07 2288.64,130.605 2291.44,130.605 2291.44,844.322 "/>
<polyline clip-path="url(#clip272)" style="stroke:#e26f46; stroke-linecap:round; stroke-linejoin:round; stroke-width:4; stroke-opacity:1; fill:none" points="247.59,967.58 250.393,967.58 250.393,1265.52 253.197,1265.52 253.197,193.602 256,193.602 256,445.667 258.804,445.667 258.804,1379.6 261.608,1379.6 261.608,381.348 264.411,381.348 264.411,1414.31 267.215,1414.31 267.215,560.38 270.019,560.38 270.019,1397.31 272.822,1397.31 272.822,628.131 275.626,628.131 275.626,351.488 278.43,351.488 278.43,443.198 281.233,443.198 281.233,133.537 284.037,133.537 284.037,1084.76 286.84,1084.76 286.84,284.59 289.644,284.59 289.644,1228.05 292.448,1228.05 292.448,467.563 295.251,467.563 295.251,135.297 298.055,135.297 298.055,508.543 300.859,508.543 300.859,574.342 303.662,574.342 303.662,615.167 306.466,615.167 306.466,678.969 309.27,678.969 309.27,1022.53 312.073,1022.53 312.073,383.037 314.877,383.037 314.877,845.341 317.68,845.341 317.68,1058.28 320.484,1058.28 320.484,250.739 323.288,250.739 323.288,946.567 326.091,946.567 326.091,1024.72 328.895,1024.72 328.895,1325.57 331.699,1325.57 331.699,214.929 334.502,214.929 334.502,452.265 337.306,452.265 337.306,528.37 340.11,528.37 340.11,1437.37 342.913,1437.37 342.913,1239.84 345.717,1239.84 345.717,438.516 348.52,438.516 348.52,195.546 351.324,195.546 351.324,1345.77 354.128,1345.77 354.128,596.707 356.931,596.707 356.931,867.465 359.735,867.465 359.735,339.476 362.539,339.476 362.539,801.539 365.342,801.539 365.342,1150.54 368.146,1150.54 368.146,831.21 370.95,831.21 370.95,712.606 373.753,712.606 373.753,547.084 376.557,547.084 376.557,935.451 379.36,935.451 379.36,561.435 382.164,561.435 382.164,1442.31 384.968,1442.31 384.968,903.089 387.771,903.089 387.771,134.752 390.575,134.752 390.575,690.105 393.379,690.105 393.379,505.444 396.182,505.444 396.182,1296.58 398.986,1296.58 398.986,1341.62 401.79,1341.62 401.79,1401.05 404.593,1401.05 404.593,958.214 407.397,958.214 407.397,413.864 410.2,413.864 410.2,1407.82 413.004,1407.82 413.004,1425.43 415.808,1425.43 415.808,1340.41 418.611,1340.41 418.611,1334.78 421.415,1334.78 421.415,508.295 424.219,508.295 424.219,164.722 427.022,164.722 427.022,699.614 429.826,699.614 429.826,1122.67 432.63,1122.67 432.63,659.005 435.433,659.005 435.433,643.647 438.237,643.647 438.237,475.143 441.04,475.143 441.04,856.113 443.844,856.113 443.844,467.672 446.648,467.672 446.648,1203.6 449.451,1203.6 449.451,619.599 452.255,619.599 452.255,1056.84 455.059,1056.84 455.059,1383.37 457.862,1383.37 457.862,773.537 460.666,773.537 460.666,1317.34 463.47,1317.34 463.47,996.344 466.273,996.344 466.273,1429.44 469.077,1429.44 469.077,190.06 471.88,190.06 471.88,434.827 474.684,434.827 474.684,1161.53 477.488,1161.53 477.488,1244.01 480.291,1244.01 480.291,273.276 483.095,273.276 483.095,169.672 485.899,169.672 485.899,794.883 488.702,794.883 488.702,336.98 491.506,336.98 491.506,721.711 494.31,721.711 494.31,1279.11 497.113,1279.11 497.113,314.17 499.917,314.17 499.917,645.271 502.72,645.271 502.72,146.298 505.524,146.298 505.524,1246.74 508.328,1246.74 508.328,861.859 511.131,861.859 511.131,1024.5 513.935,1024.5 513.935,747.864 516.739,747.864 516.739,1335.13 519.542,1335.13 519.542,782.971 522.346,782.971 522.346,1396.54 525.15,1396.54 525.15,595.854 527.953,595.854 527.953,1344.03 530.757,1344.03 530.757,456.245 533.56,456.245 533.56,798.794 536.364,798.794 536.364,432.922 539.168,432.922 539.168,303.617 541.971,303.617 541.971,1338.09 544.775,1338.09 544.775,1398.3 547.579,1398.3 547.579,820.688 550.382,820.688 550.382,179.163 553.186,179.163 553.186,586.797 555.99,586.797 555.99,592.59 558.793,592.59 558.793,883.346 561.597,883.346 561.597,843.467 564.4,843.467 564.4,722.045 567.204,722.045 567.204,442.061 570.008,442.061 570.008,596.51 572.811,596.51 572.811,518.722 575.615,518.722 575.615,162.706 578.419,162.706 578.419,161.233 581.222,161.233 581.222,628.185 584.026,628.185 584.026,1095.52 586.83,1095.52 586.83,172.605 589.633,172.605 589.633,806.087 592.437,806.087 592.437,504.844 595.24,504.844 595.24,234.289 598.044,234.289 598.044,971.156 600.848,971.156 600.848,776.217 603.651,776.217 603.651,310.154 606.455,310.154 606.455,1238.1 609.259,1238.1 609.259,679.508 612.062,679.508 612.062,693.716 614.866,693.716 614.866,911.324 617.67,911.324 617.67,652.333 620.473,652.333 620.473,789.954 623.277,789.954 623.277,337.265 626.08,337.265 626.08,1263.47 628.884,1263.47 628.884,375.191 631.688,375.191 631.688,1135.59 634.491,1135.59 634.491,1301.81 637.295,1301.81 637.295,1347.85 640.099,1347.85 640.099,314.591 642.902,314.591 642.902,1189.32 645.706,1189.32 645.706,589.425 648.51,589.425 648.51,1055.68 651.313,1055.68 651.313,544.783 654.117,544.783 654.117,149.877 656.92,149.877 656.92,402.187 659.724,402.187 659.724,990.318 662.528,990.318 662.528,1228.4 665.331,1228.4 665.331,1282.23 668.135,1282.23 668.135,1412.31 670.939,1412.31 670.939,128.38 673.742,128.38 673.742,1075.04 676.546,1075.04 676.546,103.544 679.35,103.544 679.35,218.971 682.153,218.971 682.153,152.804 684.957,152.804 684.957,394.45 687.76,394.45 687.76,1265.73 690.564,1265.73 690.564,632.307 693.368,632.307 693.368,1397.5 696.171,1397.5 696.171,225.925 698.975,225.925 698.975,1213.64 701.779,1213.64 701.779,854.512 704.582,854.512 704.582,1260.39 707.386,1260.39 707.386,151.963 710.19,151.963 710.19,540.835 712.993,540.835 712.993,1266.66 715.797,1266.66 715.797,1002.66 718.6,1002.66 718.6,353.975 721.404,353.975 721.404,485.244 724.208,485.244 724.208,459.793 727.011,459.793 727.011,772.947 729.815,772.947 729.815,1101.64 732.619,1101.64 732.619,913.914 735.422,913.914 735.422,458.991 738.226,458.991 738.226,385.405 741.03,385.405 741.03,220.695 743.833,220.695 743.833,1425.77 746.637,1425.77 746.637,510.502 749.44,510.502 749.44,125.538 752.244,125.538 752.244,1232.39 755.048,1232.39 755.048,325.15 757.851,325.15 757.851,651.822 760.655,651.822 760.655,490.845 763.459,490.845 763.459,92.5934 766.262,92.5934 766.262,107.69 769.066,107.69 769.066,462.075 771.87,462.075 771.87,867.136 774.673,867.136 774.673,488.678 777.477,488.678 777.477,1278 780.28,1278 780.28,636.411 783.084,636.411 783.084,669.93 785.888,669.93 785.888,944.612 788.691,944.612 788.691,1141.28 791.495,1141.28 791.495,1285.99 794.299,1285.99 794.299,443.191 797.102,443.191 797.102,1270.68 799.906,1270.68 799.906,273.971 802.71,273.971 802.71,245.856 805.513,245.856 805.513,725.634 808.317,725.634 808.317,136.523 811.12,136.523 811.12,503.453 813.924,503.453 813.924,855.34 816.728,855.34 816.728,608.213 819.531,608.213 819.531,1441.16 822.335,1441.16 822.335,1251.74 825.139,1251.74 825.139,1304.35 827.942,1304.35 827.942,820.336 830.746,820.336 830.746,638.328 833.55,638.328 833.55,395.839 836.353,395.839 836.353,787.03 839.157,787.03 839.157,403.356 841.96,403.356 841.96,1051.02 844.764,1051.02 844.764,849.516 847.568,849.516 847.568,275.857 850.371,275.857 850.371,1087 853.175,1087 853.175,504.403 855.979,504.403 855.979,770.74 858.782,770.74 858.782,1239.22 861.586,1239.22 861.586,970.784 864.39,970.784 864.39,167.737 867.193,167.737 867.193,344.105 869.997,344.105 869.997,656.199 872.8,656.199 872.8,133.861 875.604,133.861 875.604,969.839 878.408,969.839 878.408,757.14 881.211,757.14 881.211,891.795 884.015,891.795 884.015,1105.69 886.819,1105.69 886.819,959.606 889.622,959.606 889.622,346.821 892.426,346.821 892.426,178.72 895.23,178.72 895.23,1188.27 898.033,1188.27 898.033,549.047 900.837,549.047 900.837,1300.87 903.64,1300.87 903.64,1123.67 906.444,1123.67 906.444,572.245 909.248,572.245 909.248,422.002 912.051,422.002 912.051,309.641 914.855,309.641 914.855,332.783 917.659,332.783 917.659,328.331 920.462,328.331 920.462,1330.61 923.266,1330.61 923.266,816.271 926.07,816.271 926.07,855.799 928.873,855.799 928.873,1365.59 931.677,1365.59 931.677,649.889 934.48,649.889 934.48,771.74 937.284,771.74 937.284,1152.19 940.088,1152.19 940.088,1363.95 942.891,1363.95 942.891,896.715 945.695,896.715 945.695,1185.28 948.499,1185.28 948.499,1177.21 951.302,1177.21 951.302,934.144 954.106,934.144 954.106,798.228 956.91,798.228 956.91,97.0476 959.713,97.0476 959.713,565.875 962.517,565.875 962.517,345.839 965.32,345.839 965.32,1152.57 968.124,1152.57 968.124,1004.5 970.928,1004.5 970.928,1190.61 973.731,1190.61 973.731,534.442 976.535,534.442 976.535,199.012 979.339,199.012 979.339,633.587 982.142,633.587 982.142,1272.07 984.946,1272.07 984.946,1113.21 987.75,1113.21 987.75,333.816 990.553,333.816 990.553,392.381 993.357,392.381 993.357,900.455 996.16,900.455 996.16,130.367 998.964,130.367 998.964,999.617 1001.77,999.617 1001.77,920.518 1004.57,920.518 1004.57,448.837 1007.37,448.837 1007.37,1011.17 1010.18,1011.17 1010.18,118.129 1012.98,118.129 1012.98,653.1 1015.79,653.1 1015.79,367.737 1018.59,367.737 1018.59,1018.25 1021.39,1018.25 1021.39,101.917 1024.2,101.917 1024.2,926.374 1027,926.374 1027,461.18 1029.8,461.18 1029.8,382.279 1032.61,382.279 1032.61,1034.83 1035.41,1034.83 1035.41,375.305 1038.21,375.305 1038.21,453.32 1041.02,453.32 1041.02,87.9763 1043.82,87.9763 1043.82,140.602 1046.63,140.602 1046.63,1065.27 1049.43,1065.27 1049.43,603.52 1052.23,603.52 1052.23,1284.5 1055.04,1284.5 1055.04,1096.58 1057.84,1096.58 1057.84,992.698 1060.64,992.698 1060.64,1445.72 1063.45,1445.72 1063.45,1255.72 1066.25,1255.72 1066.25,1289.54 1069.05,1289.54 1069.05,786.398 1071.86,786.398 1071.86,1258.15 1074.66,1258.15 1074.66,153.223 1077.47,153.223 1077.47,565.273 1080.27,565.273 1080.27,334.04 1083.07,334.04 1083.07,1420.09 1085.88,1420.09 1085.88,1090.65 1088.68,1090.65 1088.68,895.154 1091.48,895.154 1091.48,792.106 1094.29,792.106 1094.29,1214.49 1097.09,1214.49 1097.09,537.965 1099.89,537.965 1099.89,1271.44 1102.7,1271.44 1102.7,677.813 1105.5,677.813 1105.5,505.465 1108.31,505.465 1108.31,530.884 1111.11,530.884 1111.11,1225.37 1113.91,1225.37 1113.91,1253.47 1116.72,1253.47 1116.72,1397.66 1119.52,1397.66 1119.52,633.004 1122.32,633.004 1122.32,1370.01 1125.13,1370.01 1125.13,1137.82 1127.93,1137.82 1127.93,1273.7 1130.73,1273.7 1130.73,891.602 1133.54,891.602 1133.54,538.158 1136.34,538.158 1136.34,265.305 1139.15,265.305 1139.15,884.407 1141.95,884.407 1141.95,1279.65 1144.75,1279.65 1144.75,794.079 1147.56,794.079 1147.56,912.026 1150.36,912.026 1150.36,359.001 1153.16,359.001 1153.16,735.238 1155.97,735.238 1155.97,225.104 1158.77,225.104 1158.77,294.003 1161.57,294.003 1161.57,456.384 1164.38,456.384 1164.38,876.652 1167.18,876.652 1167.18,1106.87 1169.99,1106.87 1169.99,413.356 1172.79,413.356 1172.79,159.943 1175.59,159.943 1175.59,1442.37 1178.4,1442.37 1178.4,1020.4 1181.2,1020.4 1181.2,594.976 1184,594.976 1184,836.143 1186.81,836.143 1186.81,812.702 1189.61,812.702 1189.61,1236.37 1192.41,1236.37 1192.41,196.638 1195.22,196.638 1195.22,862.117 1198.02,862.117 1198.02,811.777 1200.83,811.777 1200.83,181.312 1203.63,181.312 1203.63,139.292 1206.43,139.292 1206.43,1300.95 1209.24,1300.95 1209.24,1141.08 1212.04,1141.08 1212.04,1075.74 1214.84,1075.74 1214.84,694.284 1217.65,694.284 1217.65,522.59 1220.45,522.59 1220.45,928.001 1223.25,928.001 1223.25,1280.2 1226.06,1280.2 1226.06,1294.57 1228.86,1294.57 1228.86,499.243 1231.67,499.243 1231.67,1363.94 1234.47,1363.94 1234.47,678.611 1237.27,678.611 1237.27,1197.69 1240.08,1197.69 1240.08,556.303 1242.88,556.303 1242.88,543.462 1245.68,543.462 1245.68,994.483 1248.49,994.483 1248.49,725.014 1251.29,725.014 1251.29,991.279 1254.09,991.279 1254.09,435.72 1256.9,435.72 1256.9,1093.65 1259.7,1093.65 1259.7,603.293 1262.51,603.293 1262.51,1379.95 1265.31,1379.95 1265.31,880.191 1268.11,880.191 1268.11,656.189 "/>
<path clip-path="url(#clip270)" d="M1763.62 250.738 L2280.54 250.738 L2280.54 95.2176 L1763.62 95.2176  Z" fill="#ffffff" fill-rule="evenodd" fill-opacity="1"/>
<polyline clip-path="url(#clip270)" style="stroke:#000000; stroke-linecap:round; stroke-linejoin:round; stroke-width:4; stroke-opacity:1; fill:none" points="1763.62,250.738 2280.54,250.738 2280.54,95.2176 1763.62,95.2176 1763.62,250.738 "/>
<polyline clip-path="url(#clip270)" style="stroke:#009af9; stroke-linecap:round; stroke-linejoin:round; stroke-width:4; stroke-opacity:1; fill:none" points="1787.69,147.058 1932.12,147.058 "/>
<path clip-path="url(#clip270)" d="M1956.19 128.319 L1966.01 128.319 L1966.01 131.629 L1960.45 131.629 L1960.45 167.277 L1966.01 167.277 L1966.01 170.588 L1956.19 170.588 L1956.19 128.319 Z" fill="#000000" fill-rule="nonzero" fill-opacity="1" /><path clip-path="url(#clip270)" d="M1979.71 160.402 L1996.03 160.402 L1996.03 164.338 L1974.09 164.338 L1974.09 160.402 Q1976.75 157.648 1981.33 153.018 Q1985.94 148.365 1987.12 147.023 Q1989.36 144.5 1990.24 142.764 Q1991.15 141.004 1991.15 139.315 Q1991.15 136.56 1989.2 134.824 Q1987.28 133.088 1984.18 133.088 Q1981.98 133.088 1979.52 133.852 Q1977.09 134.615 1974.32 136.166 L1974.32 131.444 Q1977.14 130.31 1979.59 129.731 Q1982.05 129.153 1984.09 129.153 Q1989.46 129.153 1992.65 131.838 Q1995.84 134.523 1995.84 139.014 Q1995.84 141.143 1995.03 143.065 Q1994.25 144.963 1992.14 147.555 Q1991.56 148.227 1988.46 151.444 Q1985.36 154.639 1979.71 160.402 Z" fill="#000000" fill-rule="nonzero" fill-opacity="1" /><path clip-path="url(#clip270)" d="M2015.84 132.856 Q2012.23 132.856 2010.4 136.421 Q2008.6 139.963 2008.6 147.092 Q2008.6 154.199 2010.4 157.764 Q2012.23 161.305 2015.84 161.305 Q2019.48 161.305 2021.28 157.764 Q2023.11 154.199 2023.11 147.092 Q2023.11 139.963 2021.28 136.421 Q2019.48 132.856 2015.84 132.856 M2015.84 129.153 Q2021.65 129.153 2024.71 133.759 Q2027.79 138.342 2027.79 147.092 Q2027.79 155.819 2024.71 160.426 Q2021.65 165.009 2015.84 165.009 Q2010.03 165.009 2006.96 160.426 Q2003.9 155.819 2003.9 147.092 Q2003.9 138.342 2006.96 133.759 Q2010.03 129.153 2015.84 129.153 Z" fill="#000000" fill-rule="nonzero" fill-opacity="1" /><path clip-path="url(#clip270)" d="M2046.01 132.856 Q2042.39 132.856 2040.57 136.421 Q2038.76 139.963 2038.76 147.092 Q2038.76 154.199 2040.57 157.764 Q2042.39 161.305 2046.01 161.305 Q2049.64 161.305 2051.45 157.764 Q2053.27 154.199 2053.27 147.092 Q2053.27 139.963 2051.45 136.421 Q2049.64 132.856 2046.01 132.856 M2046.01 129.153 Q2051.82 129.153 2054.87 133.759 Q2057.95 138.342 2057.95 147.092 Q2057.95 155.819 2054.87 160.426 Q2051.82 165.009 2046.01 165.009 Q2040.2 165.009 2037.12 160.426 Q2034.06 155.819 2034.06 147.092 Q2034.06 138.342 2037.12 133.759 Q2040.2 129.153 2046.01 129.153 Z" fill="#000000" fill-rule="nonzero" fill-opacity="1" /><path clip-path="url(#clip270)" d="M2066.98 160.402 L2074.62 160.402 L2074.62 134.037 L2066.31 135.703 L2066.31 131.444 L2074.57 129.778 L2079.25 129.778 L2079.25 160.402 L2086.89 160.402 L2086.89 164.338 L2066.98 164.338 L2066.98 160.402 Z" fill="#000000" fill-rule="nonzero" fill-opacity="1" /><path clip-path="url(#clip270)" d="M2096.82 158.458 L2101.7 158.458 L2101.7 162.439 L2097.9 169.847 L2094.92 169.847 L2096.82 162.439 L2096.82 158.458 Z" fill="#000000" fill-rule="nonzero" fill-opacity="1" /><path clip-path="url(#clip270)" d="M2130.5 160.402 L2146.82 160.402 L2146.82 164.338 L2124.87 164.338 L2124.87 160.402 Q2127.53 157.648 2132.12 153.018 Q2136.72 148.365 2137.9 147.023 Q2140.15 144.5 2141.03 142.764 Q2141.93 141.004 2141.93 139.315 Q2141.93 136.56 2139.99 134.824 Q2138.07 133.088 2134.96 133.088 Q2132.76 133.088 2130.31 133.852 Q2127.88 134.615 2125.1 136.166 L2125.1 131.444 Q2127.93 130.31 2130.38 129.731 Q2132.83 129.153 2134.87 129.153 Q2140.24 129.153 2143.44 131.838 Q2146.63 134.523 2146.63 139.014 Q2146.63 141.143 2145.82 143.065 Q2145.03 144.963 2142.93 147.555 Q2142.35 148.227 2139.25 151.444 Q2136.14 154.639 2130.5 160.402 Z" fill="#000000" fill-rule="nonzero" fill-opacity="1" /><path clip-path="url(#clip270)" d="M2166.63 132.856 Q2163.02 132.856 2161.19 136.421 Q2159.39 139.963 2159.39 147.092 Q2159.39 154.199 2161.19 157.764 Q2163.02 161.305 2166.63 161.305 Q2170.26 161.305 2172.07 157.764 Q2173.9 154.199 2173.9 147.092 Q2173.9 139.963 2172.07 136.421 Q2170.26 132.856 2166.63 132.856 M2166.63 129.153 Q2172.44 129.153 2175.5 133.759 Q2178.57 138.342 2178.57 147.092 Q2178.57 155.819 2175.5 160.426 Q2172.44 165.009 2166.63 165.009 Q2160.82 165.009 2157.74 160.426 Q2154.69 155.819 2154.69 147.092 Q2154.69 138.342 2157.74 133.759 Q2160.82 129.153 2166.63 129.153 Z" fill="#000000" fill-rule="nonzero" fill-opacity="1" /><path clip-path="url(#clip270)" d="M2196.79 132.856 Q2193.18 132.856 2191.35 136.421 Q2189.55 139.963 2189.55 147.092 Q2189.55 154.199 2191.35 157.764 Q2193.18 161.305 2196.79 161.305 Q2200.43 161.305 2202.23 157.764 Q2204.06 154.199 2204.06 147.092 Q2204.06 139.963 2202.23 136.421 Q2200.43 132.856 2196.79 132.856 M2196.79 129.153 Q2202.6 129.153 2205.66 133.759 Q2208.74 138.342 2208.74 147.092 Q2208.74 155.819 2205.66 160.426 Q2202.6 165.009 2196.79 165.009 Q2190.98 165.009 2187.9 160.426 Q2184.85 155.819 2184.85 147.092 Q2184.85 138.342 2187.9 133.759 Q2190.98 129.153 2196.79 129.153 Z" fill="#000000" fill-rule="nonzero" fill-opacity="1" /><path clip-path="url(#clip270)" d="M2231.12 145.703 Q2234.48 146.421 2236.35 148.689 Q2238.25 150.958 2238.25 154.291 Q2238.25 159.407 2234.73 162.208 Q2231.21 165.009 2224.73 165.009 Q2222.56 165.009 2220.24 164.569 Q2217.95 164.152 2215.5 163.296 L2215.5 158.782 Q2217.44 159.916 2219.76 160.495 Q2222.07 161.074 2224.59 161.074 Q2228.99 161.074 2231.28 159.338 Q2233.6 157.601 2233.6 154.291 Q2233.6 151.236 2231.44 149.523 Q2229.32 147.787 2225.5 147.787 L2221.47 147.787 L2221.47 143.944 L2225.68 143.944 Q2229.13 143.944 2230.96 142.578 Q2232.79 141.19 2232.79 138.597 Q2232.79 135.935 2230.89 134.523 Q2229.01 133.088 2225.5 133.088 Q2223.57 133.088 2221.38 133.504 Q2219.18 133.921 2216.54 134.801 L2216.54 130.634 Q2219.2 129.893 2221.51 129.523 Q2223.85 129.153 2225.91 129.153 Q2231.24 129.153 2234.34 131.583 Q2237.44 133.99 2237.44 138.111 Q2237.44 140.981 2235.8 142.972 Q2234.15 144.94 2231.12 145.703 Z" fill="#000000" fill-rule="nonzero" fill-opacity="1" /><path clip-path="url(#clip270)" d="M2245.84 128.366 L2249.55 128.366 Q2253.02 133.828 2254.73 139.06 Q2256.47 144.291 2256.47 149.453 Q2256.47 154.639 2254.73 159.893 Q2253.02 165.148 2249.55 170.588 L2245.84 170.588 Q2248.92 165.287 2250.43 160.055 Q2251.95 154.801 2251.95 149.453 Q2251.95 144.106 2250.43 138.898 Q2248.92 133.69 2245.84 128.366 Z" fill="#000000" fill-rule="nonzero" fill-opacity="1" /><polyline clip-path="url(#clip270)" style="stroke:#e26f46; stroke-linecap:round; stroke-linejoin:round; stroke-width:4; stroke-opacity:1; fill:none" points="1787.69,198.898 1932.12,198.898 "/>
<path clip-path="url(#clip270)" d="M1956.19 180.159 L1966.01 180.159 L1966.01 183.469 L1960.45 183.469 L1960.45 219.117 L1966.01 219.117 L1966.01 222.428 L1956.19 222.428 L1956.19 180.159 Z" fill="#000000" fill-rule="nonzero" fill-opacity="1" /><path clip-path="url(#clip270)" d="M1979.71 212.242 L1996.03 212.242 L1996.03 216.178 L1974.09 216.178 L1974.09 212.242 Q1976.75 209.488 1981.33 204.858 Q1985.94 200.205 1987.12 198.863 Q1989.36 196.34 1990.24 194.604 Q1991.15 192.844 1991.15 191.155 Q1991.15 188.4 1989.2 186.664 Q1987.28 184.928 1984.18 184.928 Q1981.98 184.928 1979.52 185.692 Q1977.09 186.455 1974.32 188.006 L1974.32 183.284 Q1977.14 182.15 1979.59 181.571 Q1982.05 180.993 1984.09 180.993 Q1989.46 180.993 1992.65 183.678 Q1995.84 186.363 1995.84 190.854 Q1995.84 192.983 1995.03 194.905 Q1994.25 196.803 1992.14 199.395 Q1991.56 200.067 1988.46 203.284 Q1985.36 206.479 1979.71 212.242 Z" fill="#000000" fill-rule="nonzero" fill-opacity="1" /><path clip-path="url(#clip270)" d="M2015.84 184.696 Q2012.23 184.696 2010.4 188.261 Q2008.6 191.803 2008.6 198.932 Q2008.6 206.039 2010.4 209.604 Q2012.23 213.145 2015.84 213.145 Q2019.48 213.145 2021.28 209.604 Q2023.11 206.039 2023.11 198.932 Q2023.11 191.803 2021.28 188.261 Q2019.48 184.696 2015.84 184.696 M2015.84 180.993 Q2021.65 180.993 2024.71 185.599 Q2027.79 190.182 2027.79 198.932 Q2027.79 207.659 2024.71 212.266 Q2021.65 216.849 2015.84 216.849 Q2010.03 216.849 2006.96 212.266 Q2003.9 207.659 2003.9 198.932 Q2003.9 190.182 2006.96 185.599 Q2010.03 180.993 2015.84 180.993 Z" fill="#000000" fill-rule="nonzero" fill-opacity="1" /><path clip-path="url(#clip270)" d="M2046.01 184.696 Q2042.39 184.696 2040.57 188.261 Q2038.76 191.803 2038.76 198.932 Q2038.76 206.039 2040.57 209.604 Q2042.39 213.145 2046.01 213.145 Q2049.64 213.145 2051.45 209.604 Q2053.27 206.039 2053.27 198.932 Q2053.27 191.803 2051.45 188.261 Q2049.64 184.696 2046.01 184.696 M2046.01 180.993 Q2051.82 180.993 2054.87 185.599 Q2057.95 190.182 2057.95 198.932 Q2057.95 207.659 2054.87 212.266 Q2051.82 216.849 2046.01 216.849 Q2040.2 216.849 2037.12 212.266 Q2034.06 207.659 2034.06 198.932 Q2034.06 190.182 2037.12 185.599 Q2040.2 180.993 2046.01 180.993 Z" fill="#000000" fill-rule="nonzero" fill-opacity="1" /><path clip-path="url(#clip270)" d="M2066.98 212.242 L2074.62 212.242 L2074.62 185.877 L2066.31 187.543 L2066.31 183.284 L2074.57 181.618 L2079.25 181.618 L2079.25 212.242 L2086.89 212.242 L2086.89 216.178 L2066.98 216.178 L2066.98 212.242 Z" fill="#000000" fill-rule="nonzero" fill-opacity="1" /><path clip-path="url(#clip270)" d="M2096.82 210.298 L2101.7 210.298 L2101.7 214.279 L2097.9 221.687 L2094.92 221.687 L2096.82 214.279 L2096.82 210.298 Z" fill="#000000" fill-rule="nonzero" fill-opacity="1" /><path clip-path="url(#clip270)" d="M2130.5 212.242 L2146.82 212.242 L2146.82 216.178 L2124.87 216.178 L2124.87 212.242 Q2127.53 209.488 2132.12 204.858 Q2136.72 200.205 2137.9 198.863 Q2140.15 196.34 2141.03 194.604 Q2141.93 192.844 2141.93 191.155 Q2141.93 188.4 2139.99 186.664 Q2138.07 184.928 2134.96 184.928 Q2132.76 184.928 2130.31 185.692 Q2127.88 186.455 2125.1 188.006 L2125.1 183.284 Q2127.93 182.15 2130.38 181.571 Q2132.83 180.993 2134.87 180.993 Q2140.24 180.993 2143.44 183.678 Q2146.63 186.363 2146.63 190.854 Q2146.63 192.983 2145.82 194.905 Q2145.03 196.803 2142.93 199.395 Q2142.35 200.067 2139.25 203.284 Q2136.14 206.479 2130.5 212.242 Z" fill="#000000" fill-rule="nonzero" fill-opacity="1" /><path clip-path="url(#clip270)" d="M2166.63 184.696 Q2163.02 184.696 2161.19 188.261 Q2159.39 191.803 2159.39 198.932 Q2159.39 206.039 2161.19 209.604 Q2163.02 213.145 2166.63 213.145 Q2170.26 213.145 2172.07 209.604 Q2173.9 206.039 2173.9 198.932 Q2173.9 191.803 2172.07 188.261 Q2170.26 184.696 2166.63 184.696 M2166.63 180.993 Q2172.44 180.993 2175.5 185.599 Q2178.57 190.182 2178.57 198.932 Q2178.57 207.659 2175.5 212.266 Q2172.44 216.849 2166.63 216.849 Q2160.82 216.849 2157.74 212.266 Q2154.69 207.659 2154.69 198.932 Q2154.69 190.182 2157.74 185.599 Q2160.82 180.993 2166.63 180.993 Z" fill="#000000" fill-rule="nonzero" fill-opacity="1" /><path clip-path="url(#clip270)" d="M2196.79 184.696 Q2193.18 184.696 2191.35 188.261 Q2189.55 191.803 2189.55 198.932 Q2189.55 206.039 2191.35 209.604 Q2193.18 213.145 2196.79 213.145 Q2200.43 213.145 2202.23 209.604 Q2204.06 206.039 2204.06 198.932 Q2204.06 191.803 2202.23 188.261 Q2200.43 184.696 2196.79 184.696 M2196.79 180.993 Q2202.6 180.993 2205.66 185.599 Q2208.74 190.182 2208.74 198.932 Q2208.74 207.659 2205.66 212.266 Q2202.6 216.849 2196.79 216.849 Q2190.98 216.849 2187.9 212.266 Q2184.85 207.659 2184.85 198.932 Q2184.85 190.182 2187.9 185.599 Q2190.98 180.993 2196.79 180.993 Z" fill="#000000" fill-rule="nonzero" fill-opacity="1" /><path clip-path="url(#clip270)" d="M2220.98 212.242 L2237.3 212.242 L2237.3 216.178 L2215.36 216.178 L2215.36 212.242 Q2218.02 209.488 2222.6 204.858 Q2227.21 200.205 2228.39 198.863 Q2230.63 196.34 2231.51 194.604 Q2232.42 192.844 2232.42 191.155 Q2232.42 188.4 2230.47 186.664 Q2228.55 184.928 2225.45 184.928 Q2223.25 184.928 2220.8 185.692 Q2218.37 186.455 2215.59 188.006 L2215.59 183.284 Q2218.41 182.15 2220.87 181.571 Q2223.32 180.993 2225.36 180.993 Q2230.73 180.993 2233.92 183.678 Q2237.12 186.363 2237.12 190.854 Q2237.12 192.983 2236.31 194.905 Q2235.52 196.803 2233.41 199.395 Q2232.83 200.067 2229.73 203.284 Q2226.63 206.479 2220.98 212.242 Z" fill="#000000" fill-rule="nonzero" fill-opacity="1" /><path clip-path="url(#clip270)" d="M2245.84 180.206 L2249.55 180.206 Q2253.02 185.668 2254.73 190.9 Q2256.47 196.131 2256.47 201.293 Q2256.47 206.479 2254.73 211.733 Q2253.02 216.988 2249.55 222.428 L2245.84 222.428 Q2248.92 217.127 2250.43 211.895 Q2251.95 206.641 2251.95 201.293 Q2251.95 195.946 2250.43 190.738 Q2248.92 185.53 2245.84 180.206 Z" fill="#000000" fill-rule="nonzero" fill-opacity="1" /></svg>
